{
.appVersion = "919";
DisplayStrings = (
"\U00BC/foursuperior/fraction/divisionslash"
);
copyright = "Copyright (c) 2011 by Jovanny Lemonad. All rights reserved.";
customParameters = (
{
name = licenseURL;
value = "http://scripts.sil.org/OFL";
},
{
name = description;
value = "Copyright (c) 2011 by Jovanny Lemonad. All rights reserved.";
},
{
name = trademark;
value = "Philosopher Italic is a trademark of Jovanny Lemonad.";
},
{
name = license;
value = "Copyright (c) June 5, 2011, Jovanny Lemonad (lemonad@jovanny.ru), with Reserved Font Name Nixie.\012\012\012This Font Software is licensed under the SIL Open Font License, Version 1.1. This license is copied below, and is also available with a FAQ at: http://scripts.sil.org/OFL";
},
{
name = openTypeOS2VendorID;
value = MONO;
},
{
name = glyphOrder;
value = (
.null,
CR,
space,
exclam,
quotedbl,
numbersign,
dollar,
percent,
ampersand,
quotesingle,
parenleft,
parenright,
asterisk,
plus,
comma,
hyphen,
period,
slash,
zero,
one,
two,
three,
four,
five,
six,
seven,
eight,
nine,
colon,
semicolon,
less,
equal,
greater,
question,
at,
A,
B,
C,
D,
E,
F,
G,
H,
I,
J,
K,
L,
M,
N,
O,
P,
Q,
R,
S,
T,
U,
V,
W,
X,
Y,
Z,
bracketleft,
backslash,
bracketright,
asciicircum,
underscore,
grave,
a,
b,
c,
d,
e,
f,
g,
h,
i,
j,
k,
l,
m,
n,
o,
p,
q,
r,
s,
t,
u,
v,
w,
x,
y,
z,
braceleft,
bar,
braceright,
asciitilde,
uni00A0,
exclamdown,
cent,
sterling,
currency,
yen,
brokenbar,
section,
dieresis,
copyright,
ordfeminine,
guillemotleft,
logicalnot,
uni00AD,
registered,
macron,
degree,
plusminus,
twosuperior,
threesuperior,
acute,
mu,
paragraph,
periodcentered,
cedilla,
onesuperior,
ordmasculine,
guillemotright,
onequarter,
onehalf,
threequarters,
questiondown,
Agrave,
Aacute,
Acircumflex,
Atilde,
Adieresis,
Aring,
AE,
Ccedilla,
Egrave,
Eacute,
Ecircumflex,
Edieresis,
Igrave,
Iacute,
Icircumflex,
Idieresis,
Eth,
Ntilde,
Ograve,
Oacute,
Ocircumflex,
Otilde,
Odieresis,
multiply,
Oslash,
Ugrave,
Uacute,
Ucircumflex,
Udieresis,
Yacute,
Thorn,

glyphs = (
{
glyphname = exclam;
lastChange = "2016-08-26 10:24:29 +0000";
layers = (
{
layerId = UUID0;
paths = (
{
closed = 1;
nodes = (
"234 660 LINE",
"140 660 LINE",
"69 155 LINE",
"127 155 LINE"
);
},
{
closed = 1;
nodes = (
"52 94 OFFCURVE",
"23 62 OFFCURVE",
"23 31 CURVE SMOOTH",
"23 4 OFFCURVE",
"41 -14 OFFCURVE",
"68 -14 CURVE SMOOTH",
"101 -14 OFFCURVE",
"133 18 OFFCURVE",
"133 49 CURVE SMOOTH",
"133 74 OFFCURVE",
"114 94 OFFCURVE",
"87 94 CURVE SMOOTH"
);
}
);
width = 239;
},
{
layerId = "F7C9FF73-DC1F-4AC6-B1F4-3E0815F912B2";
paths = (
{
closed = 1;
nodes = (
"258 660 LINE",
"125 660 LINE",
"55 155 LINE",
"149 155 LINE"
);
},
{
closed = 1;
nodes = (
"145 90 OFFCURVE",
"129 108 OFFCURVE",
"94 108 CURVE SMOOTH",
"49 108 OFFCURVE",
"21 72 OFFCURVE",
"21 32 CURVE SMOOTH",
"21 4 OFFCURVE",
"39 -14 OFFCURVE",
"72 -14 CURVE SMOOTH",
"116 -14 OFFCURVE",
"145 22 OFFCURVE",
"145 61 CURVE SMOOTH"
);
}
);
width = 248;
}
);
unicode = 0021;
},
{
glyphname = quotedbl;
lastChange = "2016-08-26 10:24:29 +0000";
layers = (
{
layerId = UUID0;
paths = (
{
closed = 1;
nodes = (
"302 390 LINE",
"380 660 LINE",
"280 660 LINE",
"262 390 LINE"
);
},
{
closed = 1;
nodes = (
"142 390 LINE",
"220 660 LINE",
"120 660 LINE",
"102 390 LINE"
);
}
);
width = 368;
},
{
layerId = "F7C9FF73-DC1F-4AC6-B1F4-3E0815F912B2";
paths = (
{
closed = 1;
nodes = (
"334 390 LINE",
"412 660 LINE",
"282 660 LINE",
"264 390 LINE"
);
},
{
closed = 1;
nodes = (
"164 390 LINE",
"242 660 LINE",
"112 660 LINE",
"94 390 LINE"
);
}
);
width = 392;
}
);
leftKerningGroup = quotedbl;
rightKerningGroup = quotedbl;
unicode = 0022;
},
{
glyphname = numbersign;
lastChange = "2016-08-26 10:24:29 +0000";
layers = (
{
layerId = UUID0;
paths = (
{
closed = 1;
nodes = (
"143 0 LINE",
"208 175 LINE",
"353 175 LINE",
"288 0 LINE",
"353 0 LINE",
"418 175 LINE",
"558 175 LINE",
"569 235 LINE",
"442 235 LINE",
"511 415 LINE",
"661 415 LINE",
"671 475 LINE",
"534 475 LINE",
"612 675 LINE",
"547 675 LINE",
"469 475 LINE",
"324 475 LINE",
"402 675 LINE",
"337 675 LINE",
"259 475 LINE",
"126 475 LINE",
"116 415 LINE",
"236 415 LINE",
"168 235 LINE",
"24 235 LINE",
"13 175 LINE",
"143 175 LINE",
"78 0 LINE"
);
},
{
closed = 1;
nodes = (
"301 415 LINE",
"446 415 LINE",
"378 235 LINE",
"232 235 LINE"
);
}
);
width = 669;
},
{
layerId = "F7C9FF73-DC1F-4AC6-B1F4-3E0815F912B2";
paths = (
{
closed = 1;
nodes = (
"168 0 LINE",
"234 172 LINE",
"361 172 LINE",
"295 0 LINE",
"394 0 LINE",
"460 172 LINE",
"592 172 LINE",
"603 237 LINE",
"485 237 LINE",
"552 413 LINE",
"694 413 LINE",
"706 478 LINE",
"578 478 LINE",
"654 675 LINE",
"555 675 LINE",
"479 478 LINE",
"352 478 LINE",
"428 675 LINE",
"329 675 LINE",
"253 478 LINE",
"126 478 LINE",
"114 413 LINE",
"227 413 LINE",
"159 237 LINE",
"23 237 LINE",
"12 172 LINE",
"135 172 LINE",
"69 0 LINE"
);
},
{
closed = 1;
nodes = (
"326 413 LINE",
"453 413 LINE",
"385 237 LINE",
"259 237 LINE"
);
}
);
width = 702;
}
);
unicode = 0023;
},
{
glyphname = dollar;
lastChange = "2016-08-26 10:24:29 +0000";
layers = (
{
layerId = UUID0;
paths = (
{
closed = 1;
nodes = (
"213 -80 LINE",
"225 -17 LINE",
"354 -12 OFFCURVE",
"469 69 OFFCURVE",
"469 198 CURVE SMOOTH",
"469 254 OFFCURVE",
"436 290 OFFCURVE",
"371 333 CURVE SMOOTH",
"295 383 LINE",
"340 636 LINE",
"428 625 OFFCURVE",
"472 572 OFFCURVE",
"472 455 CURVE SMOOTH",
"472 451 LINE",
"490 451 LINE",
"509 563 OFFCURVE",
"510 565 OFFCURVE",
"510 570 CURVE SMOOTH",
"510 630 OFFCURVE",
"429 668 OFFCURVE",
"347 676 CURVE",
"357 735 LINE",
"317 735 LINE",
"307 678 LINE",
"184 670 OFFCURVE",
"87 591 OFFCURVE",
"87 472 CURVE SMOOTH",
"87 416 OFFCURVE",
"113 379 OFFCURVE",
"177 336 CURVE SMOOTH",
"239 294 LINE",
"192 24 LINE",
"100 35 OFFCURVE",
"56 89 OFFCURVE",
"56 208 CURVE SMOOTH",
"56 212 LINE",
"38 212 LINE",
"17 101 OFFCURVE",
"18 97 OFFCURVE",
"18 93 CURVE SMOOTH",
"18 34 OFFCURVE",
"97 -7 OFFCURVE",
"185 -15 CURVE",
"173 -80 LINE"
);
},
{
closed = 1;
nodes = (
"287 263 LINE",
"344 224 OFFCURVE",
"375 193 OFFCURVE",
"375 146 CURVE SMOOTH",
"375 69 OFFCURVE",
"299 26 OFFCURVE",
"232 23 CURVE",
"275 270 LINE"
);
},
{
closed = 1;
nodes = (
"259 407 LINE",
"203 444 OFFCURVE",
"171 470 OFFCURVE",
"171 517 CURVE SMOOTH",
"171 589 OFFCURVE",
"237 633 OFFCURVE",
"300 638 CURVE"
);
}
);
width = 524;
},
{
layerId = "F7C9FF73-DC1F-4AC6-B1F4-3E0815F912B2";
paths = (
{
closed = 1;
nodes = (
"386 735 LINE",
"316 735 LINE",
"306 677 LINE",
"186 664 OFFCURVE",
"81 593 OFFCURVE",
"81 472 CURVE SMOOTH",
"81 416 OFFCURVE",
"108 372 OFFCURVE",
"176 328 CURVE SMOOTH",
"237 287 LINE",
"192 29 LINE",
"103 40 OFFCURVE",
"60 92 OFFCURVE",
"60 212 CURVE SMOOTH",
"60 220 LINE",
"32 220 LINE",
"11 101 OFFCURVE",
"11 92 OFFCURVE",
"11 90 CURVE SMOOTH",
"11 29 OFFCURVE",
"92 -7 OFFCURVE",
"184 -15 CURVE",
"172 -80 LINE",
"242 -80 LINE",
"254 -16 LINE",
"380 -3 OFFCURVE",
"503 68 OFFCURVE",
"503 198 CURVE SMOOTH",
"503 255 OFFCURVE",
"469 294 OFFCURVE",
"400 341 CURVE",
"325 390 LINE",
"368 631 LINE",
"449 622 OFFCURVE",
"494 569 OFFCURVE",
"494 449 CURVE SMOOTH",
"494 441 LINE",
"522 441 LINE",
"544 562 OFFCURVE",
"544 566 OFFCURVE",
"544 570 CURVE SMOOTH",
"544 630 OFFCURVE",
"464 668 OFFCURVE",
"376 676 CURVE"
);
},
{
closed = 1;
nodes = (
"300 245 LINE",
"343 214 OFFCURVE",
"369 187 OFFCURVE",
"369 144 CURVE SMOOTH",
"369 81 OFFCURVE",
"317 41 OFFCURVE",
"262 31 CURVE"
);
},
{
closed = 1;
nodes = (
"263 432 LINE",
"227 459 OFFCURVE",
"205 481 OFFCURVE",
"205 518 CURVE SMOOTH",
"205 574 OFFCURVE",
"248 613 OFFCURVE",
"297 628 CURVE"
);
}
);
width = 552;
}
);
unicode = 0024;
},
{
glyphname = percent;
lastChange = "2016-08-26 10:24:29 +0000";
layers = (
{
layerId = UUID0;
paths = (
{
closed = 1;
nodes = (
"100 0 LINE",
"671 660 LINE",
"596 660 LINE",
"25 0 LINE"
);
},
{
closed = 1;
nodes = (
"408 30 OFFCURVE",
"384 54 OFFCURVE",
"384 101 CURVE SMOOTH",
"384 167 OFFCURVE",
"422 230 OFFCURVE",
"490 230 CURVE SMOOTH",
"537 230 OFFCURVE",
"560 207 OFFCURVE",
"560 160 CURVE SMOOTH",
"560 93 OFFCURVE",
"523 30 OFFCURVE",
"455 30 CURVE SMOOTH"
);
},
{
closed = 1;
nodes = (
"620 227 OFFCURVE",
"576 265 OFFCURVE",
"496 265 CURVE SMOOTH",
"397 265 OFFCURVE",
"324 193 OFFCURVE",
"324 100 CURVE SMOOTH",
"324 32 OFFCURVE",
"369 -5 OFFCURVE",
"449 -5 CURVE SMOOTH",
"548 -5 OFFCURVE",
"620 68 OFFCURVE",
"620 160 CURVE SMOOTH"
);
},
{
closed = 1;
nodes = (
"158 430 OFFCURVE",
"135 453 OFFCURVE",
"135 500 CURVE SMOOTH",
"135 567 OFFCURVE",
"173 630 OFFCURVE",
"241 630 CURVE SMOOTH",
"288 630 OFFCURVE",
"311 606 OFFCURVE",
"311 559 CURVE SMOOTH",
"311 493 OFFCURVE",
"273 430 OFFCURVE",
"205 430 CURVE SMOOTH"
);
},
{
closed = 1;
nodes = (
"371 627 OFFCURVE",
"327 665 OFFCURVE",
"247 665 CURVE SMOOTH",
"148 665 OFFCURVE",
"75 592 OFFCURVE",
"75 500 CURVE SMOOTH",
"75 433 OFFCURVE",
"119 395 OFFCURVE",
"199 395 CURVE SMOOTH",
"298 395 OFFCURVE",
"371 468 OFFCURVE",
"371 560 CURVE SMOOTH"
);
}
);
width = 676;
},
{
layerId = "F7C9FF73-DC1F-4AC6-B1F4-3E0815F912B2";
paths = (
{
closed = 1;
nodes = (
"142 0 LINE",
"742 660 LINE",
"636 660 LINE",
"36 0 LINE"
);
},
{
closed = 1;
nodes = (
"467 271 OFFCURVE",
"381 204 OFFCURVE",
"381 105 CURVE SMOOTH",
"381 34 OFFCURVE",
"432 -5 OFFCURVE",
"520 -5 CURVE SMOOTH",
"622 -5 OFFCURVE",
"705 62 OFFCURVE",
"705 161 CURVE SMOOTH",
"705 232 OFFCURVE",
"655 271 OFFCURVE",
"568 271 CURVE SMOOTH"
);
},
{
closed = 1;
nodes = (
"602 231 OFFCURVE",
"625 206 OFFCURVE",
"625 162 CURVE SMOOTH",
"625 97 OFFCURVE",
"589 35 OFFCURVE",
"526 35 CURVE SMOOTH",
"483 35 OFFCURVE",
"461 58 OFFCURVE",
"461 103 CURVE SMOOTH",
"461 164 OFFCURVE",
"494 231 OFFCURVE",
"559 231 CURVE SMOOTH"
);
},
{
closed = 1;
nodes = (
"158 665 OFFCURVE",
"72 598 OFFCURVE",
"72 499 CURVE SMOOTH",
"72 428 OFFCURVE",
"123 389 OFFCURVE",
"211 389 CURVE SMOOTH",
"314 389 OFFCURVE",
"396 458 OFFCURVE",
"396 557 CURVE SMOOTH",
"396 626 OFFCURVE",
"345 665 OFFCURVE",
"260 665 CURVE SMOOTH"
);
},
{
closed = 1;
nodes = (
"294 625 OFFCURVE",
"316 603 OFFCURVE",
"316 558 CURVE SMOOTH",
"316 495 OFFCURVE",
"284 429 OFFCURVE",
"217 429 CURVE SMOOTH",
"174 429 OFFCURVE",
"152 452 OFFCURVE",
"152 497 CURVE SMOOTH",
"152 558 OFFCURVE",
"187 625 OFFCURVE",
"251 625 CURVE SMOOTH"
);
}
);
width = 758;
}
);
unicode = 0025;
},
{
glyphname = ampersand;
lastChange = "2016-08-26 10:24:29 +0000";
layers = (
{
layerId = UUID0;
paths = (
{
closed = 1;
nodes = (
"15 36 OFFCURVE",
"75 -20 OFFCURVE",
"200 -20 CURVE SMOOTH",
"280 -20 OFFCURVE",
"346 7 OFFCURVE",
"401 43 CURVE",
"434 0 LINE",
"544 0 LINE",
"472 97 LINE",
"507 129 OFFCURVE",
"535 163 OFFCURVE",
"554 188 CURVE SMOOTH",
"584 230 LINE",
"567 245 LINE",
"558 232 OFFCURVE",
"548 219 OFFCURVE",
"536 205 CURVE SMOOTH",
"516 181 OFFCURVE",
"488 151 OFFCURVE",
"455 120 CURVE",
"292 340 LINE",
"379 393 OFFCURVE",
"476 461 OFFCURVE",
"476 566 CURVE SMOOTH",
"476 634 OFFCURVE",
"426 680 OFFCURVE",
"333 680 CURVE SMOOTH",
"217 680 OFFCURVE",
"123 601 OFFCURVE",
"123 490 CURVE SMOOTH",
"123 442 OFFCURVE",
"139 401 OFFCURVE",
"158 372 CURVE SMOOTH",
"169 355 OFFCURVE",
"181 339 OFFCURVE",
"194 326 CURVE",
"109 270 OFFCURVE",
"15 210 OFFCURVE",
"15 112 CURVE SMOOTH"
);
},
{
closed = 1;
nodes = (
"149 15 OFFCURVE",
"111 47 OFFCURVE",
"111 112 CURVE SMOOTH",
"111 189 OFFCURVE",
"159 248 OFFCURVE",
"218 291 CURVE",
"384 66 LINE",
"339 35 OFFCURVE",
"286 15 OFFCURVE",
"225 15 CURVE SMOOTH"
);
},
{
closed = 1;
nodes = (
"357 645 OFFCURVE",
"390 623 OFFCURVE",
"390 564 CURVE SMOOTH",
"390 478 OFFCURVE",
"329 420 OFFCURVE",
"268 375 CURVE",
"263 380 OFFCURVE",
"219 431 OFFCURVE",
"219 498 CURVE SMOOTH",
"219 565 OFFCURVE",
"259 645 OFFCURVE",
"327 645 CURVE SMOOTH"
);
}
);
width = 614;
},
{
layerId = "F7C9FF73-DC1F-4AC6-B1F4-3E0815F912B2";
paths = (
{
closed = 1;
nodes = (
"5 36 OFFCURVE",
"62 -20 OFFCURVE",
"227 -20 CURVE SMOOTH",
"327 -20 OFFCURVE",
"410 38 OFFCURVE",
"409 38 CURVE",
"441 0 LINE",
"577 0 LINE",
"498 103 LINE",
"533 135 OFFCURVE",
"560 168 OFFCURVE",
"579 193 CURVE SMOOTH",
"590 208 OFFCURVE",
"600 222 OFFCURVE",
"609 236 CURVE",
"576 261 LINE",
"567 248 OFFCURVE",
"556 234 OFFCURVE",
"545 221 CURVE SMOOTH",
"526 198 OFFCURVE",
"499 167 OFFCURVE",
"470 140 CURVE",
"320 340 LINE",
"405 391 OFFCURVE",
"513 461 OFFCURVE",
"513 564 CURVE SMOOTH",
"513 633 OFFCURVE",
"458 680 OFFCURVE",
"350 680 CURVE SMOOTH",
"234 680 OFFCURVE",
"121 614 OFFCURVE",
"121 496 CURVE SMOOTH",
"121 413 OFFCURVE",
"185 340 OFFCURVE",
"199 326 CURVE",
"106 278 OFFCURVE",
"5 217 OFFCURVE",
"5 108 CURVE SMOOTH"
);
},
{
closed = 1;
nodes = (
"171 20 OFFCURVE",
"136 56 OFFCURVE",
"136 115 CURVE SMOOTH",
"136 184 OFFCURVE",
"182 239 OFFCURVE",
"231 278 CURVE",
"284 203 OFFCURVE",
"330 147 OFFCURVE",
"385 72 CURVE",
"372 62 OFFCURVE",
"359 53 OFFCURVE",
"344 46 CURVE SMOOTH",
"319 33 OFFCURVE",
"283 20 OFFCURVE",
"243 20 CURVE SMOOTH"
);
},
{
closed = 1;
nodes = (
"368 640 OFFCURVE",
"393 621 OFFCURVE",
"393 569 CURVE SMOOTH",
"393 489 OFFCURVE",
"348 426 OFFCURVE",
"291 381 CURVE",
"274 400 OFFCURVE",
"250 437 OFFCURVE",
"250 490 CURVE SMOOTH",
"250 552 OFFCURVE",
"273 640 OFFCURVE",
"343 640 CURVE SMOOTH"
);
}
);
width = 633;
}
);
unicode = 0026;
},
{
glyphname = quotesingle;
lastChange = "2016-08-26 10:24:29 +0000";
layers = (
{
layerId = UUID0;
paths = (
{
closed = 1;
nodes = (
"142 390 LINE",
"220 660 LINE",
"120 660 LINE",
"102 390 LINE"
);
}
);
width = 208;
},
{
layerId = "F7C9FF73-DC1F-4AC6-B1F4-3E0815F912B2";
paths = (
{
closed = 1;
nodes = (
"164 390 LINE",
"242 660 LINE",
"112 660 LINE",
"94 390 LINE"
);
}
);
width = 222;
}
);
leftKerningGroup = quotedbl;
rightKerningGroup = quotedbl;
unicode = 0027;
},
{
glyphname = parenleft;
lastChange = "2016-08-26 10:24:29 +0000";
layers = (
{
layerId = UUID0;
paths = (
{
closed = 1;
nodes = (
"19 -5 OFFCURVE",
"84 -112 OFFCURVE",
"198 -210 CURVE",
"211 -195 LINE",
"132 -114 OFFCURVE",
"105 -10 OFFCURVE",
"105 101 CURVE SMOOTH",
"105 323 OFFCURVE",
"195 542 OFFCURVE",
"365 675 CURVE",
"357 690 LINE",
"154 549 OFFCURVE",
"19 381 OFFCURVE",
"19 140 CURVE SMOOTH"
);
}
);
width = 310;
},
{
layerId = "F7C9FF73-DC1F-4AC6-B1F4-3E0815F912B2";
paths = (
{
closed = 1;
nodes = (
"10 0 OFFCURVE",
"78 -120 OFFCURVE",
"210 -220 CURVE",
"227 -200 LINE",
"159 -128 OFFCURVE",
"132 -33 OFFCURVE",
"132 79 CURVE SMOOTH",
"132 300 OFFCURVE",
"211 544 OFFCURVE",
"382 680 CURVE",
"372 700 LINE",
"165 570 OFFCURVE",
"10 384 OFFCURVE",
"10 148 CURVE SMOOTH"
);
}
);
width = 321;
}
);
unicode = 0028;
},
{
glyphname = parenright;
lastChange = "2016-08-26 10:24:29 +0000";
layers = (
{
layerId = UUID0;
paths = (
{
closed = 1;
nodes = (
"277 484 OFFCURVE",
"212 591 OFFCURVE",
"97 690 CURVE",
"85 675 LINE",
"162 592 OFFCURVE",
"191 490 OFFCURVE",
"191 378 CURVE SMOOTH",
"191 157 OFFCURVE",
"101 -61 OFFCURVE",
"-68 -195 CURVE",
"-61 -210 LINE",
"141 -72 OFFCURVE",
"277 99 OFFCURVE",
"277 339 CURVE SMOOTH"
);
}
);
width = 310;
},
{
layerId = "F7C9FF73-DC1F-4AC6-B1F4-3E0815F912B2";
paths = (
{
closed = 1;
nodes = (
"298 480 OFFCURVE",
"230 600 OFFCURVE",
"98 700 CURVE",
"80 680 LINE",
"148 608 OFFCURVE",
"176 513 OFFCURVE",
"176 400 CURVE SMOOTH",
"176 179 OFFCURVE",
"97 -64 OFFCURVE",
"-74 -200 CURVE",
"-63 -220 LINE",
"143 -92 OFFCURVE",
"298 97 OFFCURVE",
"298 331 CURVE SMOOTH"
);
}
);
width = 321;
}
);
unicode = 0029;
},
{
glyphname = asterisk;
lastChange = "2016-08-26 10:24:29 +0000";
layers = (
{
layerId = UUID0;
paths = (
{
closed = 1;
nodes = (
"242 510 LINE",
"146 615 LINE",
"94 545 LINE",
"230 495 LINE",
"76 445 LINE",
"104 375 LINE",
"237 480 LINE",
"181 330 LINE",
"261 330 LINE",
"257 480 LINE",
"354 375 LINE",
"406 445 LINE",
"270 495 LINE",
"424 545 LINE",
"396 615 LINE",
"262 510 LINE",
"319 660 LINE",
"239 660 LINE"
);
}
);
width = 425;
},
{
layerId = "F7C9FF73-DC1F-4AC6-B1F4-3E0815F912B2";
paths = (
{
closed = 1;
nodes = (
"232 539 LINE",
"149 628 LINE",
"85 542 LINE",
"220 492 LINE",
"67 442 LINE",
"101 356 LINE",
"215 445 LINE",
"170 324 LINE",
"282 324 LINE",
"278 446 LINE",
"361 356 LINE",
"425 442 LINE",
"290 492 LINE",
"443 542 LINE",
"409 628 LINE",
"296 539 LINE",
"341 660 LINE",
"229 660 LINE"
);
}
);
width = 436;
}
);
unicode = 002A;
},
{
glyphname = plus;
lastChange = "2016-08-26 10:24:29 +0000";
layers = (
{
layerId = UUID0;
paths = (
{
closed = 1;
nodes = (
"203 100 LINE",
"263 100 LINE",
"298 300 LINE",
"498 300 LINE",
"509 360 LINE",
"309 360 LINE",
"344 560 LINE",
"284 560 LINE",
"249 360 LINE",
"49 360 LINE",
"38 300 LINE",
"238 300 LINE"
);
}
);
width = 529;
},
{
layerId = "F7C9FF73-DC1F-4AC6-B1F4-3E0815F912B2";
paths = (
{
closed = 1;
nodes = (
"197 100 LINE",
"287 100 LINE",
"322 295 LINE",
"519 295 LINE",
"531 365 LINE",
"334 365 LINE",
"368 560 LINE",
"278 560 LINE",
"244 365 LINE",
"47 365 LINE",
"35 295 LINE",
"232 295 LINE"
);
}
);
width = 547;
}
);
unicode = 002B;
},
{
glyphname = comma;
lastChange = "2016-08-26 10:24:29 +0000";
layers = (
{
layerId = UUID0;
paths = (
{
closed = 1;
nodes = (
"-3 -155 LINE",
"73 -113 OFFCURVE",
"142 -39 OFFCURVE",
"142 48 CURVE SMOOTH",
"142 83 OFFCURVE",
"122 100 OFFCURVE",
"87 100 CURVE SMOOTH",
"48 100 OFFCURVE",
"16 66 OFFCURVE",
"16 30 CURVE SMOOTH",
"16 5 OFFCURVE",
"35 -15 OFFCURVE",
"62 -15 CURVE",
"94 -5 LINE",
"83 -65 OFFCURVE",
"46 -105 OFFCURVE",
"-10 -140 CURVE"
);
}
);
width = 241;
},
{
layerId = "F7C9FF73-DC1F-4AC6-B1F4-3E0815F912B2";
paths = (
{
closed = 1;
nodes = (
"78 -11 LINE",
"67 -71 OFFCURVE",
"9 -115 OFFCURVE",
"-26 -136 CURVE",
"-13 -160 LINE",
"65 -111 OFFCURVE",
"138 -43 OFFCURVE",
"138 48 CURVE SMOOTH",
"138 81 OFFCURVE",
"121 108 OFFCURVE",
"84 108 CURVE SMOOTH",
"39 108 OFFCURVE",
"11 72 OFFCURVE",
"11 32 CURVE SMOOTH",
"11 4 OFFCURVE",
"29 -14 OFFCURVE",
"62 -14 CURVE"
);
}
);
width = 230;
}
);
leftKerningGroup = comma;
rightKerningGroup = comma;
unicode = 002C;
},
{
glyphname = hyphen;
lastChange = "2016-08-26 10:24:29 +0000";
layers = (
{
layerId = UUID0;
paths = (
{
closed = 1;
nodes = (
"59 230 LINE",
"314 230 LINE",
"326 300 LINE",
"71 300 LINE"
);
}
);
width = 389;
},
{
layerId = "F7C9FF73-DC1F-4AC6-B1F4-3E0815F912B2";
paths = (
{
closed = 1;
nodes = (
"48 217 LINE",
"327 217 LINE",
"344 312 LINE",
"65 312 LINE"
);
}
);
width = 397;
}
);
leftKerningGroup = hyphen;
unicode = 002D;
},
{
glyphname = period;
lastChange = "2016-08-26 10:24:29 +0000";
layers = (
{
layerId = UUID0;
paths = (
{
closed = 1;
nodes = (
"46 95 OFFCURVE",
"17 63 OFFCURVE",
"17 31 CURVE SMOOTH",
"17 4 OFFCURVE",
"35 -14 OFFCURVE",
"62 -14 CURVE SMOOTH",
"97 -14 OFFCURVE",
"127 18 OFFCURVE",
"127 50 CURVE SMOOTH",
"127 75 OFFCURVE",
"109 95 OFFCURVE",
"81 95 CURVE SMOOTH"
);
}
);
width = 225;
},
{
layerId = "F7C9FF73-DC1F-4AC6-B1F4-3E0815F912B2";
paths = (
{
closed = 1;
nodes = (
"135 90 OFFCURVE",
"119 108 OFFCURVE",
"84 108 CURVE SMOOTH",
"39 108 OFFCURVE",
"11 72 OFFCURVE",
"11 32 CURVE SMOOTH",
"11 4 OFFCURVE",
"29 -14 OFFCURVE",
"62 -14 CURVE SMOOTH",
"106 -14 OFFCURVE",
"135 22 OFFCURVE",
"135 61 CURVE SMOOTH"
);
}
);
width = 226;
}
);
leftKerningGroup = comma;
rightKerningGroup = comma;
unicode = 002E;
},
{
glyphname = slash;
lastChange = "2016-08-26 10:24:29 +0000";
layers = (
{
layerId = UUID0;
paths = (
{
closed = 1;
nodes = (
"50 0 LINE",
"487 660 LINE",
"414 660 LINE",
"-23 0 LINE"
);
}
);
width = 445;
},
{
layerId = "F7C9FF73-DC1F-4AC6-B1F4-3E0815F912B2";
paths = (
{
closed = 1;
nodes = (
"87 0 LINE",
"524 660 LINE",
"412 660 LINE",
"-25 0 LINE"
);
}
);
width = 480;
}
);
unicode = 002F;
},
{
glyphname = zero;
lastChange = "2016-08-26 10:24:29 +0000";
layers = (
{
layerId = UUID0;
paths = (
{
closed = 1;
nodes = (
"433 640 OFFCURVE",
"462 595 OFFCURVE",
"462 499 CURVE SMOOTH",
"462 308 OFFCURVE",
"392 20 OFFCURVE",
"248 20 CURVE SMOOTH",
"173 20 OFFCURVE",
"144 65 OFFCURVE",
"144 160 CURVE SMOOTH",
"144 351 OFFCURVE",
"213 640 OFFCURVE",
"357 640 CURVE SMOOTH"
);
},
{
closed = 1;
nodes = (
"124 680 OFFCURVE",
"50 381 OFFCURVE",
"50 201 CURVE SMOOTH",
"50 64 OFFCURVE",
"105 -20 OFFCURVE",
"241 -20 CURVE SMOOTH",
"481 -20 OFFCURVE",
"555 278 OFFCURVE",
"555 458 CURVE SMOOTH",
"555 595 OFFCURVE",
"501 680 OFFCURVE",
"364 680 CURVE SMOOTH"
);
}
);
width = 587;
},
{
layerId = "F7C9FF73-DC1F-4AC6-B1F4-3E0815F912B2";
paths = (
{
closed = 1;
nodes = (
"424 635 OFFCURVE",
"452 588 OFFCURVE",
"452 495 CURVE SMOOTH",
"452 316 OFFCURVE",
"376 25 OFFCURVE",
"260 25 CURVE SMOOTH",
"203 25 OFFCURVE",
"176 68 OFFCURVE",
"176 163 CURVE SMOOTH",
"176 341 OFFCURVE",
"251 635 OFFCURVE",
"367 635 CURVE SMOOTH"
);
},
{
closed = 1;
nodes = (
"126 680 OFFCURVE",
"42 401 OFFCURVE",
"42 208 CURVE SMOOTH",
"42 68 OFFCURVE",
"101 -20 OFFCURVE",
"252 -20 CURVE SMOOTH",
"500 -20 OFFCURVE",
"586 258 OFFCURVE",
"586 451 CURVE SMOOTH",
"586 591 OFFCURVE",
"527 680 OFFCURVE",
"375 680 CURVE SMOOTH"
);
}
);
width = 609;
}
);
unicode = 0030;
},
{
glyphname = one;
lastChange = "2016-08-26 10:24:29 +0000";
layers = (
{
layerId = UUID0;
paths = (
{
closed = 1;
nodes = (
"286 660 LINE",
"236 660 LINE",
"56 520 LINE",
"70 497 LINE",
"178 560 LINE",
"80 0 LINE",
"170 0 LINE"
);
}
);
width = 306;
},
{
layerId = "F7C9FF73-DC1F-4AC6-B1F4-3E0815F912B2";
paths = (
{
closed = 1;
nodes = (
"316 660 LINE",
"229 660 LINE",
"50 517 LINE",
"68 486 LINE",
"165 542 LINE",
"70 0 LINE",
"200 0 LINE"
);
}
);
width = 324;
}
);
unicode = 0031;
},
{
glyphname = two;
lastChange = "2016-08-26 10:24:29 +0000";
layers = (
{
layerId = UUID0;
paths = (
{
closed = 1;
nodes = (
"72 40 LINE",
"230 165 OFFCURVE",
"510 329 OFFCURVE",
"510 536 CURVE SMOOTH",
"510 656 OFFCURVE",
"411 680 OFFCURVE",
"339 680 CURVE SMOOTH",
"259 680 OFFCURVE",
"178 644 OFFCURVE",
"134 600 CURVE",
"105 569 OFFCURVE",
"96 521 OFFCURVE",
"87 470 CURVE",
"107 470 LINE",
"147 581 OFFCURVE",
"222 640 OFFCURVE",
"302 640 CURVE SMOOTH",
"363 640 OFFCURVE",
"410 604 OFFCURVE",
"410 528 CURVE SMOOTH",
"410 340 OFFCURVE",
"251 274 OFFCURVE",
"3 50 CURVE",
"-5 0 LINE",
"350 0 LINE SMOOTH",
"420 0 OFFCURVE",
"441 40 OFFCURVE",
"449 80 CURVE",
"460 145 LINE",
"440 145 LINE",
"428 74 OFFCURVE",
"377 40 OFFCURVE",
"297 40 CURVE SMOOTH"
);
}
);
width = 532;
},
{
layerId = "F7C9FF73-DC1F-4AC6-B1F4-3E0815F912B2";
paths = (
{
closed = 1;
nodes = (
"358 0 LINE SMOOTH",
"428 0 OFFCURVE",
"449 40 OFFCURVE",
"457 80 CURVE",
"470 155 LINE",
"440 155 LINE",
"427 84 OFFCURVE",
"375 45 OFFCURVE",
"295 45 CURVE SMOOTH",
"88 45 LINE",
"175 116 OFFCURVE",
"532 321 OFFCURVE",
"532 530 CURVE SMOOTH",
"532 656 OFFCURVE",
"415 680 OFFCURVE",
"332 680 CURVE SMOOTH",
"248 680 OFFCURVE",
"167 644 OFFCURVE",
"123 600 CURVE",
"94 569 OFFCURVE",
"83 511 OFFCURVE",
"75 460 CURVE",
"110 460 LINE",
"151 581 OFFCURVE",
"220 635 OFFCURVE",
"304 635 CURVE SMOOTH",
"351 635 OFFCURVE",
"392 603 OFFCURVE",
"392 531 CURVE SMOOTH",
"392 354 OFFCURVE",
"120 160 OFFCURVE",
"5 65 CURVE",
"-6 0 LINE"
);
}
);
width = 540;
}
);
unicode = 0032;
},
{
glyphname = three;
lastChange = "2016-08-26 10:24:29 +0000";
layers = (
{
layerId = UUID0;
paths = (
{
closed = 1;
nodes = (
"520 620 LINE",
"527 660 LINE",
"209 660 LINE SMOOTH",
"139 660 OFFCURVE",
"118 620 OFFCURVE",
"110 580 CURVE SMOOTH",
"98 515 LINE",
"118 515 LINE",
"131 586 OFFCURVE",
"182 620 OFFCURVE",
"262 620 CURVE SMOOTH",
"447 620 LINE",
"131 367 LINE",
"150 325 LINE",
"197 335 OFFCURVE",
"212 340 OFFCURVE",
"272 340 CURVE SMOOTH",
"323 340 OFFCURVE",
"378 302 OFFCURVE",
"378 222 CURVE SMOOTH",
"378 115 OFFCURVE",
"303 20 OFFCURVE",
"196 20 CURVE SMOOTH",
"120 20 OFFCURVE",
"66 49 OFFCURVE",
"26 105 CURVE",
"7 87 LINE",
"50 22 OFFCURVE",
"114 -20 OFFCURVE",
"214 -20 CURVE SMOOTH",
"363 -20 OFFCURVE",
"479 87 OFFCURVE",
"479 226 CURVE SMOOTH",
"479 355 OFFCURVE",
"353 380 OFFCURVE",
"300 380 CURVE SMOOTH",
"288 380 OFFCURVE",
"245 381 OFFCURVE",
"208 370 CURVE"
);
}
);
width = 531;
},
{
layerId = "F7C9FF73-DC1F-4AC6-B1F4-3E0815F912B2";
paths = (
{
closed = 1;
nodes = (
"447 615 LINE",
"129 359 LINE",
"146 321 LINE",
"177 330 LINE SMOOTH",
"196 335 OFFCURVE",
"223 340 OFFCURVE",
"254 340 CURVE SMOOTH",
"314 340 OFFCURVE",
"359 305 OFFCURVE",
"359 228 CURVE SMOOTH",
"359 124 OFFCURVE",
"294 25 OFFCURVE",
"188 25 CURVE SMOOTH",
"131 25 OFFCURVE",
"71 54 OFFCURVE",
"26 117 CURVE",
"-7 88 LINE",
"39 23 OFFCURVE",
"95 -20 OFFCURVE",
"224 -20 CURVE SMOOTH",
"365 -20 OFFCURVE",
"499 81 OFFCURVE",
"499 224 CURVE SMOOTH",
"499 342 OFFCURVE",
"392 385 OFFCURVE",
"310 385 CURVE SMOOTH",
"286 385 OFFCURVE",
"247 382 OFFCURVE",
"246 381 CURVE SMOOTH",
"536 615 LINE",
"544 660 LINE",
"206 660 LINE SMOOTH",
"136 660 OFFCURVE",
"115 620 OFFCURVE",
"107 580 CURVE",
"94 505 LINE",
"124 505 LINE",
"136 576 OFFCURVE",
"188 615 OFFCURVE",
"268 615 CURVE SMOOTH"
);
}
);
width = 543;
}
);
unicode = 0033;
},
{
glyphname = four;
lastChange = "2016-08-26 10:24:29 +0000";
layers = (
{
layerId = UUID0;
paths = (
{
closed = 1;
nodes = (
"497 660 LINE",
"417 660 LINE",
"8 210 LINE",
"0 170 LINE",
"320 170 LINE",
"291 0 LINE",
"381 0 LINE",
"410 170 LINE",
"500 170 LINE",
"508 210 LINE",
"418 210 LINE"
);
},
{
closed = 1;
nodes = (
"68 210 LINE",
"390 564 LINE",
"328 210 LINE"
);
}
);
width = 549;
},
{
layerId = "F7C9FF73-DC1F-4AC6-B1F4-3E0815F912B2";
paths = (
{
closed = 1;
nodes = (
"441 170 LINE",
"531 170 LINE",
"539 215 LINE",
"449 215 LINE",
"528 660 LINE",
"424 660 LINE",
"-1 210 LINE",
"-9 170 LINE",
"311 170 LINE",
"282 0 LINE",
"412 0 LINE"
);
},
{
closed = 1;
nodes = (
"68 215 LINE",
"377 543 LINE",
"319 215 LINE"
);
}
);
width = 574;
}
);
unicode = 0034;
},
{
glyphname = five;
lastChange = "2016-08-26 10:24:29 +0000";
layers = (
{
layerId = UUID0;
paths = (
{
closed = 1;
nodes = (
"247 380 OFFCURVE",
"221 378 OFFCURVE",
"202 377 CURVE SMOOTH",
"169 375 LINE",
"221 620 LINE",
"514 620 LINE",
"521 660 LINE",
"146 660 LINE",
"85 370 LINE",
"118 330 LINE",
"158 335 LINE SMOOTH",
"182 338 OFFCURVE",
"213 340 OFFCURVE",
"244 340 CURVE SMOOTH",
"331 340 OFFCURVE",
"381 304 OFFCURVE",
"381 225 CURVE SMOOTH",
"381 115 OFFCURVE",
"313 20 OFFCURVE",
"198 20 CURVE SMOOTH",
"125 20 OFFCURVE",
"72 46 OFFCURVE",
"31 102 CURVE",
"9 85 LINE",
"53 20 OFFCURVE",
"106 -20 OFFCURVE",
"206 -20 CURVE SMOOTH",
"353 -20 OFFCURVE",
"481 78 OFFCURVE",
"481 226 CURVE SMOOTH",
"481 351 OFFCURVE",
"363 380 OFFCURVE",
"272 380 CURVE SMOOTH"
);
}
);
width = 533;
},
{
layerId = "F7C9FF73-DC1F-4AC6-B1F4-3E0815F912B2";
paths = (
{
closed = 1;
nodes = (
"263 390 OFFCURVE",
"244 388 OFFCURVE",
"225 387 CURVE SMOOTH",
"194 385 LINE",
"244 616 LINE",
"517 616 LINE",
"525 660 LINE",
"136 660 LINE",
"72 360 LINE",
"105 321 LINE",
"120 325 OFFCURVE",
"134 329 OFFCURVE",
"149 332 CURVE",
"174 339 OFFCURVE",
"206 344 OFFCURVE",
"234 344 CURVE SMOOTH",
"321 344 OFFCURVE",
"369 306 OFFCURVE",
"369 229 CURVE SMOOTH",
"369 127 OFFCURVE",
"306 25 OFFCURVE",
"198 25 CURVE SMOOTH",
"141 25 OFFCURVE",
"78 51 OFFCURVE",
"38 114 CURVE",
"4 88 LINE",
"47 21 OFFCURVE",
"105 -20 OFFCURVE",
"213 -20 CURVE SMOOTH",
"372 -20 OFFCURVE",
"509 64 OFFCURVE",
"509 228 CURVE SMOOTH",
"509 355 OFFCURVE",
"378 390 OFFCURVE",
"282 390 CURVE SMOOTH"
);
}
);
width = 549;
}
);
unicode = 0035;
},
{
glyphname = six;
lastChange = "2016-08-26 10:24:29 +0000";
layers = (
{
layerId = UUID0;
paths = (
{
closed = 1;
nodes = (
"200 371 OFFCURVE",
"237 390 OFFCURVE",
"288 390 CURVE SMOOTH",
"364 390 OFFCURVE",
"397 346 OFFCURVE",
"397 269 CURVE SMOOTH",
"397 177 OFFCURVE",
"345 20 OFFCURVE",
"238 20 CURVE SMOOTH",
"179 20 OFFCURVE",
"143 67 OFFCURVE",
"143 183 CURVE SMOOTH",
"143 226 OFFCURVE",
"148 277 OFFCURVE",
"159 340 CURVE"
);
},
{
closed = 1;
nodes = (
"49 52 OFFCURVE",
"106 -20 OFFCURVE",
"231 -20 CURVE SMOOTH",
"396 -20 OFFCURVE",
"491 129 OFFCURVE",
"491 270 CURVE SMOOTH",
"491 367 OFFCURVE",
"441 430 OFFCURVE",
"325 430 CURVE SMOOTH",
"254 430 OFFCURVE",
"207 410 OFFCURVE",
"167 385 CURVE",
"194 540 OFFCURVE",
"268 640 OFFCURVE",
"387 640 CURVE SMOOTH",
"438 640 OFFCURVE",
"485 635 OFFCURVE",
"516 630 CURVE",
"524 650 LINE",
"487 665 OFFCURVE",
"439 680 OFFCURVE",
"374 680 CURVE SMOOTH",
"124 680 OFFCURVE",
"49 384 OFFCURVE",
"49 193 CURVE SMOOTH"
);
}
);
width = 538;
},
{
layerId = "F7C9FF73-DC1F-4AC6-B1F4-3E0815F912B2";
paths = (
{
closed = 1;
nodes = (
"42 57 OFFCURVE",
"109 -20 OFFCURVE",
"242 -20 CURVE SMOOTH",
"414 -20 OFFCURVE",
"524 122 OFFCURVE",
"524 274 CURVE SMOOTH",
"524 373 OFFCURVE",
"475 433 OFFCURVE",
"347 433 CURVE SMOOTH",
"304 433 OFFCURVE",
"267 421 OFFCURVE",
"240 409 CURVE SMOOTH",
"224 402 OFFCURVE",
"210 394 OFFCURVE",
"198 385 CURVE",
"229 556 OFFCURVE",
"307 635 OFFCURVE",
"407 635 CURVE SMOOTH",
"435 635 OFFCURVE",
"467 630 OFFCURVE",
"494 626 CURVE SMOOTH",
"538 618 LINE",
"549 646 LINE",
"536 652 OFFCURVE",
"522 658 OFFCURVE",
"506 663 CURVE SMOOTH",
"479 671 OFFCURVE",
"440 680 OFFCURVE",
"395 680 CURVE SMOOTH",
"132 680 OFFCURVE",
"42 420 OFFCURVE",
"42 208 CURVE SMOOTH"
);
},
{
closed = 1;
nodes = (
"365 388 OFFCURVE",
"390 351 OFFCURVE",
"390 283 CURVE SMOOTH",
"390 201 OFFCURVE",
"352 25 OFFCURVE",
"250 25 CURVE SMOOTH",
"201 25 OFFCURVE",
"173 68 OFFCURVE",
"173 169 CURVE SMOOTH",
"173 213 OFFCURVE",
"178 269 OFFCURVE",
"190 337 CURVE SMOOTH",
"190 340 OFFCURVE",
"249 388 OFFCURVE",
"309 388 CURVE SMOOTH"
);
}
);
width = 561;
}
);
unicode = 0036;
},
{
glyphname = seven;
lastChange = "2016-08-26 10:24:29 +0000";
layers = (
{
layerId = UUID0;
paths = (
{
closed = 1;
nodes = (
"521 620 LINE",
"528 660 LINE",
"178 660 LINE SMOOTH",
"108 660 OFFCURVE",
"87 620 OFFCURVE",
"79 580 CURVE SMOOTH",
"67 515 LINE",
"87 515 LINE",
"100 586 OFFCURVE",
"151 620 OFFCURVE",
"231 620 CURVE SMOOTH",
"431 620 LINE",
"72 0 LINE",
"162 0 LINE"
);
}
);
width = 477;
},
{
layerId = "F7C9FF73-DC1F-4AC6-B1F4-3E0815F912B2";
paths = (
{
closed = 1;
nodes = (
"526 615 LINE",
"534 660 LINE",
"173 660 LINE SMOOTH",
"103 660 OFFCURVE",
"82 620 OFFCURVE",
"74 580 CURVE",
"61 505 LINE",
"91 505 LINE",
"103 576 OFFCURVE",
"155 615 OFFCURVE",
"235 615 CURVE SMOOTH",
"405 615 LINE",
"47 0 LINE",
"168 0 LINE"
);
}
);
width = 476;
}
);
unicode = 0037;
},
{
glyphname = eight;
lastChange = "2016-08-26 10:24:29 +0000";
layers = (
{
layerId = UUID0;
paths = (
{
closed = 1;
nodes = (
"528 647 OFFCURVE",
"448 680 OFFCURVE",
"348 680 CURVE SMOOTH",
"220 680 OFFCURVE",
"111 613 OFFCURVE",
"111 482 CURVE SMOOTH",
"111 412 OFFCURVE",
"162 370 OFFCURVE",
"218 335 CURVE",
"110 287 OFFCURVE",
"22 224 OFFCURVE",
"22 118 CURVE SMOOTH",
"22 21 OFFCURVE",
"113 -20 OFFCURVE",
"225 -20 CURVE SMOOTH",
"360 -20 OFFCURVE",
"490 53 OFFCURVE",
"490 192 CURVE SMOOTH",
"490 274 OFFCURVE",
"429 315 OFFCURVE",
"371 355 CURVE",
"459 398 OFFCURVE",
"528 463 OFFCURVE",
"528 554 CURVE SMOOTH"
);
},
{
closed = 1;
nodes = (
"170 20 OFFCURVE",
"117 52 OFFCURVE",
"117 121 CURVE SMOOTH",
"117 214 OFFCURVE",
"182 281 OFFCURVE",
"259 315 CURVE",
"329 275 OFFCURVE",
"390 235 OFFCURVE",
"390 164 CURVE SMOOTH",
"390 76 OFFCURVE",
"311 20 OFFCURVE",
"232 20 CURVE SMOOTH"
);
},
{
closed = 1;
nodes = (
"385 640 OFFCURVE",
"433 620 OFFCURVE",
"433 552 CURVE SMOOTH",
"433 475 OFFCURVE",
"390 419 OFFCURVE",
"331 380 CURVE",
"268 412 OFFCURVE",
"211 457 OFFCURVE",
"211 514 CURVE SMOOTH",
"211 590 OFFCURVE",
"274 640 OFFCURVE",
"341 640 CURVE SMOOTH"
);
}
);
width = 556;
},
{
layerId = "F7C9FF73-DC1F-4AC6-B1F4-3E0815F912B2";
paths = (
{
closed = 1;
nodes = (
"560 647 OFFCURVE",
"472 680 OFFCURVE",
"360 680 CURVE SMOOTH",
"228 680 OFFCURVE",
"103 620 OFFCURVE",
"103 481 CURVE SMOOTH",
"103 413 OFFCURVE",
"154 372 OFFCURVE",
"217 335 CURVE",
"119 295 OFFCURVE",
"14 234 OFFCURVE",
"14 122 CURVE SMOOTH",
"14 22 OFFCURVE",
"113 -20 OFFCURVE",
"237 -20 CURVE SMOOTH",
"377 -20 OFFCURVE",
"522 43 OFFCURVE",
"522 193 CURVE SMOOTH",
"522 273 OFFCURVE",
"461 318 OFFCURVE",
"394 358 CURVE",
"482 395 OFFCURVE",
"560 453 OFFCURVE",
"560 550 CURVE SMOOTH"
);
},
{
closed = 1;
nodes = (
"186 25 OFFCURVE",
"149 54 OFFCURVE",
"149 118 CURVE SMOOTH",
"149 205 OFFCURVE",
"193 274 OFFCURVE",
"265 311 CURVE",
"329 274 OFFCURVE",
"383 234 OFFCURVE",
"383 166 CURVE SMOOTH",
"383 86 OFFCURVE",
"321 25 OFFCURVE",
"245 25 CURVE SMOOTH"
);
},
{
closed = 1;
nodes = (
"384 635 OFFCURVE",
"425 616 OFFCURVE",
"425 552 CURVE SMOOTH",
"425 485 OFFCURVE",
"398 420 OFFCURVE",
"346 384 CURVE",
"290 415 OFFCURVE",
"242 455 OFFCURVE",
"242 510 CURVE SMOOTH",
"242 571 OFFCURVE",
"289 635 OFFCURVE",
"352 635 CURVE SMOOTH"
);
}
);
width = 580;
}
);
unicode = 0038;
},
{
glyphname = nine;
lastChange = "2016-08-26 10:24:29 +0000";
layers = (
{
layerId = UUID0;
paths = (
{
closed = 1;
nodes = (
"358 289 OFFCURVE",
"320 270 OFFCURVE",
"269 270 CURVE SMOOTH",
"193 270 OFFCURVE",
"160 314 OFFCURVE",
"160 390 CURVE SMOOTH",
"160 482 OFFCURVE",
"212 640 OFFCURVE",
"319 640 CURVE SMOOTH",
"378 640 OFFCURVE",
"414 593 OFFCURVE",
"414 477 CURVE SMOOTH",
"414 434 OFFCURVE",
"409 383 OFFCURVE",
"398 320 CURVE"
);
},
{
closed = 1;
nodes = (
"508 608 OFFCURVE",
"451 680 OFFCURVE",
"326 680 CURVE SMOOTH",
"161 680 OFFCURVE",
"66 531 OFFCURVE",
"66 390 CURVE SMOOTH",
"66 291 OFFCURVE",
"116 230 OFFCURVE",
"232 230 CURVE SMOOTH",
"303 230 OFFCURVE",
"351 250 OFFCURVE",
"390 275 CURVE",
"363 120 OFFCURVE",
"289 20 OFFCURVE",
"170 20 CURVE SMOOTH",
"119 20 OFFCURVE",
"71 25 OFFCURVE",
"42 30 CURVE",
"33 10 LINE",
"72 -5 OFFCURVE",
"118 -20 OFFCURVE",
"183 -20 CURVE SMOOTH",
"432 -20 OFFCURVE",
"508 273 OFFCURVE",
"508 465 CURVE SMOOTH"
);
}
);
width = 539;
},
{
layerId = "F7C9FF73-DC1F-4AC6-B1F4-3E0815F912B2";
paths = (
{
closed = 1;
nodes = (
"537 604 OFFCURVE",
"470 680 OFFCURVE",
"336 680 CURVE SMOOTH",
"163 680 OFFCURVE",
"55 538 OFFCURVE",
"55 386 CURVE SMOOTH",
"55 287 OFFCURVE",
"104 227 OFFCURVE",
"232 227 CURVE SMOOTH",
"275 227 OFFCURVE",
"311 239 OFFCURVE",
"338 251 CURVE SMOOTH",
"353 258 OFFCURVE",
"367 266 OFFCURVE",
"380 275 CURVE",
"349 104 OFFCURVE",
"271 25 OFFCURVE",
"171 25 CURVE SMOOTH",
"142 25 OFFCURVE",
"111 29 OFFCURVE",
"84 33 CURVE",
"40 42 LINE",
"29 14 LINE",
"42 7 OFFCURVE",
"56 2 OFFCURVE",
"72 -3 CURVE SMOOTH",
"99 -12 OFFCURVE",
"136 -20 OFFCURVE",
"183 -20 CURVE SMOOTH",
"445 -20 OFFCURVE",
"537 240 OFFCURVE",
"537 451 CURVE SMOOTH"
);
},
{
closed = 1;
nodes = (
"213 272 OFFCURVE",
"189 307 OFFCURVE",
"189 375 CURVE SMOOTH",
"189 458 OFFCURVE",
"224 635 OFFCURVE",
"328 635 CURVE SMOOTH",
"377 635 OFFCURVE",
"406 592 OFFCURVE",
"406 491 CURVE SMOOTH",
"406 447 OFFCURVE",
"400 391 OFFCURVE",
"388 323 CURVE SMOOTH",
"388 320 OFFCURVE",
"329 272 OFFCURVE",
"269 272 CURVE SMOOTH"
);
}
);
width = 561;
}
);
unicode = 0039;
},
{
glyphname = colon;
lastChange = "2016-08-26 10:24:29 +0000";
layers = (
{
layerId = UUID0;
paths = (
{
closed = 1;
nodes = (
"120 461 OFFCURVE",
"89 429 OFFCURVE",
"89 398 CURVE SMOOTH",
"89 371 OFFCURVE",
"108 353 OFFCURVE",
"135 353 CURVE SMOOTH",
"171 353 OFFCURVE",
"199 384 OFFCURVE",
"199 417 CURVE SMOOTH",
"199 442 OFFCURVE",
"182 461 OFFCURVE",
"154 461 CURVE SMOOTH"
);
},
{
closed = 1;
nodes = (
"53 95 OFFCURVE",
"24 63 OFFCURVE",
"24 31 CURVE SMOOTH",
"24 4 OFFCURVE",
"42 -14 OFFCURVE",
"69 -14 CURVE SMOOTH",
"104 -14 OFFCURVE",
"135 18 OFFCURVE",
"135 50 CURVE SMOOTH",
"135 75 OFFCURVE",
"116 95 OFFCURVE",
"88 95 CURVE SMOOTH"
);
}
);
width = 243;
},
{
layerId = "F7C9FF73-DC1F-4AC6-B1F4-3E0815F912B2";
paths = (
{
closed = 1;
nodes = (
"141 90 OFFCURVE",
"125 108 OFFCURVE",
"90 108 CURVE SMOOTH",
"45 108 OFFCURVE",
"17 72 OFFCURVE",
"17 32 CURVE SMOOTH",
"17 4 OFFCURVE",
"35 -14 OFFCURVE",
"68 -14 CURVE SMOOTH",
"112 -14 OFFCURVE",
"141 22 OFFCURVE",
"141 61 CURVE SMOOTH"
);
},
{
closed = 1;
nodes = (
"203 443 OFFCURVE",
"187 461 OFFCURVE",
"152 461 CURVE SMOOTH",
"108 461 OFFCURVE",
"79 425 OFFCURVE",
"79 386 CURVE SMOOTH",
"79 357 OFFCURVE",
"95 339 OFFCURVE",
"130 339 CURVE SMOOTH",
"174 339 OFFCURVE",
"203 375 OFFCURVE",
"203 414 CURVE SMOOTH"
);
}
);
width = 239;
}
);
unicode = 003A;
},
{
glyphname = semicolon;
lastChange = "2016-08-26 10:24:29 +0000";
layers = (
{
layerId = UUID0;
paths = (
{
closed = 1;
nodes = (
"128 461 OFFCURVE",
"99 430 OFFCURVE",
"99 397 CURVE SMOOTH",
"99 372 OFFCURVE",
"118 354 OFFCURVE",
"145 354 CURVE SMOOTH",
"178 354 OFFCURVE",
"210 385 OFFCURVE",
"210 416 CURVE SMOOTH",
"210 441 OFFCURVE",
"191 461 OFFCURVE",
"164 461 CURVE SMOOTH"
);
},
{
closed = 1;
nodes = (
"5 -154 LINE",
"80 -106 OFFCURVE",
"148 -45 OFFCURVE",
"148 43 CURVE SMOOTH",
"148 79 OFFCURVE",
"129 100 OFFCURVE",
"100 100 CURVE SMOOTH",
"59 100 OFFCURVE",
"24 67 OFFCURVE",
"24 28 CURVE SMOOTH",
"24 4 OFFCURVE",
"38 -15 OFFCURVE",
"65 -15 CURVE SMOOTH",
"85 -15 OFFCURVE",
"96 -5 OFFCURVE",
"103 0 CURVE",
"91 -65 OFFCURVE",
"56 -100 OFFCURVE",
"-3 -140 CURVE"
);
}
);
width = 259;
},
{
layerId = "F7C9FF73-DC1F-4AC6-B1F4-3E0815F912B2";
paths = (
{
closed = 1;
nodes = (
"208 443 OFFCURVE",
"192 461 OFFCURVE",
"157 461 CURVE SMOOTH",
"113 461 OFFCURVE",
"84 425 OFFCURVE",
"84 386 CURVE SMOOTH",
"84 357 OFFCURVE",
"100 339 OFFCURVE",
"135 339 CURVE SMOOTH",
"179 339 OFFCURVE",
"208 375 OFFCURVE",
"208 414 CURVE SMOOTH"
);
},
{
closed = 1;
nodes = (
"89 -11 LINE",
"78 -71 OFFCURVE",
"20 -115 OFFCURVE",
"-15 -136 CURVE",
"-2 -160 LINE",
"76 -111 OFFCURVE",
"149 -43 OFFCURVE",
"149 48 CURVE SMOOTH",
"149 81 OFFCURVE",
"132 108 OFFCURVE",
"95 108 CURVE SMOOTH",
"50 108 OFFCURVE",
"22 72 OFFCURVE",
"22 32 CURVE SMOOTH",
"22 4 OFFCURVE",
"40 -14 OFFCURVE",
"73 -14 CURVE"
);
}
);
width = 251;
}
);
unicode = 003B;
},
{
glyphname = less;
lastChange = "2016-08-26 10:24:29 +0000";
layers = (
{
layerId = UUID0;
paths = (
{
closed = 1;
nodes = (
"592 515 LINE",
"603 575 LINE",
"43 350 LINE",
"38 320 LINE",
"518 95 LINE",
"529 155 LINE",
"144 335 LINE"
);
}
);
width = 620;
},
{
layerId = "F7C9FF73-DC1F-4AC6-B1F4-3E0815F912B2";
paths = (
{
closed = 1;
nodes = (
"33 300 LINE",
"514 74 LINE",
"530 165 LINE",
"168 335 LINE",
"590 505 LINE",
"606 596 LINE",
"46 370 LINE"
);
}
);
width = 611;
}
);
unicode = 003C;
},
{
glyphname = equal;
lastChange = "2016-08-26 10:24:29 +0000";
layers = (
{
layerId = UUID0;
paths = (
{
closed = 1;
nodes = (
"87 390 LINE",
"612 390 LINE",
"623 450 LINE",
"98 450 LINE"
);
},
{
closed = 1;
nodes = (
"56 210 LINE",
"581 210 LINE",
"591 270 LINE",
"66 270 LINE"
);
}
);
width = 662;
},
{
layerId = "F7C9FF73-DC1F-4AC6-B1F4-3E0815F912B2";
paths = (
{
closed = 1;
nodes = (
"78 385 LINE",
"627 385 LINE",
"640 455 LINE",
"91 455 LINE"
);
},
{
closed = 1;
nodes = (
"47 205 LINE",
"596 205 LINE",
"608 275 LINE",
"59 275 LINE"
);
}
);
width = 670;
}
);
unicode = 003D;
},
{
glyphname = greater;
lastChange = "2016-08-26 10:24:29 +0000";
layers = (
{
layerId = UUID0;
paths = (
{
closed = 1;
nodes = (
"497 335 LINE",
"48 155 LINE",
"37 95 LINE",
"597 320 LINE",
"602 350 LINE",
"122 575 LINE",
"111 515 LINE"
);
}
);
width = 620;
},
{
layerId = "F7C9FF73-DC1F-4AC6-B1F4-3E0815F912B2";
paths = (
{
closed = 1;
nodes = (
"597 370 LINE",
"117 596 LINE",
"101 505 LINE",
"463 335 LINE",
"41 165 LINE",
"25 74 LINE",
"584 300 LINE"
);
}
);
width = 610;
}
);
unicode = 003E;
},
{
glyphname = question;
lastChange = "2016-08-26 10:24:29 +0000";
layers = (
{
layerId = UUID0;
paths = (
{
closed = 1;
nodes = (
"159 96 OFFCURVE",
"131 63 OFFCURVE",
"131 31 CURVE SMOOTH",
"131 6 OFFCURVE",
"148 -13 OFFCURVE",
"176 -13 CURVE SMOOTH",
"211 -13 OFFCURVE",
"242 18 OFFCURVE",
"242 50 CURVE SMOOTH",
"242 77 OFFCURVE",
"223 96 OFFCURVE",
"195 96 CURVE SMOOTH"
);
},
{
closed = 1;
nodes = (
"226 156 LINE",
"278 317 OFFCURVE",
"489 331 OFFCURVE",
"489 536 CURVE SMOOTH",
"489 656 OFFCURVE",
"390 680 OFFCURVE",
"318 680 CURVE SMOOTH",
"238 680 OFFCURVE",
"157 644 OFFCURVE",
"113 600 CURVE SMOOTH",
"82 569 OFFCURVE",
"74 521 OFFCURVE",
"65 470 CURVE",
"85 470 LINE",
"125 581 OFFCURVE",
"201 640 OFFCURVE",
"281 640 CURVE SMOOTH",
"342 640 OFFCURVE",
"389 604 OFFCURVE",
"389 528 CURVE SMOOTH",
"389 368 OFFCURVE",
"222 316 OFFCURVE",
"186 156 CURVE"
);
}
);
width = 481;
},
{
layerId = "F7C9FF73-DC1F-4AC6-B1F4-3E0815F912B2";
paths = (
{
closed = 1;
nodes = (
"337 635 OFFCURVE",
"371 612 OFFCURVE",
"371 541 CURVE SMOOTH",
"371 369 OFFCURVE",
"217 304 OFFCURVE",
"181 156 CURVE",
"249 156 LINE",
"305 315 OFFCURVE",
"510 338 OFFCURVE",
"510 526 CURVE SMOOTH",
"510 626 OFFCURVE",
"434 680 OFFCURVE",
"326 680 CURVE SMOOTH",
"243 680 OFFCURVE",
"157 642 OFFCURVE",
"112 599 CURVE",
"81 567 OFFCURVE",
"72 511 OFFCURVE",
"61 455 CURVE SMOOTH",
"59 447 LINE",
"89 447 LINE",
"138 582 OFFCURVE",
"209 635 OFFCURVE",
"288 635 CURVE SMOOTH"
);
},
{
closed = 1;
nodes = (
"258 90 OFFCURVE",
"242 108 OFFCURVE",
"207 108 CURVE SMOOTH",
"162 108 OFFCURVE",
"134 72 OFFCURVE",
"134 32 CURVE SMOOTH",
"134 4 OFFCURVE",
"152 -14 OFFCURVE",
"185 -14 CURVE SMOOTH",
"229 -14 OFFCURVE",
"258 22 OFFCURVE",
"258 61 CURVE SMOOTH"
);
}
);
width = 500;
}
);
unicode = 003F;
},
{
glyphname = at;
lastChange = "2016-08-26 10:24:29 +0000";
layers = (
{
layerId = UUID0;
paths = (
{
closed = 1;
nodes = (
"268 490 OFFCURVE",
"186 301 OFFCURVE",
"186 173 CURVE SMOOTH",
"186 76 OFFCURVE",
"232 0 OFFCURVE",
"336 0 CURVE SMOOTH",
"411 0 OFFCURVE",
"451 30 OFFCURVE",
"475 55 CURVE",
"480 55 LINE",
"495 24 OFFCURVE",
"520 5 OFFCURVE",
"576 5 CURVE SMOOTH",
"765 5 OFFCURVE",
"827 222 OFFCURVE",
"827 367 CURVE SMOOTH",
"827 567 OFFCURVE",
"700 680 OFFCURVE",
"500 680 CURVE SMOOTH",
"193 680 OFFCURVE",
"25 404 OFFCURVE",
"25 140 CURVE SMOOTH",
"25 -69 OFFCURVE",
"152 -180 OFFCURVE",
"349 -180 CURVE SMOOTH",
"494 -180 OFFCURVE",
"605 -141 OFFCURVE",
"696 -85 CURVE",
"681 -55 LINE",
"590 -111 OFFCURVE",
"487 -140 OFFCURVE",
"356 -140 CURVE SMOOTH",
"177 -140 OFFCURVE",
"65 -44 OFFCURVE",
"65 145 CURVE SMOOTH",
"65 396 OFFCURVE",
"219 640 OFFCURVE",
"493 640 CURVE SMOOTH",
"673 640 OFFCURVE",
"786 543 OFFCURVE",
"786 362 CURVE SMOOTH",
"786 261 OFFCURVE",
"735 45 OFFCURVE",
"613 45 CURVE SMOOTH",
"584 45 OFFCURVE",
"573 66 OFFCURVE",
"573 90 CURVE SMOOTH",
"573 97 OFFCURVE",
"573 102 OFFCURVE",
"574 105 CURVE SMOOTH",
"640 480 LINE",
"590 480 LINE",
"547 435 LINE",
"542 435 LINE",
"527 460 OFFCURVE",
"496 490 OFFCURVE",
"427 490 CURVE SMOOTH"
);
},
{
closed = 1;
nodes = (
"500 450 OFFCURVE",
"520 420 OFFCURVE",
"534 390 CURVE",
"484 105 LINE",
"460 76 OFFCURVE",
"427 40 OFFCURVE",
"368 40 CURVE SMOOTH",
"305 40 OFFCURVE",
"280 93 OFFCURVE",
"280 166 CURVE SMOOTH",
"280 268 OFFCURVE",
"329 450 OFFCURVE",
"450 450 CURVE SMOOTH"
);
}
);
width = 855;
},
{
layerId = "F7C9FF73-DC1F-4AC6-B1F4-3E0815F912B2";
paths = (
{
closed = 1;
nodes = (
"266 495 OFFCURVE",
"174 323 OFFCURVE",
"174 183 CURVE SMOOTH",
"174 82 OFFCURVE",
"228 5 OFFCURVE",
"347 5 CURVE SMOOTH",
"387 5 OFFCURVE",
"418 17 OFFCURVE",
"439 32 CURVE SMOOTH",
"451 40 OFFCURVE",
"462 49 OFFCURVE",
"472 60 CURVE",
"491 7 OFFCURVE",
"552 5 OFFCURVE",
"587 5 CURVE SMOOTH",
"782 5 OFFCURVE",
"854 209 OFFCURVE",
"854 364 CURVE SMOOTH",
"854 567 OFFCURVE",
"720 680 OFFCURVE",
"511 680 CURVE SMOOTH",
"199 680 OFFCURVE",
"20 416 OFFCURVE",
"20 143 CURVE SMOOTH",
"20 -69 OFFCURVE",
"153 -180 OFFCURVE",
"360 -180 CURVE SMOOTH",
"511 -180 OFFCURVE",
"625 -139 OFFCURVE",
"720 -80 CURVE",
"701 -40 LINE",
"602 -101 OFFCURVE",
"495 -135 OFFCURVE",
"368 -135 CURVE SMOOTH",
"197 -135 OFFCURVE",
"90 -43 OFFCURVE",
"90 143 CURVE SMOOTH",
"90 395 OFFCURVE",
"234 635 OFFCURVE",
"503 635 CURVE SMOOTH",
"676 635 OFFCURVE",
"784 541 OFFCURVE",
"784 363 CURVE SMOOTH",
"784 269 OFFCURVE",
"754 51 OFFCURVE",
"635 51 CURVE SMOOTH",
"612 51 OFFCURVE",
"603 66 OFFCURVE",
"603 87 CURVE SMOOTH",
"603 94 OFFCURVE",
"603 99 OFFCURVE",
"604 102 CURVE SMOOTH",
"672 485 LINE",
"587 485 LINE",
"544 440 LINE",
"539 440 LINE",
"533 450 OFFCURVE",
"525 459 OFFCURVE",
"516 467 CURVE SMOOTH",
"500 482 OFFCURVE",
"474 495 OFFCURVE",
"434 495 CURVE SMOOTH"
);
},
{
closed = 1;
nodes = (
"477 450 OFFCURVE",
"495 433 OFFCURVE",
"507 417 CURVE SMOOTH",
"514 408 OFFCURVE",
"520 397 OFFCURVE",
"524 385 CURVE",
"477 115 LINE",
"468 102 OFFCURVE",
"459 91 OFFCURVE",
"448 82 CURVE SMOOTH",
"429 66 OFFCURVE",
"406 50 OFFCURVE",
"375 50 CURVE SMOOTH",
"324 50 OFFCURVE",
"306 93 OFFCURVE",
"306 157 CURVE SMOOTH",
"306 241 OFFCURVE",
"341 450 OFFCURVE",
"446 450 CURVE SMOOTH"
);
}
);
width = 877;
}
);
unicode = 0040;
},
{
glyphname = A;
lastChange = "2016-08-26 10:24:29 +0000";
layers = (
{
layerId = UUID0;
paths = (
{
closed = 1;
nodes = (
"620 20 LINE",
"566 25 OFFCURVE",
"545 49 OFFCURVE",
"529 125 CURVE",
"403 660 LINE",
"373 660 LINE",
"-23 0 LINE",
"22 0 LINE",
"135 190 LINE",
"415 190 LINE",
"429 125 LINE SMOOTH",
"453 9 OFFCURVE",
"531 -5 OFFCURVE",
"576 -5 CURVE SMOOTH",
"591 -5 OFFCURVE",
"605 -3 OFFCURVE",
"617 0 CURVE"
);
},
{
closed = 1;
nodes = (
"333 520 LINE",
"402 230 LINE",
"157 230 LINE"
);
}
);
width = 634;
},
{
layerId = "F7C9FF73-DC1F-4AC6-B1F4-3E0815F912B2";
paths = (
{
closed = 1;
nodes = (
"419 660 LINE",
"374 660 LINE",
"-37 0 LINE",
"15 0 LINE",
"129 182 LINE",
"395 182 LINE",
"408 126 LINE SMOOTH",
"434 12 OFFCURVE",
"518 -4 OFFCURVE",
"582 -4 CURVE SMOOTH",
"597 -4 OFFCURVE",
"620 -2 OFFCURVE",
"631 1 CURVE",
"635 26 LINE",
"591 31 OFFCURVE",
"564 67 OFFCURVE",
"549 126 CURVE SMOOTH"
);
},
{
closed = 1;
nodes = (
"320 488 LINE",
"384 227 LINE",
"158 227 LINE"
);
}
);
width = 647;
}
);
leftKerningGroup = A;
rightKerningGroup = A;
unicode = 0041;
},
{
glyphname = B;
lastChange = "2016-08-26 10:24:29 +0000";
layers = (
{
layerId = UUID0;
paths = (
{
closed = 1;
nodes = (
"299 315 LINE",
"411 315 OFFCURVE",
"467 276 OFFCURVE",
"467 204 CURVE SMOOTH",
"467 84 OFFCURVE",
"351 35 OFFCURVE",
"250 35 CURVE SMOOTH",
"219 35 OFFCURVE",
"186 40 OFFCURVE",
"157 49 CURVE",
"204 315 LINE"
);
},
{
closed = 1;
nodes = (
"211 355 LINE",
"257 615 LINE",
"278 620 OFFCURVE",
"309 625 OFFCURVE",
"334 625 CURVE SMOOTH",
"408 625 OFFCURVE",
"492 591 OFFCURVE",
"492 512 CURVE SMOOTH",
"492 413 OFFCURVE",
"391 355 OFFCURVE",
"306 355 CURVE SMOOTH"
);
},
{
closed = 1;
nodes = (
"85 660 LINE",
"81 640 LINE",
"101 640 LINE SMOOTH",
"145 640 OFFCURVE",
"158 618 OFFCURVE",
"158 583 CURVE SMOOTH",
"158 570 OFFCURVE",
"157 556 OFFCURVE",
"154 540 CURVE SMOOTH",
"59 0 LINE",
"148 0 LINE",
"259 0 LINE SMOOTH",
"415 0 OFFCURVE",
"569 57 OFFCURVE",
"569 217 CURVE SMOOTH",
"569 278 OFFCURVE",
"533 323 OFFCURVE",
"428 340 CURVE",
"515 369 OFFCURVE",
"587 428 OFFCURVE",
"587 518 CURVE SMOOTH",
"587 643 OFFCURVE",
"442 660 OFFCURVE",
"345 660 CURVE SMOOTH"
);
}
);
width = 624;
},
{
layerId = "F7C9FF73-DC1F-4AC6-B1F4-3E0815F912B2";
paths = (
{
closed = 1;
nodes = (
"416 620 OFFCURVE",
"482 595 OFFCURVE",
"482 518 CURVE SMOOTH",
"482 419 OFFCURVE",
"406 361 OFFCURVE",
"316 361 CURVE SMOOTH",
"241 361 LINE",
"286 613 LINE",
"304 616 LINE",
"315 619 OFFCURVE",
"331 620 OFFCURVE",
"347 620 CURVE SMOOTH"
);
},
{
closed = 1;
nodes = (
"177 0 LINE",
"268 0 LINE SMOOTH",
"428 0 OFFCURVE",
"598 50 OFFCURVE",
"598 217 CURVE SMOOTH",
"598 280 OFFCURVE",
"562 330 OFFCURVE",
"454 341 CURVE",
"544 365 OFFCURVE",
"621 427 OFFCURVE",
"621 518 CURVE SMOOTH",
"621 645 OFFCURVE",
"470 660 OFFCURVE",
"354 660 CURVE SMOOTH",
"84 660 LINE",
"79 630 LINE",
"89 630 LINE SMOOTH",
"132 630 OFFCURVE",
"146 610 OFFCURVE",
"146 575 CURVE SMOOTH",
"146 562 OFFCURVE",
"144 546 OFFCURVE",
"48 0 CURVE"
);
},
{
closed = 1;
nodes = (
"255 40 LINE",
"235 40 OFFCURVE",
"218 42 OFFCURVE",
"205 45 CURVE SMOOTH",
"198 46 OFFCURVE",
"191 48 OFFCURVE",
"186 50 CURVE",
"233 316 LINE",
"308 316 LINE SMOOTH",
"407 316 OFFCURVE",
"457 281 OFFCURVE",
"457 210 CURVE SMOOTH",
"457 95 OFFCURVE",
"360 40 OFFCURVE",
"260 40 CURVE SMOOTH"
);
}
);
width = 646;
}
);
leftKerningGroup = B;
unicode = 0042;
},
{
glyphname = C;
lastChange = "2016-08-26 10:24:29 +0000";
layers = (
{
layerId = UUID0;
paths = (
{
closed = 1;
nodes = (
"640 450 LINE",
"645 485 OFFCURVE",
"652 517 OFFCURVE",
"652 550 CURVE SMOOTH",
"652 657 OFFCURVE",
"502 680 OFFCURVE",
"425 680 CURVE SMOOTH",
"205 680 OFFCURVE",
"45 436 OFFCURVE",
"45 245 CURVE SMOOTH",
"45 92 OFFCURVE",
"138 -20 OFFCURVE",
"302 -20 CURVE SMOOTH",
"423 -20 OFFCURVE",
"518 20 OFFCURVE",
"606 145 CURVE",
"589 160 LINE",
"517 69 OFFCURVE",
"439 20 OFFCURVE",
"339 20 CURVE SMOOTH",
"199 20 OFFCURVE",
"145 122 OFFCURVE",
"145 241 CURVE SMOOTH",
"145 428 OFFCURVE",
"244 640 OFFCURVE",
"448 640 CURVE SMOOTH",
"559 640 OFFCURVE",
"617 581 OFFCURVE",
"620 450 CURVE"
);
}
);
width = 666;
},
{
layerId = "F7C9FF73-DC1F-4AC6-B1F4-3E0815F912B2";
paths = (
{
closed = 1;
nodes = (
"660 447 LINE",
"667 482 OFFCURVE",
"672 514 OFFCURVE",
"672 545 CURVE SMOOTH",
"672 660 OFFCURVE",
"521 680 OFFCURVE",
"438 680 CURVE SMOOTH",
"205 680 OFFCURVE",
"38 451 OFFCURVE",
"38 246 CURVE SMOOTH",
"38 91 OFFCURVE",
"133 -20 OFFCURVE",
"315 -20 CURVE SMOOTH",
"454 -20 OFFCURVE",
"549 30 OFFCURVE",
"631 141 CURVE",
"601 168 LINE",
"537 75 OFFCURVE",
"445 25 OFFCURVE",
"353 25 CURVE SMOOTH",
"225 25 OFFCURVE",
"177 116 OFFCURVE",
"177 232 CURVE SMOOTH",
"177 408 OFFCURVE",
"259 635 OFFCURVE",
"460 635 CURVE SMOOTH",
"571 635 OFFCURVE",
"627 568 OFFCURVE",
"630 447 CURVE"
);
}
);
width = 680;
}
);
leftKerningGroup = C;
rightKerningGroup = C;
unicode = 0043;
},
{
glyphname = D;
lastChange = "2016-08-26 10:24:29 +0000";
layers = (
{
layerId = UUID0;
paths = (
{
closed = 1;
nodes = (
"259 609 LINE",
"298 620 OFFCURVE",
"333 625 OFFCURVE",
"362 625 CURVE SMOOTH",
"495 625 OFFCURVE",
"579 537 OFFCURVE",
"579 398 CURVE SMOOTH",
"579 216 OFFCURVE",
"448 35 OFFCURVE",
"260 35 CURVE SMOOTH",
"233 35 OFFCURVE",
"199 39 OFFCURVE",
"160 48 CURVE"
);
},
{
closed = 1;
nodes = (
"85 660 LINE",
"81 640 LINE",
"101 640 LINE SMOOTH",
"145 640 OFFCURVE",
"158 618 OFFCURVE",
"158 583 CURVE SMOOTH",
"158 570 OFFCURVE",
"157 556 OFFCURVE",
"154 540 CURVE SMOOTH",
"59 0 LINE",
"153 0 LINE",
"257 0 LINE SMOOTH",
"506 0 OFFCURVE",
"689 172 OFFCURVE",
"689 405 CURVE SMOOTH",
"689 563 OFFCURVE",
"578 660 OFFCURVE",
"347 660 CURVE SMOOTH"
);
}
);
width = 716;
},
{
layerId = "F7C9FF73-DC1F-4AC6-B1F4-3E0815F912B2";
paths = (
{
closed = 1;
nodes = (
"370 620 LINE",
"494 620 OFFCURVE",
"568 536 OFFCURVE",
"568 403 CURVE SMOOTH",
"568 230 OFFCURVE",
"454 40 OFFCURVE",
"270 40 CURVE SMOOTH",
"260 40 LINE SMOOTH",
"240 40 OFFCURVE",
"221 40 OFFCURVE",
"208 43 CURVE SMOOTH",
"186 47 LINE",
"286 613 LINE",
"309 616 LINE",
"324 619 OFFCURVE",
"342 620 OFFCURVE",
"362 620 CURVE SMOOTH"
);
},
{
closed = 1;
nodes = (
"84 660 LINE",
"79 630 LINE",
"89 630 LINE SMOOTH",
"132 630 OFFCURVE",
"146 610 OFFCURVE",
"146 575 CURVE SMOOTH",
"146 564 OFFCURVE",
"144 549 OFFCURVE",
"141 530 CURVE SMOOTH",
"48 0 LINE",
"178 0 LINE",
"266 0 LINE SMOOTH",
"518 0 OFFCURVE",
"717 161 OFFCURVE",
"717 402 CURVE SMOOTH",
"717 563 OFFCURVE",
"597 660 OFFCURVE",
"356 660 CURVE SMOOTH"
);
}
);
width = 737;
}
);
leftKerningGroup = B;
rightKerningGroup = D;
unicode = 0044;
},
{
glyphname = E;
lastChange = "2016-08-26 10:24:29 +0000";
layers = (
{
layerId = UUID0;
paths = (
{
closed = 1;
nodes = (
"86 660 LINE",
"82 640 LINE",
"102 640 LINE SMOOTH",
"146 640 OFFCURVE",
"159 618 OFFCURVE",
"159 583 CURVE SMOOTH",
"159 569 OFFCURVE",
"156 557 OFFCURVE",
"60 0 CURVE",
"150 0 LINE",
"405 0 LINE SMOOTH",
"445 0 OFFCURVE",
"472 19 OFFCURVE",
"488 50 CURVE SMOOTH",
"540 145 LINE",
"521 150 LINE",
"477 70 OFFCURVE",
"423 40 OFFCURVE",
"332 40 CURVE SMOOTH",
"157 40 LINE",
"206 320 LINE",
"476 320 LINE",
"483 360 LINE",
"213 360 LINE",
"259 620 LINE",
"445 620 LINE SMOOTH",
"514 620 OFFCURVE",
"553 595 OFFCURVE",
"553 535 CURVE SMOOTH",
"553 526 OFFCURVE",
"552 516 OFFCURVE",
"550 505 CURVE",
"570 505 LINE",
"583 588 OFFCURVE",
"585 594 OFFCURVE",
"585 602 CURVE SMOOTH",
"585 634 OFFCURVE",
"569 660 OFFCURVE",
"512 660 CURVE SMOOTH"
);
}
);
width = 593;
},
{
layerId = "F7C9FF73-DC1F-4AC6-B1F4-3E0815F912B2";
paths = (
{
closed = 1;
nodes = (
"84 660 LINE",
"79 630 LINE",
"89 630 LINE SMOOTH",
"132 630 OFFCURVE",
"146 610 OFFCURVE",
"146 575 CURVE SMOOTH",
"146 562 OFFCURVE",
"144 546 OFFCURVE",
"48 0 CURVE",
"178 0 LINE",
"418 0 LINE SMOOTH",
"473 0 OFFCURVE",
"494 27 OFFCURVE",
"517 70 CURVE SMOOTH",
"560 149 LINE",
"535 159 LINE",
"484 72 OFFCURVE",
"429 45 OFFCURVE",
"356 45 CURVE SMOOTH",
"185 45 LINE",
"234 320 LINE",
"494 320 LINE",
"502 365 LINE",
"242 365 LINE",
"286 615 LINE",
"447 615 LINE SMOOTH",
"516 615 OFFCURVE",
"554 589 OFFCURVE",
"554 528 CURVE SMOOTH",
"554 518 OFFCURVE",
"553 507 OFFCURVE",
"551 495 CURVE",
"581 495 LINE",
"597 587 OFFCURVE",
"598 595 OFFCURVE",
"598 602 CURVE SMOOTH",
"598 634 OFFCURVE",
"582 660 OFFCURVE",
"525 660 CURVE SMOOTH"
);
}
);
width = 602;
}
);
leftKerningGroup = B;
unicode = 0045;
},
{
glyphname = F;
lastChange = "2016-08-26 10:24:29 +0000";
layers = (
{
layerId = UUID0;
paths = (
{
closed = 1;
nodes = (
"86 660 LINE",
"82 640 LINE",
"102 640 LINE SMOOTH",
"146 640 OFFCURVE",
"159 618 OFFCURVE",
"159 583 CURVE SMOOTH",
"159 569 OFFCURVE",
"156 557 OFFCURVE",
"60 0 CURVE",
"150 0 LINE",
"205 315 LINE",
"431 315 LINE",
"438 355 LINE",
"212 355 LINE",
"259 620 LINE",
"418 620 LINE SMOOTH",
"487 620 OFFCURVE",
"526 595 OFFCURVE",
"526 535 CURVE SMOOTH",
"526 526 OFFCURVE",
"525 516 OFFCURVE",
"523 505 CURVE",
"543 505 LINE",
"556 588 OFFCURVE",
"558 594 OFFCURVE",
"558 602 CURVE SMOOTH",
"558 634 OFFCURVE",
"542 660 OFFCURVE",
"485 660 CURVE SMOOTH"
);
}
);
width = 531;
},
{
layerId = "F7C9FF73-DC1F-4AC6-B1F4-3E0815F912B2";
paths = (
{
closed = 1;
nodes = (
"84 660 LINE",
"79 630 LINE",
"89 630 LINE SMOOTH",
"132 630 OFFCURVE",
"146 610 OFFCURVE",
"146 575 CURVE SMOOTH",
"146 564 OFFCURVE",
"144 549 OFFCURVE",
"141 530 CURVE SMOOTH",
"48 0 LINE",
"178 0 LINE",
"233 315 LINE",
"453 315 LINE",
"461 360 LINE",
"241 360 LINE",
"286 615 LINE",
"425 615 LINE SMOOTH",
"494 615 OFFCURVE",
"532 591 OFFCURVE",
"532 528 CURVE SMOOTH",
"532 518 OFFCURVE",
"531 507 OFFCURVE",
"529 495 CURVE",
"559 495 LINE",
"575 587 OFFCURVE",
"576 595 OFFCURVE",
"576 602 CURVE SMOOTH",
"576 634 OFFCURVE",
"560 660 OFFCURVE",
"503 660 CURVE SMOOTH"
);
}
);
width = 542;
}
);
leftKerningGroup = B;
unicode = 0046;
},
{
glyphname = G;
lastChange = "2016-08-26 10:24:29 +0000";
layers = (
{
layerId = UUID0;
paths = (
{
closed = 1;
nodes = (
"567 640 OFFCURVE",
"628 582 OFFCURVE",
"632 465 CURVE",
"652 465 LINE",
"657 492 OFFCURVE",
"662 523 OFFCURVE",
"662 550 CURVE SMOOTH",
"662 662 OFFCURVE",
"505 680 OFFCURVE",
"425 680 CURVE SMOOTH",
"200 680 OFFCURVE",
"49 465 OFFCURVE",
"49 269 CURVE SMOOTH",
"49 104 OFFCURVE",
"156 -20 OFFCURVE",
"332 -20 CURVE SMOOTH",
"429 -20 OFFCURVE",
"508 -1 OFFCURVE",
"588 43 CURVE",
"621 231 LINE SMOOTH",
"632 290 OFFCURVE",
"649 326 OFFCURVE",
"713 326 CURVE",
"717 346 LINE",
"567 346 OFFCURVE",
"541 284 OFFCURVE",
"531 229 CURVE SMOOTH",
"500 55 LINE",
"457 34 OFFCURVE",
"411 20 OFFCURVE",
"339 20 CURVE SMOOTH",
"230 20 OFFCURVE",
"145 77 OFFCURVE",
"145 236 CURVE SMOOTH",
"145 419 OFFCURVE",
"243 640 OFFCURVE",
"448 640 CURVE SMOOTH"
);
}
);
width = 720;
},
{
layerId = "F7C9FF73-DC1F-4AC6-B1F4-3E0815F912B2";
paths = (
{
closed = 1;
nodes = (
"651 226 LINE SMOOTH",
"662 286 OFFCURVE",
"687 321 OFFCURVE",
"732 321 CURVE",
"737 346 LINE",
"567 346 OFFCURVE",
"531 279 OFFCURVE",
"521 224 CURVE SMOOTH",
"490 46 LINE",
"453 30 OFFCURVE",
"410 20 OFFCURVE",
"350 20 CURVE SMOOTH",
"250 20 OFFCURVE",
"175 71 OFFCURVE",
"175 226 CURVE SMOOTH",
"175 401 OFFCURVE",
"255 635 OFFCURVE",
"458 635 CURVE SMOOTH",
"574 635 OFFCURVE",
"632 583 OFFCURVE",
"636 460 CURVE",
"666 460 LINE",
"671 485 OFFCURVE",
"676 515 OFFCURVE",
"676 543 CURVE SMOOTH",
"676 659 OFFCURVE",
"521 680 OFFCURVE",
"436 680 CURVE SMOOTH",
"208 680 OFFCURVE",
"40 477 OFFCURVE",
"40 273 CURVE SMOOTH",
"40 104 OFFCURVE",
"159 -20 OFFCURVE",
"343 -20 CURVE SMOOTH",
"446 -20 OFFCURVE",
"535 0 OFFCURVE",
"620 47 CURVE"
);
}
);
width = 734;
}
);
leftKerningGroup = C;
rightKerningGroup = G;
unicode = 0047;
},
{
glyphname = H;
lastChange = "2016-08-26 10:24:29 +0000";
layers = (
{
layerId = UUID0;
paths = (
{
closed = 1;
nodes = (
"655 660 LINE",
"565 660 LINE",
"512 360 LINE",
"212 360 LINE",
"244 540 LINE SMOOTH",
"248 564 OFFCURVE",
"250 584 OFFCURVE",
"250 599 CURVE SMOOTH",
"250 650 OFFCURVE",
"228 660 OFFCURVE",
"175 660 CURVE SMOOTH",
"85 660 LINE",
"81 640 LINE",
"101 640 LINE SMOOTH",
"145 640 OFFCURVE",
"158 618 OFFCURVE",
"158 583 CURVE SMOOTH",
"158 570 OFFCURVE",
"157 556 OFFCURVE",
"154 540 CURVE SMOOTH",
"59 0 LINE",
"149 0 LINE",
"205 320 LINE",
"505 320 LINE",
"470 120 LINE SMOOTH",
"466 96 OFFCURVE",
"463 77 OFFCURVE",
"463 61 CURVE SMOOTH",
"463 12 OFFCURVE",
"486 0 OFFCURVE",
"539 0 CURVE SMOOTH",
"629 0 LINE",
"632 20 LINE",
"612 20 LINE SMOOTH",
"569 20 OFFCURVE",
"555 40 OFFCURVE",
"555 75 CURVE SMOOTH",
"555 86 OFFCURVE",
"557 101 OFFCURVE",
"560 120 CURVE SMOOTH"
);
}
);
width = 696;
},
{
layerId = "F7C9FF73-DC1F-4AC6-B1F4-3E0815F912B2";
paths = (
{
closed = 1;
nodes = (
"512 365 LINE",
"242 365 LINE",
"271 530 LINE",
"276 553 OFFCURVE",
"278 574 OFFCURVE",
"278 593 CURVE SMOOTH",
"278 644 OFFCURVE",
"256 660 OFFCURVE",
"204 660 CURVE SMOOTH",
"84 660 LINE",
"79 630 LINE",
"89 630 LINE SMOOTH",
"132 630 OFFCURVE",
"146 610 OFFCURVE",
"146 575 CURVE SMOOTH",
"146 564 OFFCURVE",
"144 549 OFFCURVE",
"141 530 CURVE SMOOTH",
"48 0 LINE",
"178 0 LINE",
"234 320 LINE",
"504 320 LINE",
"470 130 LINE SMOOTH",
"466 106 OFFCURVE",
"464 86 OFFCURVE",
"464 69 CURVE SMOOTH",
"464 17 OFFCURVE",
"485 0 OFFCURVE",
"538 0 CURVE SMOOTH",
"658 0 LINE",
"663 30 LINE",
"653 30 LINE SMOOTH",
"609 30 OFFCURVE",
"596 52 OFFCURVE",
"596 87 CURVE SMOOTH",
"596 100 OFFCURVE",
"597 114 OFFCURVE",
"600 130 CURVE SMOOTH",
"694 660 LINE",
"564 660 LINE"
);
}
);
width = 723;
}
);
leftKerningGroup = B;
rightKerningGroup = H;
unicode = 0048;
},
{
glyphname = I;
lastChange = "2016-08-26 10:24:29 +0000";
layers = (
{
layerId = UUID0;
paths = (
{
closed = 1;
nodes = (
"63 120 LINE SMOOTH",
"59 96 OFFCURVE",
"56 77 OFFCURVE",
"56 61 CURVE SMOOTH",
"56 12 OFFCURVE",
"79 0 OFFCURVE",
"132 0 CURVE SMOOTH",
"222 0 LINE",
"225 20 LINE",
"205 20 LINE SMOOTH",
"162 20 OFFCURVE",
"148 40 OFFCURVE",
"148 75 CURVE SMOOTH",
"148 86 OFFCURVE",
"150 101 OFFCURVE",
"153 120 CURVE SMOOTH",
"248 660 LINE",
"158 660 LINE"
);
}
);
width = 289;
},
{
layerId = "F7C9FF73-DC1F-4AC6-B1F4-3E0815F912B2";
paths = (
{
closed = 1;
nodes = (
"54 130 LINE SMOOTH",
"50 106 OFFCURVE",
"48 86 OFFCURVE",
"48 69 CURVE SMOOTH",
"48 17 OFFCURVE",
"69 0 OFFCURVE",
"122 0 CURVE SMOOTH",
"242 0 LINE",
"247 30 LINE",
"237 30 LINE SMOOTH",
"193 30 OFFCURVE",
"180 52 OFFCURVE",
"180 87 CURVE SMOOTH",
"180 100 OFFCURVE",
"181 114 OFFCURVE",
"184 130 CURVE SMOOTH",
"278 660 LINE",
"148 660 LINE"
);
}
);
width = 307;
}
);
leftKerningGroup = I;
rightKerningGroup = H;
unicode = 0049;
},
{
glyphname = J;
lastChange = "2016-08-26 10:24:29 +0000";
layers = (
{
layerId = UUID0;
paths = (
{
closed = 1;
nodes = (
"-80 -137 LINE",
"65 -137 OFFCURVE",
"115 -72 OFFCURVE",
"142 78 CURVE SMOOTH",
"245 660 LINE",
"155 660 LINE",
"52 78 LINE SMOOTH",
"31 -43 OFFCURVE",
"-12 -117 OFFCURVE",
"-76 -117 CURVE"
);
}
);
width = 264;
},
{
layerId = "F7C9FF73-DC1F-4AC6-B1F4-3E0815F912B2";
paths = (
{
closed = 1;
nodes = (
"273 660 LINE",
"143 660 LINE",
"41 83 LINE",
"17 -59 OFFCURVE",
"-25 -99 OFFCURVE",
"-84 -107 CURVE",
"-90 -137 LINE",
"88 -137 OFFCURVE",
"142 -89 OFFCURVE",
"171 83 CURVE"
);
}
);
width = 280;
}
);
unicode = 004A;
},
{
glyphname = K;
lastChange = "2016-08-26 10:24:29 +0000";
layers = (
{
layerId = UUID0;
paths = (
{
closed = 1;
nodes = (
"86 660 LINE",
"82 640 LINE",
"102 640 LINE SMOOTH",
"146 640 OFFCURVE",
"159 618 OFFCURVE",
"159 583 CURVE SMOOTH",
"159 569 OFFCURVE",
"156 557 OFFCURVE",
"60 0 CURVE",
"150 0 LINE",
"208 330 LINE",
"379 110 LINE SMOOTH",
"456 10 OFFCURVE",
"518 -10 OFFCURVE",
"573 -10 CURVE SMOOTH",
"604 -10 OFFCURVE",
"624 -5 OFFCURVE",
"640 0 CURVE",
"643 19 LINE",
"594 26 OFFCURVE",
"536 73 OFFCURVE",
"492 130 CURVE SMOOTH",
"305 370 LINE",
"534 565 LINE",
"598 621 OFFCURVE",
"636 635 OFFCURVE",
"691 635 CURVE",
"696 660 LINE",
"646 660 LINE SMOOTH",
"567 660 OFFCURVE",
"515 605 OFFCURVE",
"457 555 CURVE SMOOTH",
"210 345 LINE",
"250 564 OFFCURVE",
"252 584 OFFCURVE",
"252 599 CURVE SMOOTH",
"252 648 OFFCURVE",
"229 660 OFFCURVE",
"176 660 CURVE SMOOTH"
);
}
);
width = 678;
},
{
layerId = "F7C9FF73-DC1F-4AC6-B1F4-3E0815F912B2";
paths = (
{
closed = 1;
nodes = (
"179 0 LINE",
"228 278 LINE",
"359 110 LINE SMOOTH",
"436 10 OFFCURVE",
"508 -10 OFFCURVE",
"582 -10 CURVE SMOOTH",
"613 -10 OFFCURVE",
"641 -5 OFFCURVE",
"657 0 CURVE",
"661 24 LINE",
"623 29 OFFCURVE",
"562 75 OFFCURVE",
"520 130 CURVE SMOOTH",
"332 370 LINE",
"513 554 LINE SMOOTH",
"569 610 OFFCURVE",
"633 625 OFFCURVE",
"709 625 CURVE",
"715 660 LINE",
"645 660 LINE SMOOTH",
"565 660 OFFCURVE",
"502 611 OFFCURVE",
"449 555 CURVE",
"238 340 LINE",
"275 556 OFFCURVE",
"279 575 OFFCURVE",
"279 592 CURVE SMOOTH",
"279 643 OFFCURVE",
"257 660 OFFCURVE",
"204 660 CURVE SMOOTH",
"84 660 LINE",
"79 630 LINE",
"89 630 LINE SMOOTH",
"132 630 OFFCURVE",
"146 610 OFFCURVE",
"146 575 CURVE SMOOTH",
"146 562 OFFCURVE",
"145 546 OFFCURVE",
"49 0 CURVE"
);
}
);
width = 694;
}
);
leftKerningGroup = B;
unicode = 004B;
},
{
glyphname = L;
lastChange = "2016-08-26 10:24:29 +0000";
layers = (
{
layerId = UUID0;
paths = (
{
closed = 1;
nodes = (
"157 40 LINE",
"249 563 OFFCURVE",
"251 583 OFFCURVE",
"251 599 CURVE SMOOTH",
"251 650 OFFCURVE",
"229 660 OFFCURVE",
"176 660 CURVE SMOOTH",
"86 660 LINE",
"82 640 LINE",
"102 640 LINE SMOOTH",
"146 640 OFFCURVE",
"159 618 OFFCURVE",
"159 583 CURVE SMOOTH",
"159 569 OFFCURVE",
"156 557 OFFCURVE",
"60 0 CURVE",
"505 0 LINE",
"512 40 LINE"
);
}
);
width = 557;
},
{
layerId = "F7C9FF73-DC1F-4AC6-B1F4-3E0815F912B2";
paths = (
{
closed = 1;
nodes = (
"185 45 LINE",
"271 530 LINE",
"276 553 OFFCURVE",
"278 574 OFFCURVE",
"278 593 CURVE SMOOTH",
"278 644 OFFCURVE",
"256 660 OFFCURVE",
"204 660 CURVE SMOOTH",
"84 660 LINE",
"79 630 LINE",
"89 630 LINE SMOOTH",
"132 630 OFFCURVE",
"146 610 OFFCURVE",
"146 575 CURVE SMOOTH",
"146 564 OFFCURVE",
"144 549 OFFCURVE",
"141 530 CURVE SMOOTH",
"48 0 LINE",
"523 0 LINE",
"530 45 LINE"
);
}
);
width = 567;
}
);
leftKerningGroup = B;
unicode = 004C;
},
{
glyphname = M;
lastChange = "2016-08-26 10:24:29 +0000";
layers = (
{
layerId = UUID0;
paths = (
{
closed = 1;
nodes = (
"788 -25 LINE",
"740 -25 OFFCURVE",
"718 15 OFFCURVE",
"718 84 CURVE SMOOTH",
"718 109 OFFCURVE",
"721 138 OFFCURVE",
"727 170 CURVE SMOOTH",
"814 660 LINE",
"724 660 LINE",
"397 140 LINE",
"249 660 LINE",
"154 660 LINE",
"38 0 LINE",
"78 0 LINE",
"177 565 LINE",
"338 0 LINE",
"358 0 LINE",
"705 555 LINE",
"637 170 LINE SMOOTH",
"631 138 OFFCURVE",
"628 110 OFFCURVE",
"628 86 CURVE SMOOTH",
"628 -6 OFFCURVE",
"670 -45 OFFCURVE",
"785 -45 CURVE"
);
}
);
width = 857;
},
{
layerId = "F7C9FF73-DC1F-4AC6-B1F4-3E0815F912B2";
paths = (
{
closed = 1;
nodes = (
"842 660 LINE",
"711 660 LINE",
"419 169 LINE",
"264 660 LINE",
"142 660 LINE",
"26 0 LINE",
"76 0 LINE",
"171 544 LINE",
"344 0 LINE",
"377 0 LINE",
"688 524 LINE",
"625 170 LINE",
"621 143 OFFCURVE",
"618 121 OFFCURVE",
"618 100 CURVE SMOOTH",
"618 0 OFFCURVE",
"670 -45 OFFCURVE",
"791 -45 CURVE",
"795 -20 LINE",
"761 -13 OFFCURVE",
"744 17 OFFCURVE",
"744 70 CURVE SMOOTH",
"744 97 OFFCURVE",
"748 130 OFFCURVE",
"755 170 CURVE SMOOTH"
);
}
);
width = 869;
}
);
unicode = 004D;
},
{
glyphname = N;
lastChange = "2016-08-26 10:24:29 +0000";
layers = (
{
layerId = UUID0;
paths = (
{
closed = 1;
nodes = (
"102 0 LINE",
"194 525 LINE",
"530 -10 LINE",
"550 -10 LINE",
"668 660 LINE",
"628 660 LINE",
"541 165 LINE",
"267 600 LINE SMOOTH",
"244 637 OFFCURVE",
"208 660 OFFCURVE",
"143 660 CURVE SMOOTH",
"78 660 LINE",
"74 640 LINE",
"84 640 LINE SMOOTH",
"141 640 OFFCURVE",
"160 615 OFFCURVE",
"160 572 CURVE SMOOTH",
"160 561 OFFCURVE",
"158 552 OFFCURVE",
"62 0 CURVE"
);
}
);
width = 687;
},
{
layerId = "F7C9FF73-DC1F-4AC6-B1F4-3E0815F912B2";
paths = (
{
closed = 1;
nodes = (
"282 600 LINE",
"258 640 OFFCURVE",
"218 660 OFFCURVE",
"142 660 CURVE SMOOTH",
"72 660 LINE",
"67 630 LINE",
"72 630 LINE SMOOTH",
"129 630 OFFCURVE",
"149 603 OFFCURVE",
"149 566 CURVE SMOOTH",
"149 558 OFFCURVE",
"147 549 OFFCURVE",
"51 0 CURVE",
"101 0 LINE",
"188 495 LINE",
"524 -3 LINE",
"570 -3 LINE",
"687 660 LINE",
"637 660 LINE",
"556 200 LINE"
);
}
);
width = 695;
}
);
leftKerningGroup = B;
rightKerningGroup = N;
unicode = 004E;
},
{
glyphname = O;
lastChange = "2016-08-26 10:24:29 +0000";
layers = (
{
layerId = UUID0;
paths = (
{
closed = 1;
nodes = (
"203 20 OFFCURVE",
"146 98 OFFCURVE",
"146 231 CURVE SMOOTH",
"146 394 OFFCURVE",
"227 640 OFFCURVE",
"419 640 CURVE SMOOTH",
"526 640 OFFCURVE",
"584 560 OFFCURVE",
"584 427 CURVE SMOOTH",
"584 265 OFFCURVE",
"501 20 OFFCURVE",
"310 20 CURVE SMOOTH"
);
},
{
closed = 1;
nodes = (
"48 95 OFFCURVE",
"139 -20 OFFCURVE",
"303 -20 CURVE SMOOTH",
"535 -20 OFFCURVE",
"682 207 OFFCURVE",
"682 407 CURVE SMOOTH",
"682 564 OFFCURVE",
"590 680 OFFCURVE",
"426 680 CURVE SMOOTH",
"194 680 OFFCURVE",
"48 450 OFFCURVE",
"48 251 CURVE SMOOTH"
);
}
);
width = 712;
},
{
layerId = "F7C9FF73-DC1F-4AC6-B1F4-3E0815F912B2";
paths = (
{
closed = 1;
nodes = (
"227 25 OFFCURVE",
"176 96 OFFCURVE",
"176 221 CURVE SMOOTH",
"176 373 OFFCURVE",
"244 635 OFFCURVE",
"430 635 CURVE SMOOTH",
"526 635 OFFCURVE",
"578 565 OFFCURVE",
"578 438 CURVE SMOOTH",
"578 283 OFFCURVE",
"511 25 OFFCURVE",
"323 25 CURVE SMOOTH"
);
},
{
closed = 1;
nodes = (
"40 95 OFFCURVE",
"142 -20 OFFCURVE",
"315 -20 CURVE SMOOTH",
"551 -20 OFFCURVE",
"713 196 OFFCURVE",
"713 404 CURVE SMOOTH",
"713 565 OFFCURVE",
"611 680 OFFCURVE",
"438 680 CURVE SMOOTH",
"202 680 OFFCURVE",
"40 464 OFFCURVE",
"40 256 CURVE SMOOTH"
);
}
);
width = 735;
}
);
leftKerningGroup = C;
rightKerningGroup = O;
unicode = 004F;
},
{
glyphname = P;
lastChange = "2016-08-26 10:24:29 +0000";
layers = (
{
layerId = UUID0;
paths = (
{
closed = 1;
nodes = (
"253 305 OFFCURVE",
"224 310 OFFCURVE",
"205 315 CURVE",
"258 615 LINE",
"279 620 OFFCURVE",
"310 625 OFFCURVE",
"335 625 CURVE SMOOTH",
"383 625 OFFCURVE",
"464 592 OFFCURVE",
"464 499 CURVE SMOOTH",
"464 366 OFFCURVE",
"349 305 OFFCURVE",
"278 305 CURVE SMOOTH"
);
},
{
closed = 1;
nodes = (
"197 270 LINE",
"307 270 LINE SMOOTH",
"446 270 OFFCURVE",
"565 363 OFFCURVE",
"565 503 CURVE SMOOTH",
"565 643 OFFCURVE",
"423 660 OFFCURVE",
"346 660 CURVE SMOOTH",
"86 660 LINE",
"82 640 LINE",
"102 640 LINE SMOOTH",
"146 640 OFFCURVE",
"159 618 OFFCURVE",
"159 583 CURVE SMOOTH",
"159 569 OFFCURVE",
"156 557 OFFCURVE",
"60 0 CURVE",
"150 0 LINE"
);
}
);
width = 555;
},
{
layerId = "F7C9FF73-DC1F-4AC6-B1F4-3E0815F912B2";
paths = (
{
closed = 1;
nodes = (
"406 620 OFFCURVE",
"459 595 OFFCURVE",
"459 511 CURVE SMOOTH",
"459 406 OFFCURVE",
"400 307 OFFCURVE",
"292 307 CURVE SMOOTH",
"232 307 LINE",
"286 613 LINE",
"307 616 LINE",
"319 619 OFFCURVE",
"336 620 OFFCURVE",
"352 620 CURVE SMOOTH"
);
},
{
closed = 1;
nodes = (
"84 660 LINE",
"79 630 LINE",
"89 630 LINE SMOOTH",
"132 630 OFFCURVE",
"146 610 OFFCURVE",
"146 575 CURVE SMOOTH",
"146 562 OFFCURVE",
"144 546 OFFCURVE",
"48 0 CURVE",
"178 0 LINE",
"225 267 LINE",
"320 267 LINE SMOOTH",
"461 267 OFFCURVE",
"598 351 OFFCURVE",
"598 500 CURVE SMOOTH",
"598 643 OFFCURVE",
"443 660 OFFCURVE",
"359 660 CURVE SMOOTH"
);
}
);
width = 580;
}
);
leftKerningGroup = B;
unicode = 0050;
},
{
glyphname = Q;
lastChange = "2016-08-26 10:24:29 +0000";
layers = (
{
layerId = UUID0;
paths = (
{
closed = 1;
nodes = (
"48 124 OFFCURVE",
"107 26 OFFCURVE",
"215 -7 CURVE",
"311 -160 OFFCURVE",
"445 -205 OFFCURVE",
"590 -205 CURVE",
"594 -185 LINE",
"509 -185 OFFCURVE",
"400 -109 OFFCURVE",
"387 -9 CURVE",
"575 47 OFFCURVE",
"681 230 OFFCURVE",
"681 409 CURVE SMOOTH",
"681 565 OFFCURVE",
"590 680 OFFCURVE",
"426 680 CURVE SMOOTH",
"194 680 OFFCURVE",
"48 450 OFFCURVE",
"48 251 CURVE SMOOTH"
);
},
{
closed = 1;
nodes = (
"203 20 OFFCURVE",
"146 98 OFFCURVE",
"146 231 CURVE SMOOTH",
"146 394 OFFCURVE",
"227 640 OFFCURVE",
"419 640 CURVE SMOOTH",
"526 640 OFFCURVE",
"584 560 OFFCURVE",
"584 427 CURVE SMOOTH",
"584 265 OFFCURVE",
"501 20 OFFCURVE",
"310 20 CURVE SMOOTH"
);
}
);
width = 711;
},
{
layerId = "F7C9FF73-DC1F-4AC6-B1F4-3E0815F912B2";
paths = (
{
closed = 1;
nodes = (
"41 131 OFFCURVE",
"104 30 OFFCURVE",
"215 -4 CURVE",
"310 -152 OFFCURVE",
"455 -205 OFFCURVE",
"608 -205 CURVE",
"613 -179 LINE",
"530 -179 OFFCURVE",
"429 -104 OFFCURVE",
"413 -7 CURVE",
"599 49 OFFCURVE",
"714 225 OFFCURVE",
"714 404 CURVE SMOOTH",
"714 565 OFFCURVE",
"612 680 OFFCURVE",
"439 680 CURVE SMOOTH",
"203 680 OFFCURVE",
"41 464 OFFCURVE",
"41 256 CURVE SMOOTH"
);
},
{
closed = 1;
nodes = (
"228 25 OFFCURVE",
"177 96 OFFCURVE",
"177 221 CURVE SMOOTH",
"177 373 OFFCURVE",
"245 635 OFFCURVE",
"431 635 CURVE SMOOTH",
"527 635 OFFCURVE",
"579 565 OFFCURVE",
"579 438 CURVE SMOOTH",
"579 283 OFFCURVE",
"512 25 OFFCURVE",
"324 25 CURVE SMOOTH"
);
}
);
width = 737;
}
);
leftKerningGroup = C;
rightKerningGroup = O;
unicode = 0051;
},
{
glyphname = R;
lastChange = "2016-08-26 10:24:29 +0000";
layers = (
{
layerId = UUID0;
paths = (
{
closed = 1;
nodes = (
"259 340 OFFCURVE",
"230 345 OFFCURVE",
"211 350 CURVE",
"258 615 LINE",
"279 620 OFFCURVE",
"310 625 OFFCURVE",
"335 625 CURVE SMOOTH",
"386 625 OFFCURVE",
"467 592 OFFCURVE",
"467 507 CURVE SMOOTH",
"467 411 OFFCURVE",
"372 340 OFFCURVE",
"284 340 CURVE SMOOTH"
);
},
{
closed = 1;
nodes = (
"343 135 LINE",
"389 25 OFFCURVE",
"428 -10 OFFCURVE",
"498 -10 CURVE SMOOTH",
"523 -10 OFFCURVE",
"549 -5 OFFCURVE",
"560 0 CURVE",
"563 20 LINE",
"515 25 OFFCURVE",
"483 50 OFFCURVE",
"448 135 CURVE SMOOTH",
"374 310 LINE",
"485 336 OFFCURVE",
"567 406 OFFCURVE",
"567 515 CURVE SMOOTH",
"567 643 OFFCURVE",
"424 660 OFFCURVE",
"346 660 CURVE SMOOTH",
"86 660 LINE",
"82 640 LINE",
"102 640 LINE SMOOTH",
"146 640 OFFCURVE",
"159 618 OFFCURVE",
"159 583 CURVE SMOOTH",
"159 569 OFFCURVE",
"156 557 OFFCURVE",
"60 0 CURVE",
"150 0 LINE",
"203 305 LINE",
"273 305 LINE"
);
}
);
width = 595;
},
{
layerId = "F7C9FF73-DC1F-4AC6-B1F4-3E0815F912B2";
paths = (
{
closed = 1;
nodes = (
"405 620 OFFCURVE",
"461 593 OFFCURVE",
"461 516 CURVE SMOOTH",
"461 419 OFFCURVE",
"393 342 OFFCURVE",
"299 342 CURVE SMOOTH",
"239 342 LINE",
"287 613 LINE",
"308 616 LINE",
"320 619 OFFCURVE",
"337 620 OFFCURVE",
"353 620 CURVE SMOOTH"
);
},
{
closed = 1;
nodes = (
"342 135 LINE",
"390 25 OFFCURVE",
"441 -10 OFFCURVE",
"511 -10 CURVE SMOOTH",
"536 -10 OFFCURVE",
"570 -5 OFFCURVE",
"581 0 CURVE",
"585 25 LINE",
"557 30 OFFCURVE",
"515 50 OFFCURVE",
"480 135 CURVE SMOOTH",
"406 310 LINE",
"511 337 OFFCURVE",
"600 399 OFFCURVE",
"600 511 CURVE SMOOTH",
"600 643 OFFCURVE",
"448 660 OFFCURVE",
"360 660 CURVE SMOOTH",
"84 660 LINE",
"79 630 LINE",
"89 630 LINE SMOOTH",
"132 630 OFFCURVE",
"146 610 OFFCURVE",
"146 575 CURVE SMOOTH",
"146 562 OFFCURVE",
"144 546 OFFCURVE",
"48 0 CURVE",
"179 0 LINE",
"232 302 LINE",
"272 302 LINE"
);
}
);
width = 616;
}
);
leftKerningGroup = B;
unicode = 0052;
},
{
glyphname = S;
lastChange = "2016-08-26 10:24:29 +0000";
layers = (
{
layerId = UUID0;
paths = (
{
closed = 1;
nodes = (
"474 254 OFFCURVE",
"441 290 OFFCURVE",
"376 333 CURVE SMOOTH",
"266 406 LINE SMOOTH",
"209 445 OFFCURVE",
"176 471 OFFCURVE",
"176 518 CURVE SMOOTH",
"176 590 OFFCURVE",
"247 638 OFFCURVE",
"312 638 CURVE SMOOTH",
"423 638 OFFCURVE",
"477 587 OFFCURVE",
"477 458 CURVE SMOOTH",
"477 451 LINE",
"495 451 LINE",
"514 563 OFFCURVE",
"515 565 OFFCURVE",
"515 570 CURVE SMOOTH",
"515 638 OFFCURVE",
"412 678 OFFCURVE",
"319 678 CURVE SMOOTH",
"194 678 OFFCURVE",
"92 591 OFFCURVE",
"92 472 CURVE SMOOTH",
"92 416 OFFCURVE",
"118 379 OFFCURVE",
"182 336 CURVE SMOOTH",
"292 263 LINE SMOOTH",
"349 224 OFFCURVE",
"380 193 OFFCURVE",
"380 146 CURVE SMOOTH",
"380 66 OFFCURVE",
"298 23 OFFCURVE",
"229 23 CURVE SMOOTH",
"118 23 OFFCURVE",
"61 76 OFFCURVE",
"61 205 CURVE SMOOTH",
"61 212 LINE",
"43 212 LINE",
"22 101 OFFCURVE",
"23 97 OFFCURVE",
"23 93 CURVE SMOOTH",
"23 25 OFFCURVE",
"128 -17 OFFCURVE",
"231 -17 CURVE SMOOTH",
"359 -17 OFFCURVE",
"474 73 OFFCURVE",
"474 198 CURVE SMOOTH"
);
}
);
width = 534;
},
{
layerId = "F7C9FF73-DC1F-4AC6-B1F4-3E0815F912B2";
paths = (
{
closed = 1;
nodes = (
"360 -17 OFFCURVE",
"508 54 OFFCURVE",
"508 198 CURVE SMOOTH",
"508 255 OFFCURVE",
"474 294 OFFCURVE",
"405 341 CURVE",
"294 414 LINE",
"243 449 OFFCURVE",
"210 473 OFFCURVE",
"210 518 CURVE SMOOTH",
"210 593 OFFCURVE",
"281 633 OFFCURVE",
"346 633 CURVE SMOOTH",
"445 633 OFFCURVE",
"499 583 OFFCURVE",
"499 452 CURVE SMOOTH",
"499 441 LINE",
"527 441 LINE",
"549 562 OFFCURVE",
"549 566 OFFCURVE",
"549 570 CURVE SMOOTH",
"549 638 OFFCURVE",
"447 678 OFFCURVE",
"343 678 CURVE SMOOTH",
"211 678 OFFCURVE",
"86 604 OFFCURVE",
"86 472 CURVE SMOOTH",
"86 416 OFFCURVE",
"113 372 OFFCURVE",
"181 328 CURVE",
"291 254 LINE SMOOTH",
"342 219 OFFCURVE",
"374 191 OFFCURVE",
"374 144 CURVE SMOOTH",
"374 64 OFFCURVE",
"295 28 OFFCURVE",
"228 28 CURVE SMOOTH",
"117 28 OFFCURVE",
"65 80 OFFCURVE",
"65 213 CURVE SMOOTH",
"65 220 LINE",
"37 220 LINE",
"16 100 OFFCURVE",
"16 94 OFFCURVE",
"16 91 CURVE SMOOTH",
"16 23 OFFCURVE",
"118 -17 OFFCURVE",
"222 -17 CURVE SMOOTH"
);
}
);
width = 562;
}
);
leftKerningGroup = S;
rightKerningGroup = S;
unicode = 0053;
},
{
glyphname = T;
lastChange = "2016-08-26 10:24:29 +0000";
layers = (
{
layerId = UUID0;
paths = (
{
closed = 1;
nodes = (
"172 660 LINE SMOOTH",
"102 660 OFFCURVE",
"81 620 OFFCURVE",
"73 580 CURVE",
"60 505 LINE",
"80 505 LINE",
"95 585 OFFCURVE",
"145 620 OFFCURVE",
"225 620 CURVE SMOOTH",
"315 620 LINE",
"206 0 LINE",
"296 0 LINE",
"405 620 LINE",
"630 620 LINE",
"637 660 LINE"
);
}
);
width = 585;
},
{
layerId = "F7C9FF73-DC1F-4AC6-B1F4-3E0815F912B2";
paths = (
{
closed = 1;
nodes = (
"167 660 LINE SMOOTH",
"97 660 OFFCURVE",
"76 620 OFFCURVE",
"68 580 CURVE",
"53 495 LINE",
"83 495 LINE",
"99 584 OFFCURVE",
"148 615 OFFCURVE",
"219 615 CURVE SMOOTH",
"290 615 LINE",
"182 0 LINE",
"312 0 LINE",
"420 615 LINE",
"629 615 LINE",
"637 660 LINE"
);
}
);
width = 577;
}
);
unicode = 0054;
},
{
glyphname = U;
lastChange = "2016-08-26 10:24:29 +0000";
layers = (
{
layerId = UUID0;
paths = (
{
closed = 1;
nodes = (
"99 285 LINE SMOOTH",
"92 245 OFFCURVE",
"88 209 OFFCURVE",
"88 177 CURVE SMOOTH",
"88 53 OFFCURVE",
"147 -10 OFFCURVE",
"302 -10 CURVE SMOOTH",
"507 -10 OFFCURVE",
"574 89 OFFCURVE",
"609 285 CURVE SMOOTH",
"675 660 LINE",
"635 660 LINE",
"569 285 LINE",
"537 109 OFFCURVE",
"474 30 OFFCURVE",
"321 30 CURVE SMOOTH",
"216 30 OFFCURVE",
"175 84 OFFCURVE",
"175 177 CURVE SMOOTH",
"175 201 OFFCURVE",
"178 226 OFFCURVE",
"183 255 CURVE SMOOTH",
"234 540 LINE SMOOTH",
"238 564 OFFCURVE",
"241 583 OFFCURVE",
"241 599 CURVE SMOOTH",
"241 648 OFFCURVE",
"218 660 OFFCURVE",
"165 660 CURVE SMOOTH",
"75 660 LINE",
"71 640 LINE",
"91 640 LINE SMOOTH",
"135 640 OFFCURVE",
"148 618 OFFCURVE",
"148 583 CURVE SMOOTH",
"148 570 OFFCURVE",
"147 556 OFFCURVE",
"144 540 CURVE SMOOTH"
);
}
);
width = 687;
},
{
layerId = "F7C9FF73-DC1F-4AC6-B1F4-3E0815F912B2";
paths = (
{
closed = 1;
nodes = (
"273 553 OFFCURVE",
"275 574 OFFCURVE",
"275 593 CURVE SMOOTH",
"275 644 OFFCURVE",
"253 660 OFFCURVE",
"201 660 CURVE SMOOTH",
"91 660 LINE",
"86 630 LINE",
"129 630 OFFCURVE",
"143 610 OFFCURVE",
"143 575 CURVE SMOOTH",
"143 564 OFFCURVE",
"141 549 OFFCURVE",
"138 530 CURVE SMOOTH",
"90 254 OFFCURVE",
"86 223 OFFCURVE",
"86 195 CURVE SMOOTH",
"86 58 OFFCURVE",
"156 -10 OFFCURVE",
"313 -10 CURVE SMOOTH",
"513 -10 OFFCURVE",
"598 100 OFFCURVE",
"630 288 CURVE",
"696 660 LINE",
"646 660 LINE",
"580 288 LINE SMOOTH",
"548 110 OFFCURVE",
"480 30 OFFCURVE",
"332 30 CURVE SMOOTH",
"248 30 OFFCURVE",
"213 82 OFFCURVE",
"213 174 CURVE SMOOTH",
"213 199 OFFCURVE",
"216 227 OFFCURVE",
"268 530 CURVE"
);
}
);
width = 697;
}
);
leftKerningGroup = U;
rightKerningGroup = U;
unicode = 0055;
},
{
glyphname = V;
lastChange = "2016-08-26 10:24:29 +0000";
layers = (
{
layerId = UUID0;
paths = (
{
closed = 1;
nodes = (
"221 543 LINE",
"195 657 OFFCURVE",
"119 670 OFFCURVE",
"70 670 CURVE SMOOTH",
"61 670 OFFCURVE",
"40 668 OFFCURVE",
"35 668 CURVE",
"32 648 LINE",
"87 643 OFFCURVE",
"104 619 OFFCURVE",
"123 543 CURVE SMOOTH",
"258 -10 LINE",
"276 -10 LINE",
"681 660 LINE",
"633 660 LINE",
"405 279 OFFCURVE",
"507 448 OFFCURVE",
"321 140 CURVE"
);
}
);
width = 639;
},
{
layerId = "F7C9FF73-DC1F-4AC6-B1F4-3E0815F912B2";
paths = (
{
closed = 1;
nodes = (
"245 -10 LINE",
"285 -10 LINE",
"691 660 LINE",
"640 660 LINE",
"342 169 LINE",
"250 543 LINE",
"221 657 OFFCURVE",
"145 670 OFFCURVE",
"75 670 CURVE SMOOTH",
"66 670 OFFCURVE",
"37 668 OFFCURVE",
"32 668 CURVE",
"29 648 LINE",
"68 643 OFFCURVE",
"90 618 OFFCURVE",
"109 543 CURVE SMOOTH"
);
}
);
width = 637;
}
);
unicode = 0056;
},
{
glyphname = W;
lastChange = "2016-08-26 10:24:29 +0000";
layers = (
{
layerId = UUID0;
paths = (
{
closed = 1;
nodes = (
"218 -10 LINE",
"238 -10 LINE",
"456 411 LINE",
"530 -10 LINE",
"550 -10 LINE",
"897 660 LINE",
"854 660 LINE",
"594 157 LINE",
"528 543 LINE",
"506 659 OFFCURVE",
"437 670 OFFCURVE",
"380 670 CURVE SMOOTH",
"371 670 OFFCURVE",
"350 668 OFFCURVE",
"345 668 CURVE",
"342 648 LINE",
"401 643 OFFCURVE",
"419 619 OFFCURVE",
"433 543 CURVE SMOOTH",
"445 474 LINE",
"282 157 LINE",
"216 543 LINE",
"194 659 OFFCURVE",
"125 670 OFFCURVE",
"68 670 CURVE SMOOTH",
"59 670 OFFCURVE",
"38 668 OFFCURVE",
"33 668 CURVE",
"30 648 LINE",
"89 643 OFFCURVE",
"107 619 OFFCURVE",
"121 543 CURVE"
);
}
);
width = 867;
},
{
layerId = "F7C9FF73-DC1F-4AC6-B1F4-3E0815F912B2";
paths = (
{
closed = 1;
nodes = (
"565 543 LINE",
"541 659 OFFCURVE",
"460 670 OFFCURVE",
"390 670 CURVE SMOOTH",
"381 670 OFFCURVE",
"355 668 OFFCURVE",
"350 668 CURVE",
"347 648 LINE",
"386 643 OFFCURVE",
"418 619 OFFCURVE",
"434 543 CURVE SMOOTH",
"454 454 LINE",
"318 198 LINE",
"244 543 LINE",
"220 659 OFFCURVE",
"138 670 OFFCURVE",
"69 670 CURVE SMOOTH",
"60 670 OFFCURVE",
"31 668 OFFCURVE",
"26 668 CURVE",
"23 648 LINE",
"62 643 OFFCURVE",
"87 619 OFFCURVE",
"103 543 CURVE SMOOTH",
"222 -9 LINE",
"262 -9 LINE",
"468 383 LINE",
"553 -9 LINE",
"593 -9 LINE",
"948 660 LINE",
"900 660 LINE",
"644 179 LINE"
);
}
);
width = 905;
}
);
unicode = 0057;
},
{
glyphname = X;
lastChange = "2016-08-26 10:24:29 +0000";
layers = (
{
layerId = UUID0;
paths = (
{
closed = 1;
nodes = (
"317 290 LINE",
"405 110 LINE SMOOTH",
"429 59 OFFCURVE",
"461 0 OFFCURVE",
"526 0 CURVE SMOOTH",
"631 0 LINE",
"634 20 LINE",
"570 25 OFFCURVE",
"534 80 OFFCURVE",
"508 130 CURVE SMOOTH",
"390 365 LINE",
"667 660 LINE",
"617 660 LINE",
"371 400 LINE",
"297 550 LINE",
"273 601 OFFCURVE",
"241 660 OFFCURVE",
"177 660 CURVE SMOOTH",
"57 660 LINE",
"53 640 LINE",
"141 635 OFFCURVE",
"170 580 OFFCURVE",
"194 530 CURVE",
"298 325 LINE",
"-9 0 LINE",
"41 0 LINE"
);
}
);
width = 663;
},
{
layerId = "F7C9FF73-DC1F-4AC6-B1F4-3E0815F912B2";
paths = (
{
closed = 1;
nodes = (
"307 550 LINE SMOOTH",
"283 601 OFFCURVE",
"239 660 OFFCURVE",
"164 660 CURVE SMOOTH",
"54 660 LINE",
"50 640 LINE",
"94 634 OFFCURVE",
"141 582 OFFCURVE",
"165 530 CURVE SMOOTH",
"268 311 LINE",
"-32 0 LINE",
"33 0 LINE",
"290 266 LINE",
"364 110 LINE SMOOTH",
"388 59 OFFCURVE",
"433 0 OFFCURVE",
"508 0 CURVE SMOOTH",
"618 0 LINE",
"621 20 LINE",
"576 25 OFFCURVE",
"530 78 OFFCURVE",
"506 130 CURVE SMOOTH",
"392 371 LINE",
"672 660 LINE",
"607 660 LINE",
"371 416 LINE"
);
}
);
width = 645;
}
);
unicode = 0058;
},
{
glyphname = Y;
lastChange = "2016-08-26 10:24:29 +0000";
layers = (
{
layerId = UUID0;
paths = (
{
closed = 1;
nodes = (
"259 550 LINE",
"235 605 OFFCURVE",
"203 660 OFFCURVE",
"129 660 CURVE SMOOTH",
"39 660 LINE",
"35 640 LINE",
"105 635 OFFCURVE",
"131 590 OFFCURVE",
"161 530 CURVE SMOOTH",
"286 273 LINE",
"238 0 LINE",
"328 0 LINE",
"377 280 LINE",
"678 660 LINE",
"633 660 LINE",
"365 325 LINE"
);
}
);
width = 629;
},
{
layerId = "F7C9FF73-DC1F-4AC6-B1F4-3E0815F912B2";
paths = (
{
closed = 1;
nodes = (
"285 550 LINE SMOOTH",
"261 601 OFFCURVE",
"217 660 OFFCURVE",
"142 660 CURVE SMOOTH",
"33 660 LINE",
"29 640 LINE",
"72 635 OFFCURVE",
"119 582 OFFCURVE",
"143 530 CURVE",
"273 264 LINE",
"227 0 LINE",
"357 0 LINE",
"408 291 LINE",
"700 660 LINE",
"635 660 LINE",
"385 345 LINE"
);
}
);
width = 639;
}
);
leftKerningGroup = Y;
rightKerningGroup = Y;
unicode = 0059;
},
{
glyphname = Z;
lastChange = "2016-08-26 10:24:29 +0000";
layers = (
{
layerId = UUID0;
paths = (
{
closed = 1;
nodes = (
"209 660 LINE SMOOTH",
"139 660 OFFCURVE",
"118 620 OFFCURVE",
"110 580 CURVE",
"97 505 LINE",
"117 505 LINE",
"132 585 OFFCURVE",
"182 620 OFFCURVE",
"262 620 CURVE SMOOTH",
"502 620 LINE",
"-19 20 LINE",
"-22 0 LINE",
"513 0 LINE",
"520 40 LINE",
"110 40 LINE",
"644 660 LINE"
);
}
);
width = 594;
},
{
layerId = "F7C9FF73-DC1F-4AC6-B1F4-3E0815F912B2";
paths = (
{
closed = 1;
nodes = (
"194 660 LINE SMOOTH",
"124 660 OFFCURVE",
"103 620 OFFCURVE",
"95 580 CURVE",
"80 495 LINE",
"110 495 LINE",
"126 586 OFFCURVE",
"175 616 OFFCURVE",
"246 616 CURVE SMOOTH",
"463 616 LINE",
"-12 32 LINE",
"-17 0 LINE",
"528 0 LINE",
"535 45 LINE",
"148 45 LINE",
"649 660 LINE"
);
}
);
width = 599;
}
);
leftKerningGroup = Z;
rightKerningGroup = Z;
unicode = 005A;
},
{
glyphname = bracketleft;
lastChange = "2016-08-26 10:24:29 +0000";
layers = (
{
layerId = UUID0;
paths = (
{
closed = 1;
nodes = (
"214 -160 LINE",
"79 -160 LINE",
"220 640 LINE",
"355 640 LINE",
"362 680 LINE",
"147 680 LINE",
"-8 -200 LINE",
"75 -200 LINE",
"207 -200 LINE"
);
}
);
width = 317;
},
{
layerId = "F7C9FF73-DC1F-4AC6-B1F4-3E0815F912B2";
paths = (
{
closed = 1;
nodes = (
"236 -155 LINE",
"111 -155 LINE",
"250 635 LINE",
"375 635 LINE",
"383 680 LINE",
"138 680 LINE",
"-17 -200 LINE",
"228 -200 LINE"
);
}
);
width = 332;
}
);
unicode = 005B;
},
{
glyphname = backslash;
lastChange = "2016-08-26 10:24:29 +0000";
layers = (
{
layerId = UUID0;
paths = (
{
closed = 1;
nodes = (
"368 0 LINE",
"163 660 LINE",
"90 660 LINE",
"295 0 LINE"
);
}
);
width = 440;
},
{
layerId = "F7C9FF73-DC1F-4AC6-B1F4-3E0815F912B2";
paths = (
{
closed = 1;
nodes = (
"405 0 LINE",
"200 660 LINE",
"88 660 LINE",
"293 0 LINE"
);
}
);
width = 475;
}
);
unicode = 005C;
},
{
glyphname = bracketright;
lastChange = "2016-08-26 10:24:29 +0000";
layers = (
{
layerId = UUID0;
paths = (
{
closed = 1;
nodes = (
"-57 -200 LINE",
"76 -200 LINE",
"157 -200 LINE",
"312 680 LINE",
"97 680 LINE",
"90 640 LINE",
"225 640 LINE",
"84 -160 LINE",
"-50 -160 LINE"
);
}
);
width = 317;
},
{
layerId = "F7C9FF73-DC1F-4AC6-B1F4-3E0815F912B2";
paths = (
{
closed = 1;
nodes = (
"-64 -200 LINE",
"180 -200 LINE",
"335 680 LINE",
"90 680 LINE",
"82 635 LINE",
"207 635 LINE",
"68 -155 LINE",
"-56 -155 LINE"
);
}
);
width = 332;
}
);
unicode = 005D;
},
{
glyphname = asciicircum;
lastChange = "2016-08-26 10:24:29 +0000";
layers = (
{
layerId = UUID0;
paths = (
{
closed = 1;
nodes = (
"38 330 LINE",
"105 330 LINE",
"308 587 LINE",
"421 330 LINE",
"488 330 LINE",
"334 680 LINE",
"314 680 LINE"
);
}
);
width = 490;
},
{
layerId = "F7C9FF73-DC1F-4AC6-B1F4-3E0815F912B2";
paths = (
{
closed = 1;
nodes = (
"304 680 LINE",
"28 330 LINE",
"126 330 LINE",
"305 557 LINE",
"404 330 LINE",
"502 330 LINE",
"348 680 LINE"
);
}
);
width = 514;
}
);
unicode = 005E;
},
{
glyphname = underscore;
lastChange = "2016-08-26 10:24:29 +0000";
layers = (
{
layerId = UUID0;
paths = (
{
closed = 1;
nodes = (
"370 0 LINE",
"-30 0 LINE",
"-41 -60 LINE",
"359 -60 LINE"
);
}
);
width = 430;
},
{
layerId = "F7C9FF73-DC1F-4AC6-B1F4-3E0815F912B2";
paths = (
{
closed = 1;
nodes = (
"382 0 LINE",
"-38 0 LINE",
"-51 -70 LINE",
"369 -70 LINE"
);
}
);
width = 434;
}
);
unicode = 005F;
},
{
glyphname = grave;
lastChange = "2016-08-26 10:24:29 +0000";
layers = (
{
layerId = UUID0;
paths = (
{
closed = 1;
nodes = (
"174 480 LINE",
"224 480 LINE",
"199 680 LINE",
"99 680 LINE"
);
}
);
width = 200;
},
{
layerId = "F7C9FF73-DC1F-4AC6-B1F4-3E0815F912B2";
paths = (
{
closed = 1;
nodes = (
"167 477 LINE",
"241 477 LINE",
"214 680 LINE",
"89 680 LINE"
);
}
);
width = 227;
}
);
unicode = 0060;
},
{
glyphname = a;
lastChange = "2016-08-26 10:24:29 +0000";
layers = (
{
layerId = UUID0;
paths = (
{
closed = 1;
nodes = (
"347 440 OFFCURVE",
"364 410 OFFCURVE",
"381 380 CURVE",
"329 90 LINE",
"304 59 OFFCURVE",
"274 30 OFFCURVE",
"214 30 CURVE SMOOTH",
"151 30 OFFCURVE",
"127 84 OFFCURVE",
"127 157 CURVE SMOOTH",
"127 258 OFFCURVE",
"173 440 OFFCURVE",
"296 440 CURVE SMOOTH"
);
},
{
closed = 1;
nodes = (
"111 467 OFFCURVE",
"32 301 OFFCURVE",
"32 163 CURVE SMOOTH",
"32 66 OFFCURVE",
"77 -10 OFFCURVE",
"177 -10 CURVE SMOOTH",
"257 -10 OFFCURVE",
"297 20 OFFCURVE",
"321 45 CURVE",
"326 45 LINE",
"354 0 LINE",
"404 0 LINE",
"419 87 LINE",
"486 470 LINE",
"436 470 LINE",
"393 425 LINE",
"388 425 LINE",
"373 450 OFFCURVE",
"342 480 OFFCURVE",
"273 480 CURVE"
);
}
);
width = 525;
},
{
layerId = "F7C9FF73-DC1F-4AC6-B1F4-3E0815F912B2";
paths = (
{
closed = 1;
nodes = (
"327 435 OFFCURVE",
"346 418 OFFCURVE",
"358 402 CURVE SMOOTH",
"365 393 OFFCURVE",
"371 382 OFFCURVE",
"375 370 CURVE",
"327 100 LINE",
"319 87 OFFCURVE",
"310 76 OFFCURVE",
"299 67 CURVE SMOOTH",
"280 51 OFFCURVE",
"257 35 OFFCURVE",
"226 35 CURVE SMOOTH",
"175 35 OFFCURVE",
"156 80 OFFCURVE",
"156 144 CURVE SMOOTH",
"156 227 OFFCURVE",
"192 435 OFFCURVE",
"296 435 CURVE SMOOTH"
);
},
{
closed = 1;
nodes = (
"119 480 OFFCURVE",
"24 309 OFFCURVE",
"24 170 CURVE SMOOTH",
"24 69 OFFCURVE",
"79 -10 OFFCURVE",
"198 -10 CURVE SMOOTH",
"238 -10 OFFCURVE",
"269 2 OFFCURVE",
"290 17 CURVE SMOOTH",
"302 25 OFFCURVE",
"313 34 OFFCURVE",
"322 45 CURVE",
"327 45 LINE",
"355 0 LINE",
"440 0 LINE",
"457 100 LINE",
"522 470 LINE",
"437 470 LINE",
"394 425 LINE",
"389 425 LINE",
"383 435 OFFCURVE",
"375 444 OFFCURVE",
"366 452 CURVE SMOOTH",
"350 467 OFFCURVE",
"324 480 OFFCURVE",
"284 480 CURVE SMOOTH"
);
}
);
width = 550;
}
);
leftKerningGroup = a;
rightKerningGroup = a;
unicode = 0061;
},
{
glyphname = b;
lastChange = "2016-08-26 10:24:29 +0000";
layers = (
{
layerId = UUID0;
paths = (
{
closed = 1;
nodes = (
"187 410 LINE",
"219 425 OFFCURVE",
"256 440 OFFCURVE",
"287 440 CURVE SMOOTH",
"356 440 OFFCURVE",
"383 387 OFFCURVE",
"383 311 CURVE SMOOTH",
"383 214 OFFCURVE",
"341 30 OFFCURVE",
"225 30 CURVE SMOOTH",
"170 30 OFFCURVE",
"145 59 OFFCURVE",
"130 90 CURVE"
);
},
{
closed = 1;
nodes = (
"75 0 LINE",
"117 45 LINE",
"122 45 LINE",
"138 20 OFFCURVE",
"173 -10 OFFCURVE",
"248 -10 CURVE SMOOTH",
"405 -10 OFFCURVE",
"478 181 OFFCURVE",
"478 305 CURVE SMOOTH",
"478 406 OFFCURVE",
"431 480 OFFCURVE",
"324 480 CURVE SMOOTH",
"268 480 OFFCURVE",
"226 465 OFFCURVE",
"194 450 CURVE",
"210 540 LINE SMOOTH",
"214 564 OFFCURVE",
"216 584 OFFCURVE",
"216 599 CURVE SMOOTH",
"216 650 OFFCURVE",
"194 660 OFFCURVE",
"141 660 CURVE SMOOTH",
"51 660 LINE",
"47 640 LINE",
"67 640 LINE SMOOTH",
"111 640 OFFCURVE",
"124 618 OFFCURVE",
"124 583 CURVE SMOOTH",
"124 569 OFFCURVE",
"121 557 OFFCURVE",
"25 0 CURVE"
);
}
);
width = 526;
},
{
layerId = "F7C9FF73-DC1F-4AC6-B1F4-3E0815F912B2";
paths = (
{
closed = 1;
nodes = (
"214 405 LINE",
"240 420 LINE",
"256 427 OFFCURVE",
"279 435 OFFCURVE",
"304 435 CURVE SMOOTH",
"359 435 OFFCURVE",
"378 393 OFFCURVE",
"378 325 CURVE SMOOTH",
"378 241 OFFCURVE",
"347 35 OFFCURVE",
"239 35 CURVE SMOOTH",
"208 35 OFFCURVE",
"189 51 OFFCURVE",
"177 67 CURVE SMOOTH",
"170 76 OFFCURVE",
"164 87 OFFCURVE",
"160 100 CURVE"
);
},
{
closed = 1;
nodes = (
"98 0 LINE",
"140 45 LINE",
"145 45 LINE",
"150 34 OFFCURVE",
"158 25 OFFCURVE",
"168 17 CURVE SMOOTH",
"184 2 OFFCURVE",
"211 -10 OFFCURVE",
"251 -10 CURVE SMOOTH",
"419 -10 OFFCURVE",
"510 156 OFFCURVE",
"510 297 CURVE SMOOTH",
"510 404 OFFCURVE",
"455 480 OFFCURVE",
"332 480 CURVE SMOOTH",
"299 480 OFFCURVE",
"272 472 OFFCURVE",
"253 465 CURVE SMOOTH",
"242 460 OFFCURVE",
"231 455 OFFCURVE",
"222 450 CURVE",
"241 554 OFFCURVE",
"243 577 OFFCURVE",
"243 593 CURVE SMOOTH",
"243 644 OFFCURVE",
"221 660 OFFCURVE",
"169 660 CURVE SMOOTH",
"49 660 LINE",
"44 630 LINE",
"54 630 LINE SMOOTH",
"97 630 OFFCURVE",
"111 610 OFFCURVE",
"111 575 CURVE SMOOTH",
"111 562 OFFCURVE",
"109 546 OFFCURVE",
"13 0 CURVE"
);
}
);
width = 550;
}
);
leftKerningGroup = b;
rightKerningGroup = b;
unicode = 0062;
},
{
glyphname = c;
lastChange = "2016-08-26 10:24:29 +0000";
layers = (
{
layerId = UUID0;
paths = (
{
closed = 1;
nodes = (
"130 480 OFFCURVE",
"32 320 OFFCURVE",
"32 174 CURVE SMOOTH",
"32 68 OFFCURVE",
"87 -10 OFFCURVE",
"215 -10 CURVE SMOOTH",
"295 -10 OFFCURVE",
"359 19 OFFCURVE",
"418 95 CURVE",
"401 110 LINE",
"357 59 OFFCURVE",
"313 30 OFFCURVE",
"242 30 CURVE SMOOTH",
"162 30 OFFCURVE",
"127 87 OFFCURVE",
"127 171 CURVE SMOOTH",
"127 286 OFFCURVE",
"184 440 OFFCURVE",
"314 440 CURVE SMOOTH",
"378 440 OFFCURVE",
"423 408 OFFCURVE",
"423 337 CURVE SMOOTH",
"423 330 OFFCURVE",
"423 323 OFFCURVE",
"422 315 CURVE",
"442 315 LINE",
"443 322 LINE SMOOTH",
"450 358 OFFCURVE",
"454 383 OFFCURVE",
"454 402 CURVE SMOOTH",
"454 478 OFFCURVE",
"353 480 OFFCURVE",
"301 480 CURVE SMOOTH"
);
}
);
width = 484;
},
{
layerId = "F7C9FF73-DC1F-4AC6-B1F4-3E0815F912B2";
paths = (
{
closed = 1;
nodes = (
"392 435 OFFCURVE",
"433 400 OFFCURVE",
"433 329 CURVE SMOOTH",
"433 321 OFFCURVE",
"433 313 OFFCURVE",
"432 305 CURVE",
"462 305 LINE",
"470 346 OFFCURVE",
"475 377 OFFCURVE",
"475 400 CURVE SMOOTH",
"475 479 OFFCURVE",
"369 480 OFFCURVE",
"313 480 CURVE SMOOTH",
"138 480 OFFCURVE",
"25 343 OFFCURVE",
"25 180 CURVE SMOOTH",
"25 72 OFFCURVE",
"88 -10 OFFCURVE",
"227 -10 CURVE SMOOTH",
"343 -10 OFFCURVE",
"402 50 OFFCURVE",
"439 95 CURVE",
"412 118 LINE",
"369 71 OFFCURVE",
"324 35 OFFCURVE",
"255 35 CURVE SMOOTH",
"190 35 OFFCURVE",
"157 76 OFFCURVE",
"157 157 CURVE SMOOTH",
"157 256 OFFCURVE",
"200 435 OFFCURVE",
"320 435 CURVE SMOOTH"
);
}
);
width = 498;
}
);
leftKerningGroup = c;
rightKerningGroup = c;
unicode = 0063;
},
{
glyphname = d;
lastChange = "2016-08-26 10:24:29 +0000";
layers = (
{
layerId = UUID0;
paths = (
{
closed = 1;
nodes = (
"329 90 LINE",
"304 59 OFFCURVE",
"274 30 OFFCURVE",
"214 30 CURVE SMOOTH",
"153 30 OFFCURVE",
"128 81 OFFCURVE",
"128 157 CURVE SMOOTH",
"128 262 OFFCURVE",
"170 440 OFFCURVE",
"296 440 CURVE SMOOTH",
"327 440 OFFCURVE",
"358 425 OFFCURVE",
"386 410 CURVE"
);
},
{
closed = 1;
nodes = (
"404 0 LINE",
"504 564 OFFCURVE",
"505 583 OFFCURVE",
"505 599 CURVE SMOOTH",
"505 650 OFFCURVE",
"483 660 OFFCURVE",
"430 660 CURVE SMOOTH",
"340 660 LINE",
"336 640 LINE",
"356 640 LINE SMOOTH",
"400 640 OFFCURVE",
"413 618 OFFCURVE",
"413 583 CURVE SMOOTH",
"413 569 OFFCURVE",
"412 557 OFFCURVE",
"393 450 CURVE",
"365 465 OFFCURVE",
"329 480 OFFCURVE",
"273 480 CURVE SMOOTH",
"109 480 OFFCURVE",
"33 297 OFFCURVE",
"33 165 CURVE SMOOTH",
"33 64 OFFCURVE",
"78 -10 OFFCURVE",
"177 -10 CURVE SMOOTH",
"257 -10 OFFCURVE",
"297 20 OFFCURVE",
"321 45 CURVE",
"326 45 LINE",
"354 0 LINE"
);
}
);
width = 525;
},
{
layerId = "F7C9FF73-DC1F-4AC6-B1F4-3E0815F912B2";
paths = (
{
closed = 1;
nodes = (
"327 100 LINE",
"319 87 OFFCURVE",
"310 76 OFFCURVE",
"299 67 CURVE SMOOTH",
"280 51 OFFCURVE",
"257 35 OFFCURVE",
"226 35 CURVE SMOOTH",
"175 35 OFFCURVE",
"157 77 OFFCURVE",
"157 144 CURVE SMOOTH",
"157 232 OFFCURVE",
"188 435 OFFCURVE",
"301 435 CURVE SMOOTH",
"326 435 OFFCURVE",
"345 427 OFFCURVE",
"360 420 CURVE",
"368 415 OFFCURVE",
"375 410 OFFCURVE",
"381 405 CURVE"
);
},
{
closed = 1;
nodes = (
"382 455 OFFCURVE",
"373 460 OFFCURVE",
"363 465 CURVE SMOOTH",
"346 472 OFFCURVE",
"321 480 OFFCURVE",
"289 480 CURVE SMOOTH",
"117 480 OFFCURVE",
"25 317 OFFCURVE",
"25 173 CURVE SMOOTH",
"25 66 OFFCURVE",
"81 -10 OFFCURVE",
"198 -10 CURVE SMOOTH",
"238 -10 OFFCURVE",
"269 2 OFFCURVE",
"290 17 CURVE SMOOTH",
"302 25 OFFCURVE",
"313 34 OFFCURVE",
"322 45 CURVE",
"327 45 LINE",
"355 0 LINE",
"440 0 LINE",
"536 555 OFFCURVE",
"540 576 OFFCURVE",
"540 593 CURVE SMOOTH",
"540 644 OFFCURVE",
"518 660 OFFCURVE",
"466 660 CURVE SMOOTH",
"346 660 LINE",
"341 630 LINE",
"351 630 LINE SMOOTH",
"394 630 OFFCURVE",
"408 610 OFFCURVE",
"408 575 CURVE SMOOTH",
"408 562 OFFCURVE",
"405 547 OFFCURVE",
"389 450 CURVE"
);
}
);
width = 550;
}
);
leftKerningGroup = c;
unicode = 0064;
},
{
glyphname = e;
lastChange = "2016-08-26 10:24:29 +0000";
layers = (
{
layerId = UUID0;
paths = (
{
closed = 1;
nodes = (
"247 200 LINE",
"356 200 OFFCURVE",
"458 257 OFFCURVE",
"458 366 CURVE SMOOTH",
"458 430 OFFCURVE",
"410 480 OFFCURVE",
"291 480 CURVE SMOOTH",
"125 480 OFFCURVE",
"32 312 OFFCURVE",
"32 173 CURVE SMOOTH",
"32 69 OFFCURVE",
"88 -10 OFFCURVE",
"205 -10 CURVE SMOOTH",
"281 -10 OFFCURVE",
"344 19 OFFCURVE",
"403 95 CURVE",
"386 110 LINE",
"342 59 OFFCURVE",
"297 30 OFFCURVE",
"232 30 CURVE SMOOTH",
"160 30 OFFCURVE",
"123 87 OFFCURVE",
"123 159 CURVE SMOOTH",
"123 172 OFFCURVE",
"124 185 OFFCURVE",
"127 200 CURVE"
);
},
{
closed = 1;
nodes = (
"134 240 LINE",
"157 365 OFFCURVE",
"213 440 OFFCURVE",
"284 440 CURVE SMOOTH",
"335 440 OFFCURVE",
"363 411 OFFCURVE",
"363 364 CURVE SMOOTH",
"363 292 OFFCURVE",
"313 243 OFFCURVE",
"249 240 CURVE"
);
}
);
width = 487;
},
{
layerId = "F7C9FF73-DC1F-4AC6-B1F4-3E0815F912B2";
paths = (
{
closed = 1;
nodes = (
"167 245 LINE",
"191 388 OFFCURVE",
"240 435 OFFCURVE",
"295 435 CURVE SMOOTH",
"326 435 OFFCURVE",
"355 413 OFFCURVE",
"355 362 CURVE SMOOTH",
"355 310 OFFCURVE",
"325 245 OFFCURVE",
"272 245 CURVE SMOOTH"
);
},
{
closed = 1;
nodes = (
"490 434 OFFCURVE",
"422 480 OFFCURVE",
"303 480 CURVE SMOOTH",
"132 480 OFFCURVE",
"25 333 OFFCURVE",
"25 182 CURVE SMOOTH",
"25 69 OFFCURVE",
"95 -10 OFFCURVE",
"217 -10 CURVE SMOOTH",
"327 -10 OFFCURVE",
"387 50 OFFCURVE",
"424 95 CURVE",
"397 118 LINE",
"354 71 OFFCURVE",
"309 35 OFFCURVE",
"240 35 CURVE SMOOTH",
"187 35 OFFCURVE",
"153 71 OFFCURVE",
"153 144 CURVE SMOOTH",
"153 160 OFFCURVE",
"155 179 OFFCURVE",
"159 200 CURVE",
"264 200 LINE SMOOTH",
"372 200 OFFCURVE",
"490 243 OFFCURVE",
"490 358 CURVE SMOOTH"
);
}
);
width = 508;
}
);
leftKerningGroup = c;
rightKerningGroup = e;
unicode = 0065;
},
{
glyphname = f;
lastChange = "2016-08-26 10:24:29 +0000";
layers = (
{
layerId = UUID0;
paths = (
{
closed = 1;
nodes = (
"47 25 LINE SMOOTH",
"26 -96 OFFCURVE",
"-17 -170 OFFCURVE",
"-81 -170 CURVE",
"-85 -190 LINE",
"58 -190 OFFCURVE",
"110 -125 OFFCURVE",
"137 25 CURVE SMOOTH",
"208 430 LINE",
"348 430 LINE",
"355 470 LINE",
"215 470 LINE",
"221 500 LINE SMOOTH",
"241 599 OFFCURVE",
"279 630 OFFCURVE",
"324 630 CURVE SMOOTH",
"369 630 OFFCURVE",
"396 616 OFFCURVE",
"411 585 CURVE",
"445 610 LINE",
"439 631 OFFCURVE",
"430 646 OFFCURVE",
"418 655 CURVE SMOOTH",
"405 665 OFFCURVE",
"377 670 OFFCURVE",
"336 670 CURVE SMOOTH",
"252 670 OFFCURVE",
"158 639 OFFCURVE",
"131 500 CURVE SMOOTH",
"125 470 LINE",
"55 470 LINE",
"48 430 LINE",
"118 430 LINE"
);
}
);
width = 340;
},
{
layerId = "F7C9FF73-DC1F-4AC6-B1F4-3E0815F912B2";
paths = (
{
closed = 1;
nodes = (
"29 25 LINE SMOOTH",
"5 -111 OFFCURVE",
"-31 -154 OFFCURVE",
"-92 -165 CURVE",
"-96 -190 LINE",
"68 -190 OFFCURVE",
"130 -140 OFFCURVE",
"159 25 CURVE SMOOTH",
"229 425 LINE",
"359 425 LINE",
"367 470 LINE",
"237 470 LINE",
"242 497 LINE SMOOTH",
"259 594 OFFCURVE",
"290 625 OFFCURVE",
"335 625 CURVE SMOOTH",
"370 625 OFFCURVE",
"396 606 OFFCURVE",
"411 575 CURVE",
"457 610 LINE",
"452 629 OFFCURVE",
"441 643 OFFCURVE",
"426 653 CURVE SMOOTH",
"410 664 OFFCURVE",
"373 670 OFFCURVE",
"338 670 CURVE SMOOTH",
"207 670 OFFCURVE",
"132 610 OFFCURVE",
"112 497 CURVE SMOOTH",
"107 470 LINE",
"47 470 LINE",
"39 425 LINE",
"99 425 LINE"
);
}
);
width = 345;
}
);
unicode = 0066;
},
{
glyphname = g;
lastChange = "2016-08-26 10:24:29 +0000";
layers = (
{
layerId = UUID0;
paths = (
{
closed = 1;
nodes = (
"325 70 LINE",
"292 55 OFFCURVE",
"256 40 OFFCURVE",
"225 40 CURVE SMOOTH",
"156 40 OFFCURVE",
"128 93 OFFCURVE",
"128 168 CURVE SMOOTH",
"128 264 OFFCURVE",
"170 440 OFFCURVE",
"285 440 CURVE SMOOTH",
"340 440 OFFCURVE",
"365 409 OFFCURVE",
"380 380 CURVE"
);
},
{
closed = 1;
nodes = (
"485 470 LINE",
"435 470 LINE",
"392 425 LINE",
"387 425 LINE",
"372 450 OFFCURVE",
"337 480 OFFCURVE",
"262 480 CURVE SMOOTH",
"108 480 OFFCURVE",
"34 297 OFFCURVE",
"34 174 CURVE SMOOTH",
"34 75 OFFCURVE",
"81 0 OFFCURVE",
"188 0 CURVE SMOOTH",
"244 0 OFFCURVE",
"285 15 OFFCURVE",
"318 30 CURVE",
"317 25 LINE SMOOTH",
"297 -91 OFFCURVE",
"240 -160 OFFCURVE",
"164 -160 CURVE SMOOTH",
"93 -160 OFFCURVE",
"60 -131 OFFCURVE",
"33 -80 CURVE",
"11 -95 LINE",
"43 -171 OFFCURVE",
"97 -200 OFFCURVE",
"177 -200 CURVE SMOOTH",
"297 -200 OFFCURVE",
"383 -111 OFFCURVE",
"407 25 CURVE SMOOTH"
);
}
);
width = 524;
},
{
layerId = "F7C9FF73-DC1F-4AC6-B1F4-3E0815F912B2";
paths = (
{
closed = 1;
nodes = (
"324 85 LINE",
"316 79 OFFCURVE",
"307 74 OFFCURVE",
"298 70 CURVE SMOOTH",
"282 62 OFFCURVE",
"259 55 OFFCURVE",
"234 55 CURVE SMOOTH",
"179 55 OFFCURVE",
"159 94 OFFCURVE",
"159 158 CURVE SMOOTH",
"159 243 OFFCURVE",
"189 435 OFFCURVE",
"296 435 CURVE SMOOTH",
"327 435 OFFCURVE",
"346 418 OFFCURVE",
"358 402 CURVE SMOOTH",
"365 393 OFFCURVE",
"371 382 OFFCURVE",
"375 370 CURVE"
);
},
{
closed = 1;
nodes = (
"522 470 LINE",
"437 470 LINE",
"394 425 LINE",
"389 425 LINE",
"383 435 OFFCURVE",
"375 444 OFFCURVE",
"366 452 CURVE SMOOTH",
"350 467 OFFCURVE",
"324 480 OFFCURVE",
"284 480 CURVE SMOOTH",
"119 480 OFFCURVE",
"27 325 OFFCURVE",
"27 185 CURVE SMOOTH",
"27 81 OFFCURVE",
"83 10 OFFCURVE",
"206 10 CURVE SMOOTH",
"238 10 OFFCURVE",
"266 17 OFFCURVE",
"286 25 CURVE SMOOTH",
"298 29 OFFCURVE",
"308 34 OFFCURVE",
"317 40 CURVE",
"316 35 LINE SMOOTH",
"292 -100 OFFCURVE",
"234 -155 OFFCURVE",
"162 -155 CURVE SMOOTH",
"97 -155 OFFCURVE",
"65 -118 OFFCURVE",
"38 -72 CURVE",
"3 -95 LINE",
"24 -140 OFFCURVE",
"64 -200 OFFCURVE",
"174 -200 CURVE SMOOTH",
"322 -200 OFFCURVE",
"422 -105 OFFCURVE",
"446 35 CURVE SMOOTH"
);
}
);
width = 550;
}
);
leftKerningGroup = g;
rightKerningGroup = g;
unicode = 0067;
},
{
glyphname = h;
lastChange = "2016-08-26 10:24:29 +0000";
layers = (
{
layerId = UUID0;
paths = (
{
closed = 1;
nodes = (
"214 564 OFFCURVE",
"216 583 OFFCURVE",
"216 599 CURVE SMOOTH",
"216 650 OFFCURVE",
"194 660 OFFCURVE",
"141 660 CURVE SMOOTH",
"51 660 LINE",
"47 640 LINE",
"67 640 LINE SMOOTH",
"111 640 OFFCURVE",
"124 618 OFFCURVE",
"124 583 CURVE SMOOTH",
"124 569 OFFCURVE",
"121 557 OFFCURVE",
"25 0 CURVE",
"115 0 LINE",
"182 382 LINE",
"213 410 OFFCURVE",
"251 435 OFFCURVE",
"291 435 CURVE SMOOTH",
"338 435 OFFCURVE",
"381 409 OFFCURVE",
"381 339 CURVE SMOOTH",
"381 328 OFFCURVE",
"381 313 OFFCURVE",
"325 0 CURVE",
"415 0 LINE",
"471 320 OFFCURVE",
"472 336 OFFCURVE",
"472 352 CURVE SMOOTH",
"472 454 OFFCURVE",
"403 480 OFFCURVE",
"329 480 CURVE SMOOTH",
"269 480 OFFCURVE",
"221 455 OFFCURVE",
"190 430 CURVE"
);
}
);
width = 532;
},
{
layerId = "F7C9FF73-DC1F-4AC6-B1F4-3E0815F912B2";
paths = (
{
closed = 1;
nodes = (
"12 0 LINE",
"142 0 LINE",
"211 395 LINE",
"219 401 OFFCURVE",
"228 407 OFFCURVE",
"237 412 CURVE SMOOTH",
"253 421 OFFCURVE",
"274 430 OFFCURVE",
"297 430 CURVE SMOOTH",
"336 430 OFFCURVE",
"368 407 OFFCURVE",
"368 340 CURVE SMOOTH",
"368 326 OFFCURVE",
"366 311 OFFCURVE",
"312 0 CURVE",
"442 0 LINE",
"498 314 OFFCURVE",
"498 329 OFFCURVE",
"498 344 CURVE SMOOTH",
"498 452 OFFCURVE",
"417 480 OFFCURVE",
"336 480 CURVE SMOOTH",
"303 480 OFFCURVE",
"274 470 OFFCURVE",
"253 461 CURVE SMOOTH",
"241 455 OFFCURVE",
"230 449 OFFCURVE",
"219 442 CURVE",
"235 530 LINE",
"240 553 OFFCURVE",
"242 574 OFFCURVE",
"242 593 CURVE SMOOTH",
"242 644 OFFCURVE",
"220 660 OFFCURVE",
"168 660 CURVE SMOOTH",
"48 660 LINE",
"43 630 LINE",
"53 630 LINE SMOOTH",
"96 630 OFFCURVE",
"110 610 OFFCURVE",
"110 575 CURVE SMOOTH",
"110 564 OFFCURVE",
"108 549 OFFCURVE",
"105 530 CURVE SMOOTH"
);
}
);
width = 546;
}
);
leftKerningGroup = b;
rightKerningGroup = h;
unicode = 0068;
},
{
glyphname = i;
lastChange = "2016-08-26 10:24:29 +0000";
layers = (
{
layerId = UUID0;
paths = (
{
closed = 1;
nodes = (
"132 0 LINE",
"196 375 OFFCURVE",
"200 393 OFFCURVE",
"200 409 CURVE SMOOTH",
"200 458 OFFCURVE",
"177 470 OFFCURVE",
"124 470 CURVE SMOOTH",
"34 470 LINE",
"31 450 LINE",
"51 450 LINE SMOOTH",
"94 450 OFFCURVE",
"108 430 OFFCURVE",
"108 395 CURVE SMOOTH",
"108 382 OFFCURVE",
"106 367 OFFCURVE",
"42 0 CURVE"
);
},
{
closed = 1;
nodes = (
"228 616 OFFCURVE",
"209 639 OFFCURVE",
"182 639 CURVE SMOOTH",
"147 639 OFFCURVE",
"127 613 OFFCURVE",
"127 582 CURVE SMOOTH",
"127 553 OFFCURVE",
"146 530 OFFCURVE",
"173 530 CURVE SMOOTH",
"208 530 OFFCURVE",
"228 556 OFFCURVE",
"228 587 CURVE SMOOTH"
);
}
);
width = 251;
},
{
layerId = "F7C9FF73-DC1F-4AC6-B1F4-3E0815F912B2";
paths = (
{
closed = 1;
nodes = (
"256 629 OFFCURVE",
"236 656 OFFCURVE",
"193 656 CURVE SMOOTH",
"152 656 OFFCURVE",
"127 620 OFFCURVE",
"127 584 CURVE SMOOTH",
"127 551 OFFCURVE",
"147 524 OFFCURVE",
"190 524 CURVE SMOOTH",
"237 524 OFFCURVE",
"256 557 OFFCURVE",
"256 596 CURVE SMOOTH"
);
},
{
closed = 1;
nodes = (
"33 0 LINE",
"163 0 LINE",
"222 340 LINE SMOOTH",
"226 365 OFFCURVE",
"229 386 OFFCURVE",
"229 403 CURVE SMOOTH",
"229 454 OFFCURVE",
"207 470 OFFCURVE",
"155 470 CURVE SMOOTH",
"35 470 LINE",
"30 440 LINE",
"40 440 LINE SMOOTH",
"83 440 OFFCURVE",
"97 420 OFFCURVE",
"97 385 CURVE SMOOTH",
"97 374 OFFCURVE",
"95 359 OFFCURVE",
"92 340 CURVE SMOOTH"
);
}
);
width = 271;
}
);
leftKerningGroup = i;
rightKerningGroup = i;
unicode = 0069;
},
{
glyphname = j;
lastChange = "2016-08-26 10:24:29 +0000";
layers = (
{
layerId = UUID0;
paths = (
{
closed = 1;
nodes = (
"25 -96 OFFCURVE",
"-18 -170 OFFCURVE",
"-82 -170 CURVE",
"-86 -190 LINE",
"57 -190 OFFCURVE",
"109 -125 OFFCURVE",
"136 25 CURVE",
"196 375 OFFCURVE",
"200 392 OFFCURVE",
"200 409 CURVE SMOOTH",
"200 458 OFFCURVE",
"177 470 OFFCURVE",
"124 470 CURVE SMOOTH",
"34 470 LINE",
"31 450 LINE",
"51 450 LINE SMOOTH",
"94 450 OFFCURVE",
"108 430 OFFCURVE",
"108 395 CURVE SMOOTH",
"108 383 OFFCURVE",
"106 366 OFFCURVE",
"46 25 CURVE SMOOTH"
);
},
{
closed = 1;
nodes = (
"228 616 OFFCURVE",
"209 639 OFFCURVE",
"182 639 CURVE SMOOTH",
"147 639 OFFCURVE",
"127 613 OFFCURVE",
"127 582 CURVE SMOOTH",
"127 553 OFFCURVE",
"146 530 OFFCURVE",
"173 530 CURVE SMOOTH",
"208 530 OFFCURVE",
"228 556 OFFCURVE",
"228 587 CURVE SMOOTH"
);
}
);
width = 251;
},
{
layerId = "F7C9FF73-DC1F-4AC6-B1F4-3E0815F912B2";
paths = (
{
closed = 1;
nodes = (
"13 -111 OFFCURVE",
"-23 -154 OFFCURVE",
"-84 -165 CURVE",
"-88 -190 LINE",
"76 -190 OFFCURVE",
"138 -140 OFFCURVE",
"167 25 CURVE SMOOTH",
"227 365 OFFCURVE",
"229 387 OFFCURVE",
"229 403 CURVE SMOOTH",
"229 454 OFFCURVE",
"207 470 OFFCURVE",
"155 470 CURVE SMOOTH",
"35 470 LINE",
"30 440 LINE",
"40 440 LINE SMOOTH",
"83 440 OFFCURVE",
"97 420 OFFCURVE",
"97 385 CURVE SMOOTH",
"97 371 OFFCURVE",
"93 358 OFFCURVE",
"37 25 CURVE"
);
},
{
closed = 1;
nodes = (
"256 629 OFFCURVE",
"236 656 OFFCURVE",
"193 656 CURVE SMOOTH",
"152 656 OFFCURVE",
"127 620 OFFCURVE",
"127 584 CURVE SMOOTH",
"127 551 OFFCURVE",
"147 524 OFFCURVE",
"190 524 CURVE SMOOTH",
"231 524 OFFCURVE",
"256 560 OFFCURVE",
"256 596 CURVE SMOOTH"
);
}
);
width = 270;
}
);
leftKerningGroup = i;
rightKerningGroup = i;
unicode = 006A;
},
{
glyphname = k;
lastChange = "2016-08-26 10:24:29 +0000";
layers = (
{
layerId = UUID0;
paths = (
{
closed = 1;
nodes = (
"209 540 LINE SMOOTH",
"213 564 OFFCURVE",
"215 584 OFFCURVE",
"215 599 CURVE SMOOTH",
"215 650 OFFCURVE",
"193 660 OFFCURVE",
"140 660 CURVE SMOOTH",
"50 660 LINE",
"46 640 LINE",
"66 640 LINE SMOOTH",
"110 640 OFFCURVE",
"123 618 OFFCURVE",
"123 583 CURVE SMOOTH",
"123 570 OFFCURVE",
"122 556 OFFCURVE",
"119 540 CURVE SMOOTH",
"24 0 LINE",
"114 0 LINE",
"154 230 LINE",
"246 70 LINE SMOOTH",
"281 10 OFFCURVE",
"326 -10 OFFCURVE",
"377 -10 CURVE SMOOTH",
"397 -10 OFFCURVE",
"418 -5 OFFCURVE",
"429 0 CURVE",
"432 19 LINE",
"393 26 OFFCURVE",
"367 49 OFFCURVE",
"336 100 CURVE SMOOTH",
"239 260 LINE",
"374 400 LINE SMOOTH",
"405 431 OFFCURVE",
"442 445 OFFCURVE",
"477 445 CURVE",
"481 470 LINE",
"451 470 LINE SMOOTH",
"386 470 OFFCURVE",
"347 444 OFFCURVE",
"310 405 CURVE SMOOTH",
"157 245 LINE"
);
}
);
width = 485;
},
{
layerId = "F7C9FF73-DC1F-4AC6-B1F4-3E0815F912B2";
paths = (
{
closed = 1;
nodes = (
"251 70 LINE",
"284 10 OFFCURVE",
"330 -10 OFFCURVE",
"386 -10 CURVE SMOOTH",
"411 -10 OFFCURVE",
"446 -5 OFFCURVE",
"457 0 CURVE",
"461 24 LINE",
"433 30 OFFCURVE",
"406 55 OFFCURVE",
"381 100 CURVE",
"279 276 LINE",
"397 394 LINE SMOOTH",
"432 429 OFFCURVE",
"466 444 OFFCURVE",
"506 444 CURVE",
"510 470 LINE",
"490 470 LINE SMOOTH",
"420 470 OFFCURVE",
"382 442 OFFCURVE",
"333 393 CURVE SMOOTH",
"186 245 LINE",
"242 554 OFFCURVE",
"243 576 OFFCURVE",
"243 593 CURVE SMOOTH",
"243 644 OFFCURVE",
"221 660 OFFCURVE",
"169 660 CURVE SMOOTH",
"49 660 LINE",
"44 630 LINE",
"54 630 LINE SMOOTH",
"97 630 OFFCURVE",
"111 610 OFFCURVE",
"111 575 CURVE SMOOTH",
"111 562 OFFCURVE",
"109 546 OFFCURVE",
"13 0 CURVE",
"143 0 LINE",
"177 196 LINE"
);
}
);
width = 507;
}
);
leftKerningGroup = b;
unicode = 006B;
},
{
glyphname = l;
lastChange = "2016-08-26 10:24:29 +0000";
layers = (
{
layerId = UUID0;
paths = (
{
closed = 1;
nodes = (
"119 0 LINE",
"219 564 OFFCURVE",
"220 583 OFFCURVE",
"220 599 CURVE SMOOTH",
"220 650 OFFCURVE",
"198 660 OFFCURVE",
"145 660 CURVE SMOOTH",
"55 660 LINE",
"51 640 LINE",
"71 640 LINE SMOOTH",
"115 640 OFFCURVE",
"128 618 OFFCURVE",
"128 583 CURVE SMOOTH",
"128 569 OFFCURVE",
"125 557 OFFCURVE",
"29 0 CURVE"
);
}
);
width = 244;
},
{
layerId = "F7C9FF73-DC1F-4AC6-B1F4-3E0815F912B2";
paths = (
{
closed = 1;
nodes = (
"147 0 LINE",
"243 555 OFFCURVE",
"247 576 OFFCURVE",
"247 593 CURVE SMOOTH",
"247 644 OFFCURVE",
"225 660 OFFCURVE",
"173 660 CURVE SMOOTH",
"53 660 LINE",
"48 630 LINE",
"58 630 LINE SMOOTH",
"101 630 OFFCURVE",
"115 610 OFFCURVE",
"115 575 CURVE SMOOTH",
"115 562 OFFCURVE",
"113 546 OFFCURVE",
"17 0 CURVE"
);
}
);
width = 261;
}
);
unicode = 006C;
},
{
glyphname = m;
lastChange = "2016-08-26 10:24:29 +0000";
layers = (
{
layerId = UUID0;
paths = (
{
closed = 1;
nodes = (
"202 430 LINE",
"197 455 OFFCURVE",
"175 470 OFFCURVE",
"124 470 CURVE SMOOTH",
"34 470 LINE",
"31 450 LINE",
"51 450 LINE SMOOTH",
"94 450 OFFCURVE",
"108 430 OFFCURVE",
"108 395 CURVE SMOOTH",
"108 382 OFFCURVE",
"106 367 OFFCURVE",
"42 0 CURVE",
"132 0 LINE",
"199 382 LINE",
"230 410 OFFCURVE",
"268 435 OFFCURVE",
"308 435 CURVE SMOOTH",
"347 435 OFFCURVE",
"370 414 OFFCURVE",
"370 358 CURVE SMOOTH",
"370 343 OFFCURVE",
"368 321 OFFCURVE",
"312 0 CURVE",
"402 0 LINE",
"458 317 OFFCURVE",
"462 347 OFFCURVE",
"462 363 CURVE SMOOTH",
"462 370 LINE",
"486 400 OFFCURVE",
"539 435 OFFCURVE",
"578 435 CURVE SMOOTH",
"617 435 OFFCURVE",
"640 414 OFFCURVE",
"640 358 CURVE SMOOTH",
"640 343 OFFCURVE",
"638 321 OFFCURVE",
"582 0 CURVE",
"672 0 LINE",
"728 324 OFFCURVE",
"730 345 OFFCURVE",
"730 363 CURVE SMOOTH",
"730 456 OFFCURVE",
"679 480 OFFCURVE",
"616 480 CURVE SMOOTH",
"560 480 OFFCURVE",
"497 455 OFFCURVE",
"454 410 CURVE",
"438 465 OFFCURVE",
"395 480 OFFCURVE",
"346 480 CURVE SMOOTH",
"286 480 OFFCURVE",
"238 455 OFFCURVE",
"207 430 CURVE"
);
}
);
width = 789;
},
{
layerId = "F7C9FF73-DC1F-4AC6-B1F4-3E0815F912B2";
paths = (
{
closed = 1;
nodes = (
"213 432 LINE",
"204 460 OFFCURVE",
"174 470 OFFCURVE",
"134 470 CURVE SMOOTH",
"35 470 LINE",
"30 440 LINE",
"40 440 LINE SMOOTH",
"83 440 OFFCURVE",
"96 421 OFFCURVE",
"96 386 CURVE SMOOTH",
"96 373 OFFCURVE",
"92 357 OFFCURVE",
"32 0 CURVE",
"162 0 LINE",
"226 351 OFFCURVE",
"224 363 OFFCURVE",
"224 372 CURVE SMOOTH",
"224 379 OFFCURVE",
"223 382 OFFCURVE",
"223 385 CURVE SMOOTH",
"223 390 LINE",
"239 407 OFFCURVE",
"276 430 OFFCURVE",
"307 430 CURVE SMOOTH",
"343 430 OFFCURVE",
"369 408 OFFCURVE",
"369 348 CURVE SMOOTH",
"369 333 OFFCURVE",
"368 316 OFFCURVE",
"312 0 CURVE",
"442 0 LINE",
"498 321 OFFCURVE",
"500 338 OFFCURVE",
"500 354 CURVE SMOOTH",
"500 367 OFFCURVE",
"498 376 OFFCURVE",
"497 383 CURVE SMOOTH",
"495 392 LINE",
"515 413 OFFCURVE",
"550 430 OFFCURVE",
"587 430 CURVE SMOOTH",
"623 430 OFFCURVE",
"649 408 OFFCURVE",
"649 348 CURVE SMOOTH",
"649 333 OFFCURVE",
"648 316 OFFCURVE",
"592 0 CURVE",
"722 0 LINE",
"778 315 OFFCURVE",
"779 332 OFFCURVE",
"779 348 CURVE SMOOTH",
"779 440 OFFCURVE",
"726 480 OFFCURVE",
"631 480 CURVE SMOOTH",
"554 480 OFFCURVE",
"510 452 OFFCURVE",
"479 423 CURVE",
"466 441 OFFCURVE",
"425 480 OFFCURVE",
"351 480 CURVE SMOOTH",
"291 480 OFFCURVE",
"244 453 OFFCURVE",
"217 432 CURVE"
);
}
);
width = 827;
}
);
leftKerningGroup = m;
rightKerningGroup = h;
unicode = 006D;
},
{
glyphname = n;
lastChange = "2016-08-26 10:24:29 +0000";
layers = (
{
layerId = UUID0;
paths = (
{
closed = 1;
nodes = (
"132 0 LINE",
"199 382 LINE",
"230 410 OFFCURVE",
"268 435 OFFCURVE",
"308 435 CURVE SMOOTH",
"355 435 OFFCURVE",
"398 409 OFFCURVE",
"398 339 CURVE SMOOTH",
"398 328 OFFCURVE",
"398 313 OFFCURVE",
"342 0 CURVE",
"432 0 LINE",
"488 320 OFFCURVE",
"489 336 OFFCURVE",
"489 352 CURVE SMOOTH",
"489 454 OFFCURVE",
"420 480 OFFCURVE",
"346 480 CURVE SMOOTH",
"286 480 OFFCURVE",
"238 455 OFFCURVE",
"207 430 CURVE",
"202 430 LINE",
"197 455 OFFCURVE",
"175 470 OFFCURVE",
"124 470 CURVE SMOOTH",
"34 470 LINE",
"31 450 LINE",
"51 450 LINE SMOOTH",
"94 450 OFFCURVE",
"108 430 OFFCURVE",
"108 395 CURVE SMOOTH",
"108 382 OFFCURVE",
"106 367 OFFCURVE",
"42 0 CURVE"
);
}
);
width = 549;
},
{
layerId = "F7C9FF73-DC1F-4AC6-B1F4-3E0815F912B2";
paths = (
{
closed = 1;
nodes = (
"367 430 OFFCURVE",
"398 407 OFFCURVE",
"398 343 CURVE SMOOTH",
"398 328 OFFCURVE",
"397 312 OFFCURVE",
"394 297 CURVE SMOOTH",
"342 0 LINE",
"472 0 LINE",
"524 296 LINE SMOOTH",
"527 315 OFFCURVE",
"529 332 OFFCURVE",
"529 348 CURVE SMOOTH",
"529 440 OFFCURVE",
"474 480 OFFCURVE",
"366 480 CURVE SMOOTH",
"285 480 OFFCURVE",
"239 456 OFFCURVE",
"212 433 CURVE",
"201 460 OFFCURVE",
"179 470 OFFCURVE",
"134 470 CURVE SMOOTH",
"35 470 LINE",
"30 440 LINE",
"40 440 LINE SMOOTH",
"83 440 OFFCURVE",
"96 420 OFFCURVE",
"96 387 CURVE SMOOTH",
"96 374 OFFCURVE",
"94 359 OFFCURVE",
"91 340 CURVE SMOOTH",
"32 0 LINE",
"162 0 LINE",
"223 346 LINE SMOOTH",
"226 362 OFFCURVE",
"227 380 OFFCURVE",
"225 399 CURVE",
"245 416 OFFCURVE",
"279 430 OFFCURVE",
"322 430 CURVE SMOOTH"
);
}
);
width = 577;
}
);
leftKerningGroup = m;
rightKerningGroup = h;
unicode = 006E;
},
{
glyphname = o;
lastChange = "2016-08-26 10:24:29 +0000";
layers = (
{
layerId = UUID0;
paths = (
{
closed = 1;
nodes = (
"160 30 OFFCURVE",
"126 89 OFFCURVE",
"126 173 CURVE SMOOTH",
"126 268 OFFCURVE",
"181 440 OFFCURVE",
"293 440 CURVE SMOOTH",
"354 440 OFFCURVE",
"388 381 OFFCURVE",
"388 297 CURVE SMOOTH",
"388 202 OFFCURVE",
"333 30 OFFCURVE",
"221 30 CURVE SMOOTH"
);
},
{
closed = 1;
nodes = (
"32 71 OFFCURVE",
"94 -10 OFFCURVE",
"214 -10 CURVE SMOOTH",
"379 -10 OFFCURVE",
"482 149 OFFCURVE",
"482 291 CURVE SMOOTH",
"482 399 OFFCURVE",
"420 480 OFFCURVE",
"300 480 CURVE SMOOTH",
"135 480 OFFCURVE",
"32 321 OFFCURVE",
"32 179 CURVE SMOOTH"
);
}
);
width = 529;
},
{
layerId = "F7C9FF73-DC1F-4AC6-B1F4-3E0815F912B2";
paths = (
{
closed = 1;
nodes = (
"181 35 OFFCURVE",
"157 82 OFFCURVE",
"157 157 CURVE SMOOTH",
"157 246 OFFCURVE",
"195 435 OFFCURVE",
"304 435 CURVE SMOOTH",
"357 435 OFFCURVE",
"381 388 OFFCURVE",
"381 313 CURVE SMOOTH",
"381 224 OFFCURVE",
"343 35 OFFCURVE",
"234 35 CURVE SMOOTH"
);
},
{
closed = 1;
nodes = (
"24 72 OFFCURVE",
"94 -10 OFFCURVE",
"226 -10 CURVE SMOOTH",
"393 -10 OFFCURVE",
"514 136 OFFCURVE",
"514 286 CURVE SMOOTH",
"514 398 OFFCURVE",
"444 480 OFFCURVE",
"312 480 CURVE SMOOTH",
"145 480 OFFCURVE",
"24 334 OFFCURVE",
"24 184 CURVE SMOOTH"
);
}
);
width = 553;
}
);
leftKerningGroup = c;
rightKerningGroup = b;
unicode = 006F;
},
{
glyphname = p;
lastChange = "2016-08-26 10:24:29 +0000";
layers = (
{
layerId = UUID0;
paths = (
{
closed = 1;
nodes = (
"199 380 LINE",
"224 411 OFFCURVE",
"258 440 OFFCURVE",
"314 440 CURVE SMOOTH",
"375 440 OFFCURVE",
"400 389 OFFCURVE",
"400 313 CURVE SMOOTH",
"400 208 OFFCURVE",
"358 30 OFFCURVE",
"232 30 CURVE SMOOTH",
"201 30 OFFCURVE",
"169 45 OFFCURVE",
"142 60 CURVE"
);
},
{
closed = 1;
nodes = (
"98 -190 LINE",
"135 20 LINE",
"162 5 OFFCURVE",
"199 -10 OFFCURVE",
"255 -10 CURVE SMOOTH",
"419 -10 OFFCURVE",
"495 173 OFFCURVE",
"495 305 CURVE SMOOTH",
"495 406 OFFCURVE",
"450 480 OFFCURVE",
"351 480 CURVE SMOOTH",
"275 480 OFFCURVE",
"231 450 OFFCURVE",
"206 425 CURVE",
"201 425 LINE",
"197 456 OFFCURVE",
"175 470 OFFCURVE",
"124 470 CURVE SMOOTH",
"34 470 LINE",
"31 450 LINE",
"51 450 LINE SMOOTH",
"94 450 OFFCURVE",
"108 430 OFFCURVE",
"108 395 CURVE SMOOTH",
"108 382 OFFCURVE",
"104 367 OFFCURVE",
"8 -190 CURVE"
);
}
);
width = 543;
},
{
layerId = "F7C9FF73-DC1F-4AC6-B1F4-3E0815F912B2";
paths = (
{
closed = 1;
nodes = (
"287 480 OFFCURVE",
"238 450 OFFCURVE",
"211 428 CURVE",
"203 460 OFFCURVE",
"179 470 OFFCURVE",
"134 470 CURVE SMOOTH",
"35 470 LINE",
"30 440 LINE",
"40 440 LINE SMOOTH",
"83 440 OFFCURVE",
"96 421 OFFCURVE",
"96 386 CURVE SMOOTH",
"96 373 OFFCURVE",
"94 357 OFFCURVE",
"-2 -190 CURVE",
"128 -190 LINE",
"165 20 LINE",
"172 14 OFFCURVE",
"181 9 OFFCURVE",
"191 5 CURVE SMOOTH",
"208 -3 OFFCURVE",
"232 -10 OFFCURVE",
"265 -10 CURVE SMOOTH",
"427 -10 OFFCURVE",
"529 141 OFFCURVE",
"529 297 CURVE SMOOTH",
"529 404 OFFCURVE",
"473 480 OFFCURVE",
"356 480 CURVE SMOOTH"
);
},
{
closed = 1;
nodes = (
"379 435 OFFCURVE",
"397 393 OFFCURVE",
"397 326 CURVE SMOOTH",
"397 246 OFFCURVE",
"366 35 OFFCURVE",
"253 35 CURVE SMOOTH",
"228 35 OFFCURVE",
"209 42 OFFCURVE",
"194 50 CURVE SMOOTH",
"186 54 OFFCURVE",
"179 59 OFFCURVE",
"173 65 CURVE",
"225 357 OFFCURVE",
"225 367 OFFCURVE",
"225 375 CURVE SMOOTH",
"225 382 OFFCURVE",
"224 386 OFFCURVE",
"224 389 CURVE SMOOTH",
"224 394 LINE",
"244 411 OFFCURVE",
"277 435 OFFCURVE",
"328 435 CURVE SMOOTH"
);
}
);
width = 569;
}
);
leftKerningGroup = m;
rightKerningGroup = b;
unicode = 0070;
},
{
glyphname = q;
lastChange = "2016-08-26 10:24:29 +0000";
layers = (
{
layerId = UUID0;
paths = (
{
closed = 1;
nodes = (
"323 60 LINE",
"290 45 OFFCURVE",
"254 30 OFFCURVE",
"223 30 CURVE SMOOTH",
"154 30 OFFCURVE",
"127 83 OFFCURVE",
"127 159 CURVE SMOOTH",
"127 256 OFFCURVE",
"169 440 OFFCURVE",
"285 440 CURVE SMOOTH",
"340 440 OFFCURVE",
"365 409 OFFCURVE",
"380 380 CURVE"
);
},
{
closed = 1;
nodes = (
"279 -190 LINE",
"369 -190 LINE",
"485 470 LINE",
"435 470 LINE",
"392 425 LINE",
"387 425 LINE",
"372 450 OFFCURVE",
"337 480 OFFCURVE",
"262 480 CURVE SMOOTH",
"106 480 OFFCURVE",
"32 289 OFFCURVE",
"32 165 CURVE SMOOTH",
"32 64 OFFCURVE",
"79 -10 OFFCURVE",
"186 -10 CURVE SMOOTH",
"242 -10 OFFCURVE",
"283 5 OFFCURVE",
"316 20 CURVE"
);
}
);
width = 524;
},
{
layerId = "F7C9FF73-DC1F-4AC6-B1F4-3E0815F912B2";
paths = (
{
closed = 1;
nodes = (
"320 65 LINE",
"312 59 OFFCURVE",
"303 54 OFFCURVE",
"294 50 CURVE SMOOTH",
"278 42 OFFCURVE",
"255 35 OFFCURVE",
"230 35 CURVE SMOOTH",
"175 35 OFFCURVE",
"156 77 OFFCURVE",
"156 145 CURVE SMOOTH",
"156 229 OFFCURVE",
"187 435 OFFCURVE",
"295 435 CURVE SMOOTH",
"326 435 OFFCURVE",
"345 418 OFFCURVE",
"357 402 CURVE SMOOTH",
"364 393 OFFCURVE",
"370 382 OFFCURVE",
"374 370 CURVE"
);
},
{
closed = 1;
nodes = (
"521 470 LINE",
"436 470 LINE",
"393 425 LINE",
"388 425 LINE",
"382 435 OFFCURVE",
"374 444 OFFCURVE",
"365 452 CURVE SMOOTH",
"349 467 OFFCURVE",
"323 480 OFFCURVE",
"283 480 CURVE SMOOTH",
"115 480 OFFCURVE",
"24 314 OFFCURVE",
"24 173 CURVE SMOOTH",
"24 66 OFFCURVE",
"79 -10 OFFCURVE",
"202 -10 CURVE SMOOTH",
"234 -10 OFFCURVE",
"262 -3 OFFCURVE",
"281 5 CURVE SMOOTH",
"292 9 OFFCURVE",
"303 14 OFFCURVE",
"312 20 CURVE",
"275 -190 LINE",
"405 -190 LINE"
);
}
);
width = 549;
}
);
leftKerningGroup = c;
rightKerningGroup = q;
unicode = 0071;
},
{
glyphname = r;
lastChange = "2016-08-26 10:24:29 +0000";
layers = (
{
layerId = UUID0;
paths = (
{
closed = 1;
nodes = (
"126 0 LINE",
"191 370 LINE",
"216 401 OFFCURVE",
"255 420 OFFCURVE",
"295 420 CURVE SMOOTH",
"330 420 OFFCURVE",
"358 410 OFFCURVE",
"369 390 CURVE",
"415 420 LINE",
"408 440 OFFCURVE",
"402 454 OFFCURVE",
"387 465 CURVE SMOOTH",
"374 476 OFFCURVE",
"350 480 OFFCURVE",
"330 480 CURVE SMOOTH",
"270 480 OFFCURVE",
"225 450 OFFCURVE",
"200 425 CURVE",
"195 425 LINE",
"191 456 OFFCURVE",
"169 470 OFFCURVE",
"118 470 CURVE SMOOTH",
"38 470 LINE",
"35 450 LINE",
"45 450 LINE SMOOTH",
"88 450 OFFCURVE",
"102 430 OFFCURVE",
"102 395 CURVE SMOOTH",
"102 382 OFFCURVE",
"100 367 OFFCURVE",
"36 0 CURVE"
);
}
);
width = 403;
},
{
layerId = "F7C9FF73-DC1F-4AC6-B1F4-3E0815F912B2";
paths = (
{
closed = 1;
nodes = (
"286 480 OFFCURVE",
"240 454 OFFCURVE",
"212 433 CURVE",
"201 460 OFFCURVE",
"179 470 OFFCURVE",
"134 470 CURVE SMOOTH",
"35 470 LINE",
"30 440 LINE",
"40 440 LINE SMOOTH",
"83 440 OFFCURVE",
"96 421 OFFCURVE",
"96 386 CURVE SMOOTH",
"96 373 OFFCURVE",
"92 357 OFFCURVE",
"32 0 CURVE",
"162 0 LINE",
"221 336 LINE",
"224 348 OFFCURVE",
"223 360 OFFCURVE",
"224 369 CURVE SMOOTH",
"224 374 OFFCURVE",
"224 379 OFFCURVE",
"225 384 CURVE",
"245 401 OFFCURVE",
"277 415 OFFCURVE",
"320 415 CURVE SMOOTH",
"343 415 OFFCURVE",
"357 406 OFFCURVE",
"368 395 CURVE SMOOTH",
"374 389 OFFCURVE",
"379 383 OFFCURVE",
"382 376 CURVE",
"440 415 LINE",
"440 414 OFFCURVE",
"433 444 OFFCURVE",
"414 460 CURVE SMOOTH",
"398 473 OFFCURVE",
"375 480 OFFCURVE",
"346 480 CURVE SMOOTH"
);
}
);
width = 420;
}
);
leftKerningGroup = m;
unicode = 0072;
},
{
glyphname = s;
lastChange = "2016-08-26 10:24:29 +0000";
layers = (
{
layerId = UUID0;
paths = (
{
closed = 1;
nodes = (
"380 199 OFFCURVE",
"341 229 OFFCURVE",
"272 260 CURVE SMOOTH",
"217 285 LINE SMOOTH",
"174 304 OFFCURVE",
"151 329 OFFCURVE",
"151 360 CURVE SMOOTH",
"151 420 OFFCURVE",
"220 440 OFFCURVE",
"264 440 CURVE SMOOTH",
"344 440 OFFCURVE",
"381 401 OFFCURVE",
"381 337 CURVE SMOOTH",
"381 335 LINE",
"401 335 LINE",
"404 356 OFFCURVE",
"408 377 OFFCURVE",
"408 397 CURVE SMOOTH",
"408 474 OFFCURVE",
"304 480 OFFCURVE",
"251 480 CURVE SMOOTH",
"158 480 OFFCURVE",
"61 425 OFFCURVE",
"61 329 CURVE SMOOTH",
"61 277 OFFCURVE",
"98 242 OFFCURVE",
"159 215 CURVE SMOOTH",
"215 190 LINE SMOOTH",
"266 167 OFFCURVE",
"290 146 OFFCURVE",
"290 113 CURVE SMOOTH",
"290 49 OFFCURVE",
"214 30 OFFCURVE",
"167 30 CURVE SMOOTH",
"83 30 OFFCURVE",
"45 69 OFFCURVE",
"45 133 CURVE SMOOTH",
"45 135 LINE",
"25 135 LINE",
"21 111 OFFCURVE",
"17 92 OFFCURVE",
"17 75 CURVE SMOOTH",
"17 -6 OFFCURVE",
"124 -10 OFFCURVE",
"180 -10 CURVE SMOOTH",
"278 -10 OFFCURVE",
"380 44 OFFCURVE",
"380 144 CURVE SMOOTH"
);
}
);
width = 449;
},
{
layerId = "F7C9FF73-DC1F-4AC6-B1F4-3E0815F912B2";
paths = (
{
closed = 1;
nodes = (
"88 35 OFFCURVE",
"57 84 OFFCURVE",
"57 147 CURVE SMOOTH",
"57 150 LINE",
"22 150 LINE",
"17 122 OFFCURVE",
"13 98 OFFCURVE",
"13 75 CURVE SMOOTH",
"13 -6 OFFCURVE",
"122 -10 OFFCURVE",
"179 -10 CURVE SMOOTH",
"283 -10 OFFCURVE",
"409 34 OFFCURVE",
"409 147 CURVE SMOOTH",
"409 203 OFFCURVE",
"369 235 OFFCURVE",
"294 268 CURVE SMOOTH",
"238 293 LINE SMOOTH",
"201 309 OFFCURVE",
"179 327 OFFCURVE",
"179 356 CURVE SMOOTH",
"179 411 OFFCURVE",
"233 435 OFFCURVE",
"277 435 CURVE SMOOTH",
"356 435 OFFCURVE",
"387 386 OFFCURVE",
"387 323 CURVE SMOOTH",
"387 320 LINE",
"422 320 LINE",
"427 348 OFFCURVE",
"431 372 OFFCURVE",
"431 395 CURVE SMOOTH",
"431 476 OFFCURVE",
"322 480 OFFCURVE",
"265 480 CURVE SMOOTH",
"165 480 OFFCURVE",
"50 433 OFFCURVE",
"50 325 CURVE SMOOTH",
"50 272 OFFCURVE",
"90 237 OFFCURVE",
"155 206 CURVE SMOOTH",
"203 184 LINE SMOOTH",
"246 164 OFFCURVE",
"280 144 OFFCURVE",
"280 111 CURVE SMOOTH",
"280 52 OFFCURVE",
"213 35 OFFCURVE",
"167 35 CURVE SMOOTH"
);
}
);
width = 469;
}
);
leftKerningGroup = s;
rightKerningGroup = s;
unicode = 0073;
},
{
glyphname = t;
lastChange = "2016-08-26 10:24:29 +0000";
layers = (
{
layerId = UUID0;
paths = (
{
closed = 1;
nodes = (
"116 430 LINE",
"60 107 OFFCURVE",
"59 96 OFFCURVE",
"59 85 CURVE SMOOTH",
"59 20 OFFCURVE",
"99 -10 OFFCURVE",
"159 -10 CURVE SMOOTH",
"230 -10 OFFCURVE",
"268 15 OFFCURVE",
"291 30 CURVE",
"284 50 LINE",
"263 39 OFFCURVE",
"241 30 OFFCURVE",
"206 30 CURVE SMOOTH",
"168 30 OFFCURVE",
"149 50 OFFCURVE",
"149 90 CURVE SMOOTH",
"149 99 OFFCURVE",
"150 109 OFFCURVE",
"206 430 CURVE",
"326 430 LINE",
"333 470 LINE",
"213 470 LINE",
"240 620 LINE",
"200 620 LINE",
"139 560 LINE",
"123 470 LINE",
"53 470 LINE",
"46 430 LINE"
);
}
);
width = 336;
},
{
layerId = "F7C9FF73-DC1F-4AC6-B1F4-3E0815F912B2";
paths = (
{
closed = 1;
nodes = (
"273 620 LINE",
"193 620 LINE",
"132 560 LINE",
"116 470 LINE",
"56 470 LINE",
"48 425 LINE",
"108 425 LINE",
"56 122 OFFCURVE",
"54 110 OFFCURVE",
"54 99 CURVE SMOOTH",
"54 27 OFFCURVE",
"98 -10 OFFCURVE",
"177 -10 CURVE SMOOTH",
"222 -10 OFFCURVE",
"256 1 OFFCURVE",
"279 12 CURVE SMOOTH",
"292 19 OFFCURVE",
"304 26 OFFCURVE",
"314 34 CURVE",
"305 62 LINE",
"297 57 OFFCURVE",
"289 52 OFFCURVE",
"280 48 CURVE SMOOTH",
"265 41 OFFCURVE",
"243 35 OFFCURVE",
"222 35 CURVE SMOOTH",
"197 35 OFFCURVE",
"181 47 OFFCURVE",
"181 86 CURVE SMOOTH",
"181 98 OFFCURVE",
"182 112 OFFCURVE",
"238 425 CURVE",
"348 425 LINE",
"356 470 LINE",
"246 470 LINE"
);
}
);
width = 355;
}
);
unicode = 0074;
},
{
glyphname = u;
lastChange = "2016-08-26 10:24:29 +0000";
layers = (
{
layerId = UUID0;
paths = (
{
closed = 1;
nodes = (
"498 470 LINE",
"408 470 LINE",
"341 88 LINE",
"310 60 OFFCURVE",
"272 35 OFFCURVE",
"232 35 CURVE SMOOTH",
"185 35 OFFCURVE",
"142 60 OFFCURVE",
"142 132 CURVE SMOOTH",
"142 143 OFFCURVE",
"142 156 OFFCURVE",
"177 350 CURVE SMOOTH",
"181 374 OFFCURVE",
"184 393 OFFCURVE",
"184 409 CURVE SMOOTH",
"184 458 OFFCURVE",
"161 470 OFFCURVE",
"108 470 CURVE SMOOTH",
"28 470 LINE",
"25 450 LINE",
"35 450 LINE SMOOTH",
"78 450 OFFCURVE",
"92 430 OFFCURVE",
"92 395 CURVE SMOOTH",
"92 384 OFFCURVE",
"90 369 OFFCURVE",
"87 350 CURVE SMOOTH",
"52 150 OFFCURVE",
"50 136 OFFCURVE",
"50 120 CURVE SMOOTH",
"50 17 OFFCURVE",
"119 -10 OFFCURVE",
"194 -10 CURVE SMOOTH",
"254 -10 OFFCURVE",
"302 15 OFFCURVE",
"333 40 CURVE",
"338 40 LINE",
"366 0 LINE",
"416 0 LINE"
);
}
);
width = 537;
},
{
layerId = "F7C9FF73-DC1F-4AC6-B1F4-3E0815F912B2";
paths = (
{
closed = 1;
nodes = (
"49 154 OFFCURVE",
"47 136 OFFCURVE",
"47 119 CURVE SMOOTH",
"47 28 OFFCURVE",
"98 -10 OFFCURVE",
"205 -10 CURVE SMOOTH",
"245 -10 OFFCURVE",
"278 2 OFFCURVE",
"302 17 CURVE SMOOTH",
"315 25 OFFCURVE",
"328 34 OFFCURVE",
"339 45 CURVE",
"344 45 LINE",
"372 0 LINE",
"457 0 LINE",
"539 470 LINE",
"409 470 LINE",
"344 100 LINE",
"336 87 OFFCURVE",
"327 76 OFFCURVE",
"316 67 CURVE SMOOTH",
"297 51 OFFCURVE",
"274 35 OFFCURVE",
"243 35 CURVE SMOOTH",
"200 35 OFFCURVE",
"176 55 OFFCURVE",
"176 114 CURVE SMOOTH",
"176 130 OFFCURVE",
"179 150 OFFCURVE",
"211 340 CURVE",
"216 363 OFFCURVE",
"218 384 OFFCURVE",
"218 403 CURVE SMOOTH",
"218 454 OFFCURVE",
"196 470 OFFCURVE",
"144 470 CURVE SMOOTH",
"24 470 LINE",
"19 440 LINE",
"29 440 LINE SMOOTH",
"72 440 OFFCURVE",
"86 420 OFFCURVE",
"86 385 CURVE SMOOTH",
"86 374 OFFCURVE",
"84 359 OFFCURVE",
"81 340 CURVE SMOOTH"
);
}
);
width = 567;
}
);
leftKerningGroup = u;
rightKerningGroup = q;
unicode = 0075;
},
{
glyphname = v;
lastChange = "2016-08-26 10:24:29 +0000";
layers = (
{
layerId = UUID0;
paths = (
{
closed = 1;
nodes = (
"210 355 LINE",
"183 459 OFFCURVE",
"122 480 OFFCURVE",
"62 480 CURVE SMOOTH",
"53 480 OFFCURVE",
"33 478 OFFCURVE",
"28 478 CURVE",
"24 458 LINE",
"72 455 OFFCURVE",
"92 429 OFFCURVE",
"110 355 CURVE SMOOTH",
"201 -10 LINE",
"221 -10 LINE",
"510 470 LINE",
"460 470 LINE",
"262 140 LINE"
);
}
);
width = 498;
},
{
layerId = "F7C9FF73-DC1F-4AC6-B1F4-3E0815F912B2";
paths = (
{
closed = 1;
nodes = (
"193 -10 LINE",
"229 -10 LINE",
"526 470 LINE",
"472 470 LINE",
"282 163 LINE",
"228 355 LINE SMOOTH",
"199 459 OFFCURVE",
"139 480 OFFCURVE",
"58 480 CURVE SMOOTH",
"49 480 OFFCURVE",
"26 478 OFFCURVE",
"21 478 CURVE",
"17 458 LINE",
"50 455 OFFCURVE",
"67 428 OFFCURVE",
"88 355 CURVE SMOOTH"
);
}
);
width = 502;
}
);
unicode = 0076;
},
{
glyphname = w;
lastChange = "2016-08-26 10:24:29 +0000";
layers = (
{
layerId = UUID0;
paths = (
{
closed = 1;
nodes = (
"475 355 LINE SMOOTH",
"453 455 OFFCURVE",
"396 480 OFFCURVE",
"332 480 CURVE SMOOTH",
"323 480 OFFCURVE",
"302 478 OFFCURVE",
"297 478 CURVE",
"293 458 LINE",
"338 455 OFFCURVE",
"357 429 OFFCURVE",
"376 360 CURVE",
"253 145 LINE",
"205 355 LINE SMOOTH",
"183 455 OFFCURVE",
"126 480 OFFCURVE",
"62 480 CURVE SMOOTH",
"53 480 OFFCURVE",
"32 478 OFFCURVE",
"27 478 CURVE",
"23 458 LINE",
"72 455 OFFCURVE",
"93 430 OFFCURVE",
"110 355 CURVE SMOOTH",
"191 -10 LINE",
"211 -10 LINE",
"390 300 LINE",
"461 -10 LINE",
"481 -10 LINE",
"760 470 LINE",
"710 470 LINE",
"523 145 LINE"
);
}
);
width = 749;
},
{
layerId = "F7C9FF73-DC1F-4AC6-B1F4-3E0815F912B2";
paths = (
{
closed = 1;
nodes = (
"506 355 LINE SMOOTH",
"479 453 OFFCURVE",
"422 480 OFFCURVE",
"336 480 CURVE SMOOTH",
"327 480 OFFCURVE",
"303 478 OFFCURVE",
"298 478 CURVE",
"294 459 LINE",
"323 456 OFFCURVE",
"344 428 OFFCURVE",
"364 355 CURVE SMOOTH",
"373 324 LINE",
"277 164 LINE",
"226 355 LINE SMOOTH",
"200 453 OFFCURVE",
"150 480 OFFCURVE",
"66 480 CURVE SMOOTH",
"57 480 OFFCURVE",
"23 478 OFFCURVE",
"18 478 CURVE",
"14 459 LINE",
"49 456 OFFCURVE",
"69 430 OFFCURVE",
"89 355 CURVE SMOOTH",
"188 -10 LINE",
"233 -10 LINE",
"398 271 LINE",
"479 -10 LINE",
"525 -10 LINE",
"793 470 LINE",
"740 470 LINE",
"563 154 LINE"
);
}
);
width = 776;
}
);
unicode = 0077;
},
{
glyphname = x;
lastChange = "2016-08-26 10:24:29 +0000";
layers = (
{
layerId = UUID0;
paths = (
{
closed = 1;
nodes = (
"246 80 LINE SMOOTH",
"266 31 OFFCURVE",
"300 0 OFFCURVE",
"345 0 CURVE SMOOTH",
"435 0 LINE",
"438 20 LINE",
"395 25 OFFCURVE",
"364 51 OFFCURVE",
"344 100 CURVE SMOOTH",
"283 245 LINE",
"482 470 LINE",
"432 470 LINE",
"270 285 LINE",
"226 390 LINE SMOOTH",
"206 439 OFFCURVE",
"172 470 OFFCURVE",
"127 470 CURVE SMOOTH",
"42 470 LINE",
"39 450 LINE",
"78 445 OFFCURVE",
"108 418 OFFCURVE",
"128 370 CURVE SMOOTH",
"189 225 LINE",
"-10 0 LINE",
"40 0 LINE",
"202 185 LINE"
);
}
);
width = 490;
},
{
layerId = "F7C9FF73-DC1F-4AC6-B1F4-3E0815F912B2";
paths = (
{
closed = 1;
nodes = (
"-25 0 LINE",
"42 0 LINE",
"201 161 LINE",
"236 80 LINE",
"256 31 OFFCURVE",
"285 0 OFFCURVE",
"350 0 CURVE SMOOTH",
"445 0 LINE",
"448 20 LINE",
"419 25 OFFCURVE",
"389 52 OFFCURVE",
"369 100 CURVE SMOOTH",
"301 262 LINE",
"506 470 LINE",
"439 470 LINE",
"280 309 LINE",
"246 390 LINE SMOOTH",
"226 439 OFFCURVE",
"197 470 OFFCURVE",
"132 470 CURVE SMOOTH",
"37 470 LINE",
"34 450 LINE",
"63 445 OFFCURVE",
"93 418 OFFCURVE",
"113 370 CURVE SMOOTH",
"180 209 LINE"
);
}
);
width = 497;
}
);
unicode = 0078;
},
{
glyphname = y;
lastChange = "2016-08-26 10:24:29 +0000";
layers = (
{
layerId = UUID0;
paths = (
{
closed = 1;
nodes = (
"176 -65 LINE SMOOTH",
"131 -151 OFFCURVE",
"82 -170 OFFCURVE",
"23 -170 CURVE",
"17 -200 LINE",
"47 -200 LINE SMOOTH",
"117 -200 OFFCURVE",
"167 -175 OFFCURVE",
"226 -65 CURVE SMOOTH",
"515 470 LINE",
"465 470 LINE",
"278 123 LINE",
"213 400 LINE SMOOTH",
"201 451 OFFCURVE",
"167 480 OFFCURVE",
"107 480 CURVE SMOOTH",
"22 480 LINE",
"19 460 LINE",
"68 455 OFFCURVE",
"103 431 OFFCURVE",
"115 380 CURVE SMOOTH",
"206 -10 LINE"
);
}
);
width = 514;
},
{
layerId = "F7C9FF73-DC1F-4AC6-B1F4-3E0815F912B2";
paths = (
{
closed = 1;
nodes = (
"522 470 LINE",
"469 470 LINE",
"291 148 LINE",
"220 400 LINE",
"205 449 OFFCURVE",
"164 480 OFFCURVE",
"104 480 CURVE SMOOTH",
"16 480 LINE",
"13 460 LINE",
"52 455 OFFCURVE",
"77 431 OFFCURVE",
"92 380 CURVE",
"202 -14 LINE",
"172 -68 LINE",
"127 -144 OFFCURVE",
"80 -165 OFFCURVE",
"10 -165 CURVE",
"4 -200 LINE",
"44 -200 LINE SMOOTH",
"115 -200 OFFCURVE",
"165 -173 OFFCURVE",
"226 -65 CURVE"
);
}
);
width = 509;
}
);
leftKerningGroup = y;
rightKerningGroup = y;
unicode = 0079;
},
{
glyphname = z;
lastChange = "2016-08-26 10:24:29 +0000";
layers = (
{
layerId = UUID0;
paths = (
{
closed = 1;
nodes = (
"164 470 LINE SMOOTH",
"94 470 OFFCURVE",
"73 430 OFFCURVE",
"65 390 CURVE SMOOTH",
"56 340 LINE",
"76 340 LINE",
"87 396 OFFCURVE",
"132 430 OFFCURVE",
"217 430 CURVE SMOOTH",
"332 430 LINE",
"0 19 LINE",
"-3 0 LINE",
"387 0 LINE",
"394 40 LINE",
"124 40 LINE",
"469 470 LINE"
);
}
);
width = 468;
},
{
layerId = "F7C9FF73-DC1F-4AC6-B1F4-3E0815F912B2";
paths = (
{
closed = 1;
nodes = (
"159 470 LINE SMOOTH",
"89 470 OFFCURVE",
"68 430 OFFCURVE",
"60 390 CURVE",
"50 330 LINE",
"80 330 LINE",
"91 395 OFFCURVE",
"126 425 OFFCURVE",
"211 425 CURVE SMOOTH",
"329 425 LINE",
"-3 31 LINE",
"-8 0 LINE",
"412 0 LINE",
"419 45 LINE",
"156 45 LINE",
"515 470 LINE"
);
}
);
width = 495;
}
);
leftKerningGroup = z;
rightKerningGroup = z;
unicode = 007A;
},
{
glyphname = braceleft;
lastChange = "2016-08-26 10:24:29 +0000";
layers = (
{
layerId = UUID0;
paths = (
{
closed = 1;
nodes = (
"1 225 LINE",
"62 217 OFFCURVE",
"84 180 OFFCURVE",
"84 137 CURVE SMOOTH",
"84 62 OFFCURVE",
"52 -2 OFFCURVE",
"52 -69 CURVE SMOOTH",
"52 -138 OFFCURVE",
"92 -185 OFFCURVE",
"189 -210 CURVE",
"195 -180 LINE",
"142 -164 OFFCURVE",
"126 -144 OFFCURVE",
"126 -105 CURVE SMOOTH",
"126 -22 OFFCURVE",
"163 57 OFFCURVE",
"163 137 CURVE SMOOTH",
"163 193 OFFCURVE",
"135 223 OFFCURVE",
"79 240 CURVE",
"152 260 OFFCURVE",
"194 300 OFFCURVE",
"209 380 CURVE",
"238 550 LINE SMOOTH",
"249 610 OFFCURVE",
"269 639 OFFCURVE",
"343 660 CURVE",
"348 690 LINE",
"223 659 OFFCURVE",
"167 601 OFFCURVE",
"151 510 CURVE SMOOTH",
"127 370 LINE",
"116 314 OFFCURVE",
"83 266 OFFCURVE",
"6 255 CURVE"
);
}
);
width = 304;
},
{
layerId = "F7C9FF73-DC1F-4AC6-B1F4-3E0815F912B2";
paths = (
{
closed = 1;
nodes = (
"194 263 OFFCURVE",
"238 304 OFFCURVE",
"251 380 CURVE SMOOTH",
"281 552 LINE SMOOTH",
"292 612 OFFCURVE",
"312 648 OFFCURVE",
"359 656 CURVE",
"365 691 LINE",
"224 680 OFFCURVE",
"159 601 OFFCURVE",
"143 510 CURVE SMOOTH",
"119 370 LINE",
"108 315 OFFCURVE",
"75 267 OFFCURVE",
"-1 256 CURVE",
"-7 224 LINE",
"54 216 OFFCURVE",
"75 179 OFFCURVE",
"75 136 CURVE SMOOTH",
"75 68 OFFCURVE",
"44 1 OFFCURVE",
"44 -68 CURVE SMOOTH",
"44 -142 OFFCURVE",
"88 -203 OFFCURVE",
"206 -211 CURVE",
"212 -176 LINE",
"180 -169 OFFCURVE",
"167 -149 OFFCURVE",
"167 -113 CURVE SMOOTH",
"167 -32 OFFCURVE",
"204 46 OFFCURVE",
"204 132 CURVE SMOOTH",
"204 185 OFFCURVE",
"171 221 OFFCURVE",
"106 240 CURVE"
);
}
);
width = 312;
}
);
unicode = 007B;
},
{
glyphname = bar;
lastChange = "2016-08-26 10:24:29 +0000";
layers = (
{
layerId = UUID0;
paths = (
{
closed = 1;
nodes = (
"147 680 LINE",
"-6 -190 LINE",
"84 -190 LINE",
"237 680 LINE"
);
}
);
width = 242;
},
{
layerId = "F7C9FF73-DC1F-4AC6-B1F4-3E0815F912B2";
paths = (
{
closed = 1;
nodes = (
"138 680 LINE",
"-15 -190 LINE",
"115 -190 LINE",
"268 680 LINE"
);
}
);
width = 264;
}
);
unicode = 007C;
},
{
glyphname = braceright;
lastChange = "2016-08-26 10:24:29 +0000";
layers = (
{
layerId = UUID0;
paths = (
{
closed = 1;
nodes = (
"289 255 LINE",
"229 263 OFFCURVE",
"207 299 OFFCURVE",
"207 342 CURVE SMOOTH",
"207 414 OFFCURVE",
"238 480 OFFCURVE",
"238 549 CURVE SMOOTH",
"238 617 OFFCURVE",
"198 665 OFFCURVE",
"101 690 CURVE",
"96 660 LINE",
"147 644 OFFCURVE",
"165 623 OFFCURVE",
"165 586 CURVE SMOOTH",
"165 500 OFFCURVE",
"128 422 OFFCURVE",
"128 342 CURVE SMOOTH",
"128 286 OFFCURVE",
"156 257 OFFCURVE",
"212 240 CURVE",
"137 220 OFFCURVE",
"97 180 OFFCURVE",
"82 100 CURVE",
"52 -70 LINE SMOOTH",
"42 -129 OFFCURVE",
"21 -161 OFFCURVE",
"-51 -180 CURVE",
"-57 -210 LINE",
"68 -179 OFFCURVE",
"123 -121 OFFCURVE",
"139 -30 CURVE SMOOTH",
"164 110 LINE",
"175 166 OFFCURVE",
"207 214 OFFCURVE",
"284 225 CURVE"
);
}
);
width = 304;
},
{
layerId = "F7C9FF73-DC1F-4AC6-B1F4-3E0815F912B2";
paths = (
{
closed = 1;
nodes = (
"105 217 OFFCURVE",
"61 176 OFFCURVE",
"48 100 CURVE SMOOTH",
"18 -72 LINE SMOOTH",
"7 -132 OFFCURVE",
"-13 -168 OFFCURVE",
"-60 -176 CURVE",
"-66 -211 LINE",
"75 -200 OFFCURVE",
"139 -121 OFFCURVE",
"155 -30 CURVE SMOOTH",
"180 110 LINE",
"189 165 OFFCURVE",
"223 213 OFFCURVE",
"300 224 CURVE",
"306 256 LINE",
"245 264 OFFCURVE",
"223 299 OFFCURVE",
"223 342 CURVE SMOOTH",
"223 413 OFFCURVE",
"254 478 OFFCURVE",
"254 548 CURVE SMOOTH",
"254 622 OFFCURVE",
"210 683 OFFCURVE",
"92 691 CURVE",
"86 656 LINE",
"119 649 OFFCURVE",
"132 628 OFFCURVE",
"132 592 CURVE SMOOTH",
"132 507 OFFCURVE",
"95 430 OFFCURVE",
"95 348 CURVE SMOOTH",
"95 295 OFFCURVE",
"128 259 OFFCURVE",
"193 240 CURVE"
);
}
);
width = 312;
}
);
unicode = 007D;
},
{
glyphname = asciitilde;
lastChange = "2016-08-26 10:24:29 +0000";
layers = (
{
layerId = UUID0;
paths = (
{
closed = 1;
nodes = (
"493 180 OFFCURVE",
"560 220 OFFCURVE",
"579 320 CURVE",
"539 320 LINE",
"532 280 OFFCURVE",
"498 250 OFFCURVE",
"447 250 CURVE SMOOTH",
"368 250 OFFCURVE",
"290 330 OFFCURVE",
"191 330 CURVE SMOOTH",
"131 330 OFFCURVE",
"65 290 OFFCURVE",
"46 190 CURVE",
"86 190 LINE",
"93 230 OFFCURVE",
"127 260 OFFCURVE",
"178 260 CURVE SMOOTH",
"258 260 OFFCURVE",
"334 180 OFFCURVE",
"434 180 CURVE SMOOTH"
);
}
);
width = 632;
},
{
layerId = "F7C9FF73-DC1F-4AC6-B1F4-3E0815F912B2";
paths = (
{
closed = 1;
nodes = (
"101 343 OFFCURVE",
"55 291 OFFCURVE",
"36 187 CURVE",
"76 187 LINE",
"84 227 OFFCURVE",
"111 247 OFFCURVE",
"167 247 CURVE SMOOTH",
"244 247 OFFCURVE",
"323 167 OFFCURVE",
"423 167 CURVE SMOOTH",
"506 167 OFFCURVE",
"551 219 OFFCURVE",
"570 323 CURVE",
"530 323 LINE",
"523 283 OFFCURVE",
"496 263 OFFCURVE",
"440 263 CURVE SMOOTH",
"363 263 OFFCURVE",
"283 343 OFFCURVE",
"184 343 CURVE SMOOTH"
);
}
);
width = 614;
}
);
unicode = 007E;
},
{
glyphname = exclamdown;
lastChange = "2016-08-26 10:24:29 +0000";
layers = (
{
layerId = UUID0;
paths = (
{
closed = 1;
nodes = (
"146 311 LINE",
"88 311 LINE",
"-19 -194 LINE",
"75 -194 LINE"
);
},
{
closed = 1;
nodes = (
"163 372 OFFCURVE",
"192 404 OFFCURVE",
"192 435 CURVE SMOOTH",
"192 462 OFFCURVE",
"174 480 OFFCURVE",
"147 480 CURVE SMOOTH",
"114 480 OFFCURVE",
"82 448 OFFCURVE",
"82 417 CURVE SMOOTH",
"82 392 OFFCURVE",
"101 372 OFFCURVE",
"128 372 CURVE SMOOTH"
);
}
);
width = 222;
},
{
layerId = "F7C9FF73-DC1F-4AC6-B1F4-3E0815F912B2";
paths = (
{
closed = 1;
nodes = (
"173 311 LINE",
"79 311 LINE",
"-29 -194 LINE",
"104 -194 LINE"
);
},
{
closed = 1;
nodes = (
"207 462 OFFCURVE",
"189 480 OFFCURVE",
"156 480 CURVE SMOOTH",
"113 480 OFFCURVE",
"83 445 OFFCURVE",
"83 406 CURVE SMOOTH",
"83 377 OFFCURVE",
"100 358 OFFCURVE",
"135 358 CURVE SMOOTH",
"180 358 OFFCURVE",
"207 395 OFFCURVE",
"207 434 CURVE SMOOTH"
);
}
);
width = 241;
}
);
unicode = 00A1;
},
{
glyphname = cent;
lastChange = "2016-08-26 10:24:29 +0000";
layers = (
{
layerId = UUID0;
paths = (
{
closed = 1;
nodes = (
"283 520 LINE",
"276 480 LINE",
"116 459 OFFCURVE",
"27 319 OFFCURVE",
"27 175 CURVE SMOOTH",
"27 75 OFFCURVE",
"78 -2 OFFCURVE",
"190 -10 CURVE",
"183 -50 LINE",
"223 -50 LINE",
"230 -10 LINE",
"302 -5 OFFCURVE",
"360 26 OFFCURVE",
"413 95 CURVE",
"396 110 LINE",
"352 59 OFFCURVE",
"308 30 OFFCURVE",
"237 30 CURVE",
"309 440 LINE",
"373 440 OFFCURVE",
"418 408 OFFCURVE",
"418 337 CURVE SMOOTH",
"418 330 OFFCURVE",
"418 323 OFFCURVE",
"417 315 CURVE",
"437 315 LINE",
"442 344 OFFCURVE",
"449 373 OFFCURVE",
"449 402 CURVE SMOOTH",
"449 470 OFFCURVE",
"365 480 OFFCURVE",
"316 480 CURVE",
"323 520 LINE"
);
},
{
closed = 1;
nodes = (
"198 35 LINE",
"146 50 OFFCURVE",
"122 102 OFFCURVE",
"122 171 CURVE SMOOTH",
"122 274 OFFCURVE",
"165 403 OFFCURVE",
"268 435 CURVE"
);
}
);
width = 485;
},
{
layerId = "F7C9FF73-DC1F-4AC6-B1F4-3E0815F912B2";
paths = (
{
closed = 1;
nodes = (
"183 -50 LINE",
"243 -50 LINE",
"250 -8 LINE",
"346 0 OFFCURVE",
"397 55 OFFCURVE",
"432 95 CURVE",
"405 118 LINE",
"364 74 OFFCURVE",
"321 38 OFFCURVE",
"258 35 CURVE",
"328 434 LINE",
"392 429 OFFCURVE",
"426 393 OFFCURVE",
"426 328 CURVE SMOOTH",
"426 321 OFFCURVE",
"426 313 OFFCURVE",
"425 305 CURVE",
"455 305 LINE",
"463 346 OFFCURVE",
"468 377 OFFCURVE",
"468 400 CURVE SMOOTH",
"468 471 OFFCURVE",
"388 476 OFFCURVE",
"336 479 CURVE",
"343 520 LINE",
"283 520 LINE",
"276 478 LINE",
"118 457 OFFCURVE",
"18 327 OFFCURVE",
"18 180 CURVE SMOOTH",
"18 79 OFFCURVE",
"73 3 OFFCURVE",
"190 -8 CURVE"
);
},
{
closed = 1;
nodes = (
"199 45 LINE",
"166 61 OFFCURVE",
"150 98 OFFCURVE",
"150 155 CURVE SMOOTH",
"150 250 OFFCURVE",
"177 379 OFFCURVE",
"266 424 CURVE"
);
}
);
width = 496;
}
);
unicode = 00A2;
},
{
glyphname = sterling;
lastChange = "2016-08-26 10:24:29 +0000";
layers = (
{
layerId = UUID0;
paths = (
{
closed = 1;
nodes = (
"134 360 LINE",
"64 360 LINE",
"57 320 LINE",
"127 320 LINE",
"109 220 LINE SMOOTH",
"85 88 OFFCURVE",
"49 41 OFFCURVE",
"-10 25 CURVE",
"-14 0 LINE",
"351 0 LINE SMOOTH",
"421 0 OFFCURVE",
"442 40 OFFCURVE",
"450 80 CURVE",
"463 155 LINE",
"443 155 LINE",
"428 75 OFFCURVE",
"378 40 OFFCURVE",
"298 40 CURVE SMOOTH",
"113 40 LINE",
"153 71 OFFCURVE",
"183 124 OFFCURVE",
"199 220 CURVE",
"217 320 LINE",
"357 320 LINE",
"364 360 LINE",
"224 360 LINE",
"242 460 LINE SMOOTH",
"266 600 OFFCURVE",
"316 630 OFFCURVE",
"377 630 CURVE SMOOTH",
"433 630 OFFCURVE",
"468 610 OFFCURVE",
"472 545 CURVE",
"517 545 LINE",
"520 561 OFFCURVE",
"522 574 OFFCURVE",
"522 589 CURVE SMOOTH",
"522 668 OFFCURVE",
"418 670 OFFCURVE",
"364 670 CURVE SMOOTH",
"272 670 OFFCURVE",
"184 640 OFFCURVE",
"152 460 CURVE SMOOTH"
);
}
);
width = 531;
},
{
layerId = "F7C9FF73-DC1F-4AC6-B1F4-3E0815F912B2";
paths = (
{
closed = 1;
nodes = (
"117 365 LINE",
"57 365 LINE",
"49 320 LINE",
"109 320 LINE",
"91 220 LINE SMOOTH",
"67 89 OFFCURVE",
"46 47 OFFCURVE",
"-7 30 CURVE",
"-12 0 LINE",
"363 0 LINE SMOOTH",
"433 0 OFFCURVE",
"454 40 OFFCURVE",
"462 80 CURVE",
"477 165 LINE",
"447 165 LINE",
"432 85 OFFCURVE",
"390 45 OFFCURVE",
"310 45 CURVE SMOOTH",
"120 45 LINE",
"161 74 OFFCURVE",
"205 125 OFFCURVE",
"221 220 CURVE SMOOTH",
"239 320 LINE",
"369 320 LINE",
"377 365 LINE",
"247 365 LINE",
"264 460 LINE SMOOTH",
"288 590 OFFCURVE",
"337 625 OFFCURVE",
"388 625 CURVE SMOOTH",
"439 625 OFFCURVE",
"468 600 OFFCURVE",
"472 535 CURVE",
"527 535 LINE",
"530 552 OFFCURVE",
"533 571 OFFCURVE",
"533 588 CURVE SMOOTH",
"533 668 OFFCURVE",
"432 670 OFFCURVE",
"376 670 CURVE SMOOTH",
"287 670 OFFCURVE",
"163 630 OFFCURVE",
"134 460 CURVE SMOOTH"
);
}
);
width = 536;
}
);
unicode = 00A3;
},
{
glyphname = currency;
lastChange = "2016-08-26 10:24:29 +0000";
layers = (
{
layerId = UUID0;
paths = (
{
closed = 1;
nodes = (
"224 330 LINE",
"274 615 LINE",
"295 620 OFFCURVE",
"326 625 OFFCURVE",
"351 625 CURVE SMOOTH",
"426 625 OFFCURVE",
"483 590 OFFCURVE",
"483 513 CURVE SMOOTH",
"483 407 OFFCURVE",
"403 333 OFFCURVE",
"304 330 CURVE"
);
},
{
closed = 1;
nodes = (
"468 240 LINE",
"208 240 LINE",
"217 290 LINE",
"297 290 LINE SMOOTH",
"445 290 OFFCURVE",
"583 360 OFFCURVE",
"583 515 CURVE SMOOTH",
"583 623 OFFCURVE",
"479 660 OFFCURVE",
"362 660 CURVE SMOOTH",
"102 660 LINE",
"98 640 LINE",
"118 640 LINE SMOOTH",
"162 640 OFFCURVE",
"175 618 OFFCURVE",
"175 583 CURVE SMOOTH",
"175 570 OFFCURVE",
"174 556 OFFCURVE",
"171 540 CURVE SMOOTH",
"134 330 LINE",
"74 330 LINE",
"67 290 LINE",
"127 290 LINE",
"118 240 LINE",
"58 240 LINE",
"51 200 LINE",
"111 200 LINE",
"76 0 LINE",
"166 0 LINE",
"201 200 LINE",
"461 200 LINE"
);
}
);
width = 577;
},
{
layerId = "F7C9FF73-DC1F-4AC6-B1F4-3E0815F912B2";
paths = (
{
closed = 1;
nodes = (
"256 330 LINE",
"306 615 LINE",
"327 620 OFFCURVE",
"347 620 OFFCURVE",
"372 620 CURVE SMOOTH",
"420 620 OFFCURVE",
"475 589 OFFCURVE",
"475 513 CURVE SMOOTH",
"475 416 OFFCURVE",
"413 333 OFFCURVE",
"316 330 CURVE"
);
},
{
closed = 1;
nodes = (
"489 235 LINE",
"239 235 LINE",
"248 285 LINE",
"308 285 LINE SMOOTH",
"453 285 OFFCURVE",
"615 356 OFFCURVE",
"615 511 CURVE SMOOTH",
"615 614 OFFCURVE",
"512 660 OFFCURVE",
"379 660 CURVE SMOOTH",
"104 660 LINE",
"99 630 LINE",
"109 630 LINE SMOOTH",
"153 630 OFFCURVE",
"166 608 OFFCURVE",
"166 575 CURVE SMOOTH",
"166 564 OFFCURVE",
"166 549 OFFCURVE",
"126 330 CURVE",
"76 330 LINE",
"68 285 LINE",
"118 285 LINE",
"109 235 LINE",
"59 235 LINE",
"51 190 LINE",
"101 190 LINE",
"68 0 LINE",
"198 0 LINE",
"231 190 LINE",
"481 190 LINE"
);
}
);
width = 607;
}
);
unicode = 00A4;
},
{
glyphname = yen;
lastChange = "2016-08-26 10:24:29 +0000";
layers = (
{
layerId = UUID0;
paths = (
{
closed = 1;
nodes = (
"311 550 LINE",
"287 605 OFFCURVE",
"255 660 OFFCURVE",
"181 660 CURVE SMOOTH",
"91 660 LINE",
"87 640 LINE",
"157 635 OFFCURVE",
"183 590 OFFCURVE",
"213 530 CURVE SMOOTH",
"338 273 LINE",
"336 265 LINE",
"241 265 LINE",
"234 225 LINE",
"329 225 LINE",
"322 185 LINE",
"227 185 LINE",
"220 145 LINE",
"315 145 LINE",
"290 0 LINE",
"380 0 LINE",
"405 145 LINE",
"500 145 LINE",
"507 185 LINE",
"412 185 LINE",
"419 225 LINE",
"514 225 LINE",
"521 265 LINE",
"426 265 LINE",
"429 280 LINE",
"730 660 LINE",
"685 660 LINE",
"417 325 LINE"
);
}
);
width = 692;
},
{
layerId = "F7C9FF73-DC1F-4AC6-B1F4-3E0815F912B2";
paths = (
{
closed = 1;
nodes = (
"341 550 LINE SMOOTH",
"317 601 OFFCURVE",
"273 660 OFFCURVE",
"198 660 CURVE SMOOTH",
"89 660 LINE",
"85 640 LINE",
"128 635 OFFCURVE",
"175 582 OFFCURVE",
"199 530 CURVE",
"328 265 LINE",
"245 265 LINE",
"237 220 LINE",
"321 220 LINE",
"314 180 LINE",
"230 180 LINE",
"222 135 LINE",
"306 135 LINE",
"283 0 LINE",
"413 0 LINE",
"436 135 LINE",
"522 135 LINE",
"530 180 LINE",
"444 180 LINE",
"451 220 LINE",
"537 220 LINE",
"545 265 LINE",
"459 265 LINE",
"464 291 LINE",
"756 660 LINE",
"691 660 LINE",
"441 345 LINE"
);
}
);
width = 716;
}
);
unicode = 00A5;
},
{
glyphname = brokenbar;
lastChange = "2016-08-26 10:24:29 +0000";
layers = (
{
layerId = UUID0;
paths = (
{
closed = 1;
nodes = (
"150 680 LINE",
"89 330 LINE",
"179 330 LINE",
"240 680 LINE"
);
},
{
closed = 1;
nodes = (
"59 160 LINE",
"-3 -190 LINE",
"87 -190 LINE",
"149 160 LINE"
);
}
);
width = 249;
},
{
layerId = "F7C9FF73-DC1F-4AC6-B1F4-3E0815F912B2";
paths = (
{
closed = 1;
nodes = (
"139 680 LINE",
"77 327 LINE",
"207 327 LINE",
"269 680 LINE"
);
},
{
closed = 1;
nodes = (
"48 163 LINE",
"-14 -190 LINE",
"116 -190 LINE",
"178 163 LINE"
);
}
);
width = 267;
}
);
unicode = 00A6;
},
{
glyphname = section;
lastChange = "2016-08-26 10:24:29 +0000";
layers = (
{
layerId = UUID0;
paths = (
{
closed = 1;
nodes = (
"367 630 OFFCURVE",
"400 594 OFFCURVE",
"400 531 CURVE SMOOTH",
"400 525 LINE",
"420 525 LINE",
"424 550 OFFCURVE",
"428 569 OFFCURVE",
"428 586 CURVE SMOOTH",
"428 655 OFFCURVE",
"343 670 OFFCURVE",
"291 670 CURVE SMOOTH",
"187 670 OFFCURVE",
"106 591 OFFCURVE",
"106 492 CURVE SMOOTH",
"106 437 OFFCURVE",
"134 398 OFFCURVE",
"173 370 CURVE",
"97 339 OFFCURVE",
"40 281 OFFCURVE",
"40 201 CURVE SMOOTH",
"40 77 OFFCURVE",
"222 63 OFFCURVE",
"222 -49 CURVE SMOOTH",
"222 -118 OFFCURVE",
"167 -160 OFFCURVE",
"104 -160 CURVE SMOOTH",
"51 -160 OFFCURVE",
"18 -124 OFFCURVE",
"18 -61 CURVE SMOOTH",
"18 -55 LINE",
"-2 -55 LINE",
"-6 -80 OFFCURVE",
"-10 -99 OFFCURVE",
"-10 -116 CURVE SMOOTH",
"-10 -185 OFFCURVE",
"75 -200 OFFCURVE",
"127 -200 CURVE SMOOTH",
"231 -200 OFFCURVE",
"312 -121 OFFCURVE",
"312 -22 CURVE SMOOTH",
"312 33 OFFCURVE",
"283 71 OFFCURVE",
"244 100 CURVE",
"321 129 OFFCURVE",
"378 188 OFFCURVE",
"378 269 CURVE SMOOTH",
"378 393 OFFCURVE",
"196 407 OFFCURVE",
"196 519 CURVE SMOOTH",
"196 588 OFFCURVE",
"251 630 OFFCURVE",
"314 630 CURVE SMOOTH"
);
},
{
closed = 1;
nodes = (
"261 314 OFFCURVE",
"297 279 OFFCURVE",
"297 232 CURVE SMOOTH",
"297 176 OFFCURVE",
"258 138 OFFCURVE",
"210 123 CURVE",
"157 156 OFFCURVE",
"121 192 OFFCURVE",
"121 239 CURVE SMOOTH",
"121 295 OFFCURVE",
"161 334 OFFCURVE",
"208 347 CURVE"
);
}
);
width = 433;
},
{
layerId = "F7C9FF73-DC1F-4AC6-B1F4-3E0815F912B2";
paths = (
{
closed = 1;
nodes = (
"382 625 OFFCURVE",
"411 586 OFFCURVE",
"411 522 CURVE SMOOTH",
"411 519 LINE",
"443 519 LINE",
"447 543 OFFCURVE",
"450 561 OFFCURVE",
"450 578 CURVE SMOOTH",
"450 655 OFFCURVE",
"358 670 OFFCURVE",
"300 670 CURVE SMOOTH",
"192 670 OFFCURVE",
"96 598 OFFCURVE",
"96 492 CURVE SMOOTH",
"96 439 OFFCURVE",
"128 401 OFFCURVE",
"169 370 CURVE",
"98 341 OFFCURVE",
"29 279 OFFCURVE",
"29 203 CURVE SMOOTH",
"29 128 OFFCURVE",
"95 95 OFFCURVE",
"138 60 CURVE",
"175 28 OFFCURVE",
"213 0 OFFCURVE",
"213 -45 CURVE SMOOTH",
"213 -108 OFFCURVE",
"175 -155 OFFCURVE",
"114 -155 CURVE SMOOTH",
"55 -155 OFFCURVE",
"25 -118 OFFCURVE",
"25 -55 CURVE SMOOTH",
"25 -49 LINE",
"-7 -49 LINE",
"-11 -73 OFFCURVE",
"-15 -92 OFFCURVE",
"-15 -109 CURVE SMOOTH",
"-15 -186 OFFCURVE",
"79 -200 OFFCURVE",
"136 -200 CURVE SMOOTH",
"243 -200 OFFCURVE",
"340 -130 OFFCURVE",
"340 -23 CURVE SMOOTH",
"340 30 OFFCURVE",
"308 69 OFFCURVE",
"265 100 CURVE",
"341 132 OFFCURVE",
"407 189 OFFCURVE",
"407 266 CURVE SMOOTH",
"407 331 OFFCURVE",
"352 371 OFFCURVE",
"302 408 CURVE SMOOTH",
"261 437 OFFCURVE",
"224 464 OFFCURVE",
"224 515 CURVE SMOOTH",
"224 578 OFFCURVE",
"261 625 OFFCURVE",
"322 625 CURVE SMOOTH"
);
},
{
closed = 1;
nodes = (
"183 156 OFFCURVE",
"144 192 OFFCURVE",
"144 240 CURVE SMOOTH",
"144 285 OFFCURVE",
"167 329 OFFCURVE",
"204 344 CURVE",
"253 313 OFFCURVE",
"291 278 OFFCURVE",
"291 231 CURVE SMOOTH",
"291 186 OFFCURVE",
"271 140 OFFCURVE",
"232 125 CURVE"
);
}
);
width = 452;
}
);
unicode = 00A7;
},
{
glyphname = dieresis;
lastChange = "2016-08-26 10:24:29 +0000";
layers = (
{
layerId = UUID0;
paths = (
{
closed = 1;
nodes = (
"381 774 OFFCURVE",
"366 790 OFFCURVE",
"339 790 CURVE SMOOTH",
"304 790 OFFCURVE",
"279 761 OFFCURVE",
"279 730 CURVE SMOOTH",
"279 706 OFFCURVE",
"294 690 OFFCURVE",
"321 690 CURVE SMOOTH",
"356 690 OFFCURVE",
"381 719 OFFCURVE",
"381 750 CURVE SMOOTH"
);
},
{
closed = 1;
nodes = (
"211 774 OFFCURVE",
"196 790 OFFCURVE",
"169 790 CURVE SMOOTH",
"134 790 OFFCURVE",
"109 761 OFFCURVE",
"109 730 CURVE SMOOTH",
"109 706 OFFCURVE",
"124 690 OFFCURVE",
"151 690 CURVE SMOOTH",
"186 690 OFFCURVE",
"211 719 OFFCURVE",
"211 750 CURVE SMOOTH"
);
}
);
width = 310;
},
{
layerId = "F7C9FF73-DC1F-4AC6-B1F4-3E0815F912B2";
paths = (
{
closed = 1;
nodes = (
"364 783 OFFCURVE",
"348 802 OFFCURVE",
"317 802 CURVE SMOOTH",
"280 802 OFFCURVE",
"250 771 OFFCURVE",
"250 736 CURVE SMOOTH",
"250 709 OFFCURVE",
"266 690 OFFCURVE",
"297 690 CURVE SMOOTH",
"336 690 OFFCURVE",
"364 723 OFFCURVE",
"364 758 CURVE SMOOTH"
);
},
{
closed = 1;
nodes = (
"194 783 OFFCURVE",
"178 802 OFFCURVE",
"147 802 CURVE SMOOTH",
"110 802 OFFCURVE",
"80 771 OFFCURVE",
"80 736 CURVE SMOOTH",
"80 709 OFFCURVE",
"96 690 OFFCURVE",
"127 690 CURVE SMOOTH",
"166 690 OFFCURVE",
"194 723 OFFCURVE",
"194 758 CURVE SMOOTH"
);
}
);
width = 282;
}
);
unicode = 00A8;
},
{
glyphname = copyright;
lastChange = "2016-08-26 10:24:29 +0000";
layers = (
{
layerId = UUID0;
paths = (
{
closed = 1;
nodes = (
"228 685 OFFCURVE",
"43 478 OFFCURVE",
"43 261 CURVE SMOOTH",
"43 92 OFFCURVE",
"160 -25 OFFCURVE",
"341 -25 CURVE SMOOTH",
"578 -25 OFFCURVE",
"765 182 OFFCURVE",
"765 399 CURVE SMOOTH",
"765 568 OFFCURVE",
"646 685 OFFCURVE",
"466 685 CURVE SMOOTH"
);
},
{
closed = 1;
nodes = (
"185 15 OFFCURVE",
"83 116 OFFCURVE",
"83 265 CURVE SMOOTH",
"83 474 OFFCURVE",
"255 645 OFFCURVE",
"459 645 CURVE SMOOTH",
"623 645 OFFCURVE",
"725 545 OFFCURVE",
"725 393 CURVE SMOOTH",
"725 185 OFFCURVE",
"550 15 OFFCURVE",
"348 15 CURVE SMOOTH"
);
},
{
closed = 1;
nodes = (
"584 412 LINE",
"584 413 OFFCURVE",
"585 414 OFFCURVE",
"585 415 CURVE",
"589 438 OFFCURVE",
"592 457 OFFCURVE",
"592 476 CURVE SMOOTH",
"592 547 OFFCURVE",
"496 562 OFFCURVE",
"445 562 CURVE SMOOTH",
"300 562 OFFCURVE",
"199 402 OFFCURVE",
"199 278 CURVE SMOOTH",
"199 178 OFFCURVE",
"258 105 OFFCURVE",
"364 105 CURVE SMOOTH",
"443 105 OFFCURVE",
"506 132 OFFCURVE",
"562 213 CURVE",
"551 223 LINE",
"504 163 OFFCURVE",
"454 132 OFFCURVE",
"389 132 CURVE SMOOTH",
"298 132 OFFCURVE",
"262 199 OFFCURVE",
"262 277 CURVE SMOOTH",
"262 397 OFFCURVE",
"329 536 OFFCURVE",
"460 536 CURVE SMOOTH",
"532 536 OFFCURVE",
"570 497 OFFCURVE",
"571 412 CURVE"
);
}
);
width = 789;
},
{
layerId = "F7C9FF73-DC1F-4AC6-B1F4-3E0815F912B2";
paths = (
{
closed = 1;
nodes = (
"232 688 OFFCURVE",
"36 486 OFFCURVE",
"36 262 CURVE SMOOTH",
"36 91 OFFCURVE",
"159 -28 OFFCURVE",
"349 -28 CURVE SMOOTH",
"590 -28 OFFCURVE",
"788 174 OFFCURVE",
"788 397 CURVE SMOOTH",
"788 569 OFFCURVE",
"665 688 OFFCURVE",
"475 688 CURVE SMOOTH"
);
},
{
closed = 1;
nodes = (
"202 17 OFFCURVE",
"106 116 OFFCURVE",
"106 263 CURVE SMOOTH",
"106 465 OFFCURVE",
"266 643 OFFCURVE",
"467 643 CURVE SMOOTH",
"622 643 OFFCURVE",
"718 543 OFFCURVE",
"718 395 CURVE SMOOTH",
"718 195 OFFCURVE",
"555 17 OFFCURVE",
"356 17 CURVE SMOOTH"
);
},
{
closed = 1;
nodes = (
"607 409 LINE",
"607 412 OFFCURVE",
"608 411 OFFCURVE",
"608 414 CURVE SMOOTH",
"611 433 OFFCURVE",
"614 452 OFFCURVE",
"614 469 CURVE SMOOTH",
"614 551 OFFCURVE",
"514 565 OFFCURVE",
"453 565 CURVE SMOOTH",
"302 565 OFFCURVE",
"192 412 OFFCURVE",
"192 280 CURVE SMOOTH",
"192 177 OFFCURVE",
"256 102 OFFCURVE",
"371 102 CURVE SMOOTH",
"458 102 OFFCURVE",
"523 132 OFFCURVE",
"580 212 CURVE",
"558 230 LINE",
"508 166 OFFCURVE",
"454 134 OFFCURVE",
"397 134 CURVE SMOOTH",
"317 134 OFFCURVE",
"286 197 OFFCURVE",
"286 272 CURVE SMOOTH",
"286 384 OFFCURVE",
"340 533 OFFCURVE",
"467 533 CURVE SMOOTH",
"543 533 OFFCURVE",
"575 494 OFFCURVE",
"576 409 CURVE"
);
}
);
width = 806;
}
);
unicode = 00A9;
},
{
glyphname = ordfeminine;
lastChange = "2016-08-26 10:24:29 +0000";
layers = (
{
layerId = UUID0;
paths = (
{
closed = 1;
nodes = (
"235 453 LINE",
"222 437 OFFCURVE",
"200 418 OFFCURVE",
"173 418 CURVE SMOOTH",
"150 418 OFFCURVE",
"135 429 OFFCURVE",
"135 453 CURVE SMOOTH",
"135 505 OFFCURVE",
"192 525 OFFCURVE",
"232 525 CURVE SMOOTH",
"248 525 LINE"
);
},
{
closed = 1;
nodes = (
"278 401 LINE",
"305 561 OFFCURVE",
"308 574 OFFCURVE",
"308 584 CURVE SMOOTH",
"308 648 OFFCURVE",
"268 660 OFFCURVE",
"226 660 CURVE SMOOTH",
"194 660 OFFCURVE",
"158 656 OFFCURVE",
"143 641 CURVE SMOOTH",
"126 626 OFFCURVE",
"123 612 OFFCURVE",
"120 593 CURVE",
"145 593 LINE",
"160 628 OFFCURVE",
"181 638 OFFCURVE",
"212 638 CURVE SMOOTH",
"237 638 OFFCURVE",
"256 629 OFFCURVE",
"256 586 CURVE SMOOTH",
"256 573 OFFCURVE",
"255 560 OFFCURVE",
"252 547 CURVE",
"236 547 LINE SMOOTH",
"170 547 OFFCURVE",
"82 526 OFFCURVE",
"82 451 CURVE SMOOTH",
"82 405 OFFCURVE",
"123 396 OFFCURVE",
"150 396 CURVE SMOOTH",
"190 396 OFFCURVE",
"216 411 OFFCURVE",
"231 426 CURVE",
"248 401 LINE"
);
}
);
width = 321;
},
{
layerId = "F7C9FF73-DC1F-4AC6-B1F4-3E0815F912B2";
paths = (
{
closed = 1;
nodes = (
"226 455 LINE",
"215 440 OFFCURVE",
"197 421 OFFCURVE",
"174 421 CURVE SMOOTH",
"159 421 OFFCURVE",
"145 429 OFFCURVE",
"145 453 CURVE SMOOTH",
"145 498 OFFCURVE",
"185 522 OFFCURVE",
"222 522 CURVE SMOOTH",
"238 522 LINE"
);
},
{
closed = 1;
nodes = (
"288 401 LINE",
"315 561 OFFCURVE",
"318 574 OFFCURVE",
"318 584 CURVE SMOOTH",
"318 648 OFFCURVE",
"278 660 OFFCURVE",
"226 660 CURVE SMOOTH",
"189 660 OFFCURVE",
"153 656 OFFCURVE",
"138 641 CURVE SMOOTH",
"121 626 OFFCURVE",
"116 602 OFFCURVE",
"113 583 CURVE",
"142 583 LINE",
"155 615 OFFCURVE",
"174 635 OFFCURVE",
"211 635 CURVE SMOOTH",
"228 635 OFFCURVE",
"246 627 OFFCURVE",
"246 586 CURVE SMOOTH",
"246 575 OFFCURVE",
"245 563 OFFCURVE",
"242 547 CURVE",
"226 547 LINE SMOOTH",
"158 547 OFFCURVE",
"73 526 OFFCURVE",
"73 451 CURVE SMOOTH",
"73 411 OFFCURVE",
"107 396 OFFCURVE",
"150 396 CURVE SMOOTH",
"187 396 OFFCURVE",
"210 413 OFFCURVE",
"225 426 CURVE",
"242 401 LINE"
);
}
);
width = 323;
}
);
unicode = 00AA;
},
{
glyphname = logicalnot;
lastChange = "2016-08-26 10:24:29 +0000";
layers = (
{
layerId = UUID0;
paths = (
{
closed = 1;
nodes = (
"502 130 LINE",
"562 130 LINE",
"591 290 LINE",
"71 290 LINE",
"60 230 LINE",
"520 230 LINE"
);
}
);
width = 656;
},
{
layerId = "F7C9FF73-DC1F-4AC6-B1F4-3E0815F912B2";
paths = (
{
closed = 1;
nodes = (
"486 115 LINE",
"576 115 LINE",
"607 290 LINE",
"62 290 LINE",
"49 220 LINE",
"504 220 LINE"
);
}
);
width = 665;
}
);
unicode = 00AC;
},
{
glyphname = registered;
lastChange = "2016-08-26 10:24:29 +0000";
layers = (
{
layerId = UUID0;
paths = (
{
closed = 1;
nodes = (
"228 685 OFFCURVE",
"43 478 OFFCURVE",
"43 261 CURVE SMOOTH",
"43 92 OFFCURVE",
"160 -25 OFFCURVE",
"341 -25 CURVE SMOOTH",
"578 -25 OFFCURVE",
"765 182 OFFCURVE",
"765 399 CURVE SMOOTH",
"765 568 OFFCURVE",
"646 685 OFFCURVE",
"466 685 CURVE SMOOTH"
);
},
{
closed = 1;
nodes = (
"185 15 OFFCURVE",
"83 116 OFFCURVE",
"83 265 CURVE SMOOTH",
"83 474 OFFCURVE",
"255 645 OFFCURVE",
"459 645 CURVE SMOOTH",
"623 645 OFFCURVE",
"725 545 OFFCURVE",
"725 393 CURVE SMOOTH",
"725 185 OFFCURVE",
"550 15 OFFCURVE",
"348 15 CURVE SMOOTH"
);
},
{
closed = 1;
nodes = (
"371 345 OFFCURVE",
"352 349 OFFCURVE",
"340 352 CURVE",
"370 523 LINE",
"383 526 OFFCURVE",
"404 530 OFFCURVE",
"420 530 CURVE SMOOTH",
"453 530 OFFCURVE",
"505 507 OFFCURVE",
"505 454 CURVE SMOOTH",
"505 390 OFFCURVE",
"440 345 OFFCURVE",
"387 345 CURVE SMOOTH"
);
},
{
closed = 1;
nodes = (
"430 211 LINE",
"460 141 OFFCURVE",
"482 118 OFFCURVE",
"524 118 CURVE SMOOTH",
"543 118 OFFCURVE",
"561 121 OFFCURVE",
"568 125 CURVE",
"570 137 LINE",
"538 141 OFFCURVE",
"522 158 OFFCURVE",
"498 211 CURVE SMOOTH",
"446 327 LINE",
"518 340 OFFCURVE",
"570 386 OFFCURVE",
"570 458 CURVE SMOOTH",
"570 541 OFFCURVE",
"479 552 OFFCURVE",
"427 552 CURVE SMOOTH",
"259 552 LINE",
"257 539 LINE",
"270 539 LINE SMOOTH",
"298 539 OFFCURVE",
"306 527 OFFCURVE",
"306 504 CURVE SMOOTH",
"306 495 OFFCURVE",
"305 485 OFFCURVE",
"303 474 CURVE SMOOTH",
"242 125 LINE",
"300 125 LINE",
"334 323 LINE",
"382 323 LINE"
);
}
);
width = 789;
},
{
layerId = "F7C9FF73-DC1F-4AC6-B1F4-3E0815F912B2";
paths = (
{
closed = 1;
nodes = (
"232 685 OFFCURVE",
"36 486 OFFCURVE",
"36 262 CURVE SMOOTH",
"36 92 OFFCURVE",
"159 -25 OFFCURVE",
"349 -25 CURVE SMOOTH",
"590 -25 OFFCURVE",
"788 173 OFFCURVE",
"788 397 CURVE SMOOTH",
"788 568 OFFCURVE",
"663 685 OFFCURVE",
"474 685 CURVE SMOOTH"
);
},
{
closed = 1;
nodes = (
"202 20 OFFCURVE",
"106 117 OFFCURVE",
"106 264 CURVE SMOOTH",
"106 466 OFFCURVE",
"266 640 OFFCURVE",
"466 640 CURVE SMOOTH",
"621 640 OFFCURVE",
"718 543 OFFCURVE",
"718 395 CURVE SMOOTH",
"718 195 OFFCURVE",
"556 20 OFFCURVE",
"357 20 CURVE SMOOTH"
);
},
{
closed = 1;
nodes = (
"381 349 OFFCURVE",
"374 349 OFFCURVE",
"367 350 CURVE SMOOTH",
"364 350 OFFCURVE",
"360 350 OFFCURVE",
"356 351 CURVE",
"387 524 LINE",
"390 524 OFFCURVE",
"394 524 OFFCURVE",
"397 525 CURVE",
"404 525 OFFCURVE",
"410 526 OFFCURVE",
"421 526 CURVE SMOOTH",
"464 526 OFFCURVE",
"493 508 OFFCURVE",
"493 461 CURVE SMOOTH",
"493 397 OFFCURVE",
"453 349 OFFCURVE",
"390 349 CURVE SMOOTH"
);
},
{
closed = 1;
nodes = (
"419 212 LINE",
"450 141 OFFCURVE",
"475 118 OFFCURVE",
"526 118 CURVE SMOOTH",
"561 118 OFFCURVE",
"579 124 OFFCURVE",
"580 125 CURVE",
"582 139 LINE",
"551 143 OFFCURVE",
"533 168 OFFCURVE",
"512 216 CURVE SMOOTH",
"463 326 LINE",
"535 345 OFFCURVE",
"587 387 OFFCURVE",
"587 458 CURVE SMOOTH",
"587 534 OFFCURVE",
"512 555 OFFCURVE",
"429 555 CURVE SMOOTH",
"256 555 LINE",
"254 539 LINE",
"272 539 LINE SMOOTH",
"287 539 OFFCURVE",
"295 529 OFFCURVE",
"295 510 CURVE SMOOTH",
"295 501 OFFCURVE",
"294 490 OFFCURVE",
"291 477 CURVE",
"229 125 LINE",
"317 125 LINE",
"351 320 LINE",
"371 320 LINE"
);
}
);
width = 806;
}
);
unicode = 00AE;
},
{
glyphname = macron;
lastChange = "2016-08-26 10:30:21 +0000";
layers = (
{
layerId = UUID0;
paths = (
{
closed = 1;
nodes = (
"100 560 LINE",
"355 560 LINE",
"355 620 LINE",
"100 620 LINE"
);
}
);
width = 250;
},
{
layerId = "F7C9FF73-DC1F-4AC6-B1F4-3E0815F912B2";
paths = (
{
closed = 1;
nodes = (
"171 557 LINE",
"450 557 LINE",
"450 642 LINE",
"171 642 LINE"
);
}
);
width = 494;
}
);
unicode = 00AF;
},
{
glyphname = degree;
lastChange = "2016-08-26 10:24:29 +0000";
layers = (
{
layerId = UUID0;
paths = (
{
closed = 1;
nodes = (
"315 625 OFFCURVE",
"350 590 OFFCURVE",
"350 541 CURVE SMOOTH",
"350 475 OFFCURVE",
"293 415 OFFCURVE",
"230 415 CURVE SMOOTH",
"181 415 OFFCURVE",
"146 450 OFFCURVE",
"146 501 CURVE SMOOTH",
"146 566 OFFCURVE",
"205 625 OFFCURVE",
"267 625 CURVE SMOOTH"
);
},
{
closed = 1;
nodes = (
"172 680 OFFCURVE",
"85 587 OFFCURVE",
"85 491 CURVE SMOOTH",
"85 416 OFFCURVE",
"140 360 OFFCURVE",
"220 360 CURVE SMOOTH",
"324 360 OFFCURVE",
"411 453 OFFCURVE",
"411 549 CURVE SMOOTH",
"411 624 OFFCURVE",
"356 680 OFFCURVE",
"276 680 CURVE SMOOTH"
);
}
);
width = 412;
},
{
layerId = "F7C9FF73-DC1F-4AC6-B1F4-3E0815F912B2";
paths = (
{
closed = 1;
nodes = (
"312 620 OFFCURVE",
"343 589 OFFCURVE",
"343 542 CURVE SMOOTH",
"343 474 OFFCURVE",
"292 420 OFFCURVE",
"233 420 CURVE SMOOTH",
"189 420 OFFCURVE",
"159 451 OFFCURVE",
"159 499 CURVE SMOOTH",
"159 566 OFFCURVE",
"213 620 OFFCURVE",
"269 620 CURVE SMOOTH"
);
},
{
closed = 1;
nodes = (
"158 680 OFFCURVE",
"78 592 OFFCURVE",
"78 487 CURVE SMOOTH",
"78 412 OFFCURVE",
"127 360 OFFCURVE",
"223 360 CURVE SMOOTH",
"344 360 OFFCURVE",
"424 448 OFFCURVE",
"424 553 CURVE SMOOTH",
"424 628 OFFCURVE",
"375 680 OFFCURVE",
"279 680 CURVE SMOOTH"
);
}
);
width = 418;
}
);
unicode = 00B0;
},
{
glyphname = plusminus;
lastChange = "2016-08-26 10:24:29 +0000";
layers = (
{
layerId = UUID0;
paths = (
{
closed = 1;
nodes = (
"481 60 LINE",
"492 120 LINE",
"292 120 LINE",
"323 300 LINE",
"523 300 LINE",
"534 360 LINE",
"334 360 LINE",
"369 560 LINE",
"309 560 LINE",
"274 360 LINE",
"74 360 LINE",
"63 300 LINE",
"263 300 LINE",
"232 120 LINE",
"32 120 LINE",
"21 60 LINE"
);
}
);
width = 575;
},
{
layerId = "F7C9FF73-DC1F-4AC6-B1F4-3E0815F912B2";
paths = (
{
closed = 1;
nodes = (
"496 55 LINE",
"509 125 LINE",
"312 125 LINE",
"342 295 LINE",
"539 295 LINE",
"551 365 LINE",
"354 365 LINE",
"388 560 LINE",
"298 560 LINE",
"264 365 LINE",
"67 365 LINE",
"55 295 LINE",
"252 295 LINE",
"222 125 LINE",
"25 125 LINE",
"12 55 LINE"
);
}
);
width = 583;
}
);
unicode = 00B1;
},
{
glyphname = twosuperior;
lastChange = "2016-08-26 10:24:29 +0000";
layers = (
{
layerId = UUID0;
paths = (
{
closed = 1;
nodes = (
"122 399 LINE",
"194 455 OFFCURVE",
"316 527 OFFCURVE",
"316 623 CURVE SMOOTH",
"316 679 OFFCURVE",
"268 689 OFFCURVE",
"235 689 CURVE SMOOTH",
"199 689 OFFCURVE",
"162 673 OFFCURVE",
"142 653 CURVE SMOOTH",
"127 638 OFFCURVE",
"124 616 OFFCURVE",
"120 593 CURVE",
"132 593 LINE",
"151 644 OFFCURVE",
"181 667 OFFCURVE",
"218 667 CURVE SMOOTH",
"245 667 OFFCURVE",
"264 653 OFFCURVE",
"264 620 CURVE SMOOTH",
"264 529 OFFCURVE",
"138 448 OFFCURVE",
"82 400 CURVE",
"78 377 LINE",
"239 377 LINE SMOOTH",
"271 377 OFFCURVE",
"281 394 OFFCURVE",
"284 413 CURVE SMOOTH",
"290 443 LINE",
"278 443 LINE",
"271 411 OFFCURVE",
"250 399 OFFCURVE",
"213 399 CURVE SMOOTH"
);
}
);
width = 322;
},
{
layerId = "F7C9FF73-DC1F-4AC6-B1F4-3E0815F912B2";
paths = (
{
closed = 1;
nodes = (
"132 404 LINE",
"231 493 OFFCURVE",
"323 526 OFFCURVE",
"323 621 CURVE SMOOTH",
"323 675 OFFCURVE",
"276 689 OFFCURVE",
"232 689 CURVE SMOOTH",
"192 689 OFFCURVE",
"155 673 OFFCURVE",
"135 653 CURVE SMOOTH",
"120 638 OFFCURVE",
"115 606 OFFCURVE",
"111 583 CURVE",
"127 583 LINE",
"146 634 OFFCURVE",
"173 662 OFFCURVE",
"214 662 CURVE SMOOTH",
"237 662 OFFCURVE",
"251 653 OFFCURVE",
"251 624 CURVE SMOOTH",
"251 534 OFFCURVE",
"189 504 OFFCURVE",
"74 400 CURVE",
"70 377 LINE",
"241 377 LINE SMOOTH",
"273 377 OFFCURVE",
"283 394 OFFCURVE",
"286 413 CURVE SMOOTH",
"292 448 LINE",
"277 448 LINE",
"272 416 OFFCURVE",
"250 404 OFFCURVE",
"213 404 CURVE SMOOTH"
);
}
);
width = 319;
}
);
unicode = 00B2;
},
{
glyphname = threesuperior;
lastChange = "2016-08-26 10:24:29 +0000";
layers = (
{
layerId = UUID0;
paths = (
{
closed = 1;
nodes = (
"315 662 LINE",
"318 680 LINE",
"167 680 LINE SMOOTH",
"135 680 OFFCURVE",
"125 662 OFFCURVE",
"122 643 CURVE SMOOTH",
"117 613 LINE",
"126 613 LINE",
"131 646 OFFCURVE",
"155 658 OFFCURVE",
"191 658 CURVE SMOOTH",
"275 658 LINE",
"132 547 LINE",
"142 523 LINE",
"161 528 OFFCURVE",
"181 529 OFFCURVE",
"196 529 CURVE SMOOTH",
"220 529 OFFCURVE",
"243 514 OFFCURVE",
"243 478 CURVE SMOOTH",
"243 430 OFFCURVE",
"209 389 OFFCURVE",
"165 389 CURVE SMOOTH",
"131 389 OFFCURVE",
"105 401 OFFCURVE",
"87 425 CURVE",
"76 416 LINE",
"95 385 OFFCURVE",
"118 367 OFFCURVE",
"165 367 CURVE SMOOTH",
"233 367 OFFCURVE",
"296 411 OFFCURVE",
"296 480 CURVE SMOOTH",
"296 533 OFFCURVE",
"246 551 OFFCURVE",
"209 551 CURVE SMOOTH",
"202 551 OFFCURVE",
"184 551 OFFCURVE",
"167 547 CURVE"
);
}
);
width = 312;
},
{
layerId = "F7C9FF73-DC1F-4AC6-B1F4-3E0815F912B2";
paths = (
{
closed = 1;
nodes = (
"311 662 LINE",
"314 680 LINE",
"161 680 LINE SMOOTH",
"129 680 OFFCURVE",
"119 662 OFFCURVE",
"116 643 CURVE SMOOTH",
"110 610 LINE",
"123 610 LINE",
"128 639 OFFCURVE",
"147 653 OFFCURVE",
"181 653 CURVE SMOOTH",
"259 653 LINE",
"122 546 LINE",
"133 518 LINE",
"152 523 OFFCURVE",
"162 524 OFFCURVE",
"177 524 CURVE SMOOTH",
"204 524 OFFCURVE",
"227 513 OFFCURVE",
"227 478 CURVE SMOOTH",
"227 425 OFFCURVE",
"189 394 OFFCURVE",
"160 394 CURVE SMOOTH",
"127 394 OFFCURVE",
"101 406 OFFCURVE",
"83 430 CURVE",
"67 418 LINE",
"87 387 OFFCURVE",
"113 367 OFFCURVE",
"169 367 CURVE SMOOTH",
"210 367 OFFCURVE",
"299 393 OFFCURVE",
"299 478 CURVE SMOOTH",
"299 530 OFFCURVE",
"250 551 OFFCURVE",
"203 551 CURVE SMOOTH",
"196 551 OFFCURVE",
"180 551 OFFCURVE",
"163 547 CURVE"
);
}
);
width = 305;
}
);
unicode = 00B3;
},
{
glyphname = acute;
lastChange = "2016-08-26 10:24:29 +0000";
layers = (
{
layerId = UUID0;
paths = (
{
closed = 1;
nodes = (
"261 830 LINE",
"166 830 LINE",
"103 700 LINE",
"143 700 LINE"
);
}
);
width = 175;
},
{
layerId = "F7C9FF73-DC1F-4AC6-B1F4-3E0815F912B2";
paths = (
{
closed = 1;
nodes = (
"279 840 LINE",
"160 840 LINE",
"93 700 LINE",
"148 700 LINE"
);
}
);
width = 201;
}
);
unicode = 00B4;
},
{
glyphname = paragraph;
lastChange = "2016-08-26 10:24:29 +0000";
layers = (
{
layerId = UUID0;
paths = (
{
closed = 1;
nodes = (
"176 -190 LINE",
"266 -190 LINE",
"409 620 LINE",
"474 620 LINE",
"331 -190 LINE",
"421 -190 LINE",
"564 620 LINE",
"619 620 LINE",
"626 660 LINE",
"326 660 LINE SMOOTH",
"194 660 OFFCURVE",
"60 576 OFFCURVE",
"60 443 CURVE SMOOTH",
"60 347 OFFCURVE",
"144 290 OFFCURVE",
"261 290 CURVE"
);
}
);
width = 603;
},
{
layerId = "F7C9FF73-DC1F-4AC6-B1F4-3E0815F912B2";
paths = (
{
closed = 1;
nodes = (
"174 -190 LINE",
"294 -190 LINE",
"436 615 LINE",
"481 615 LINE",
"339 -190 LINE",
"459 -190 LINE",
"601 615 LINE",
"656 615 LINE",
"664 660 LINE",
"324 660 LINE SMOOTH",
"185 660 OFFCURVE",
"56 565 OFFCURVE",
"56 433 CURVE SMOOTH",
"56 337 OFFCURVE",
"138 270 OFFCURVE",
"255 270 CURVE"
);
}
);
width = 636;
}
);
unicode = 00B6;
},
{
glyphname = periodcentered;
lastChange = "2016-08-26 10:24:29 +0000";
layers = (
{
layerId = UUID0;
paths = (
{
closed = 1;
nodes = (
"98 385 OFFCURVE",
"69 353 OFFCURVE",
"69 321 CURVE SMOOTH",
"69 294 OFFCURVE",
"87 276 OFFCURVE",
"114 276 CURVE SMOOTH",
"149 276 OFFCURVE",
"179 308 OFFCURVE",
"179 340 CURVE SMOOTH",
"179 365 OFFCURVE",
"161 385 OFFCURVE",
"133 385 CURVE SMOOTH"
);
}
);
width = 232;
},
{
layerId = "F7C9FF73-DC1F-4AC6-B1F4-3E0815F912B2";
paths = (
{
closed = 1;
nodes = (
"184 374 OFFCURVE",
"168 392 OFFCURVE",
"133 392 CURVE SMOOTH",
"89 392 OFFCURVE",
"60 356 OFFCURVE",
"60 317 CURVE SMOOTH",
"60 288 OFFCURVE",
"76 270 OFFCURVE",
"111 270 CURVE SMOOTH",
"155 270 OFFCURVE",
"184 306 OFFCURVE",
"184 345 CURVE SMOOTH"
);
}
);
width = 227;
}
);
unicode = 00B7;
},
{
glyphname = cedilla;
lastChange = "2016-08-26 10:24:29 +0000";
layers = (
{
layerId = UUID0;
paths = (
{
closed = 1;
nodes = (
"5 0 LINE",
"-11 -90 LINE",
"34 -90 LINE SMOOTH",
"57 -90 OFFCURVE",
"69 -98 OFFCURVE",
"69 -115 CURVE SMOOTH",
"69 -142 OFFCURVE",
"46 -155 OFFCURVE",
"22 -155 CURVE SMOOTH",
"-28 -155 LINE",
"-35 -196 LINE",
"25 -196 LINE SMOOTH",
"78 -196 OFFCURVE",
"119 -159 OFFCURVE",
"119 -108 CURVE SMOOTH",
"119 -69 OFFCURVE",
"91 -50 OFFCURVE",
"51 -50 CURVE SMOOTH",
"41 -50 LINE",
"50 0 LINE"
);
}
);
width = 180;
},
{
layerId = "F7C9FF73-DC1F-4AC6-B1F4-3E0815F912B2";
paths = (
{
closed = 1;
nodes = (
"-22 -95 LINE",
"23 -95 LINE SMOOTH",
"46 -95 OFFCURVE",
"57 -107 OFFCURVE",
"57 -123 CURVE",
"54 -146 OFFCURVE",
"36 -160 OFFCURVE",
"11 -160 CURVE SMOOTH",
"-39 -160 LINE",
"-47 -206 LINE",
"23 -206 LINE SMOOTH",
"73 -206 OFFCURVE",
"128 -173 OFFCURVE",
"128 -113 CURVE SMOOTH",
"128 -74 OFFCURVE",
"100 -50 OFFCURVE",
"51 -50 CURVE",
"60 0 LINE",
"-5 0 LINE"
);
}
);
width = 200;
}
);
unicode = 00B8;
},
{
glyphname = onesuperior;
lastChange = "2016-08-26 10:24:29 +0000";
layers = (
{
layerId = UUID0;
paths = (
{
closed = 1;
nodes = (
"211 680 LINE",
"172 680 LINE",
"96 616 LINE",
"104 600 LINE",
"150 624 LINE",
"106 377 LINE",
"158 377 LINE"
);
}
);
width = 211;
},
{
layerId = "F7C9FF73-DC1F-4AC6-B1F4-3E0815F912B2";
paths = (
{
closed = 1;
nodes = (
"221 680 LINE",
"167 680 LINE",
"88 616 LINE",
"100 594 LINE",
"138 614 LINE",
"96 377 LINE",
"168 377 LINE"
);
}
);
width = 213;
}
);
unicode = 00B9;
},
{
glyphname = ordmasculine;
lastChange = "2016-08-26 10:24:29 +0000";
layers = (
{
layerId = UUID0;
paths = (
{
closed = 1;
nodes = (
"266 667 OFFCURVE",
"282 643 OFFCURVE",
"282 594 CURVE SMOOTH",
"282 505 OFFCURVE",
"243 389 OFFCURVE",
"186 389 CURVE SMOOTH",
"156 389 OFFCURVE",
"141 413 OFFCURVE",
"141 461 CURVE SMOOTH",
"141 549 OFFCURVE",
"180 667 OFFCURVE",
"235 667 CURVE SMOOTH"
);
},
{
closed = 1;
nodes = (
"143 689 OFFCURVE",
"91 581 OFFCURVE",
"91 474 CURVE SMOOTH",
"91 407 OFFCURVE",
"118 367 OFFCURVE",
"182 367 CURVE SMOOTH",
"278 367 OFFCURVE",
"332 474 OFFCURVE",
"332 581 CURVE SMOOTH",
"332 649 OFFCURVE",
"303 689 OFFCURVE",
"239 689 CURVE SMOOTH"
);
}
);
width = 336;
},
{
layerId = "F7C9FF73-DC1F-4AC6-B1F4-3E0815F912B2";
paths = (
{
closed = 1;
nodes = (
"259 664 OFFCURVE",
"273 649 OFFCURVE",
"273 601 CURVE SMOOTH",
"273 549 OFFCURVE",
"255 392 OFFCURVE",
"188 392 CURVE SMOOTH",
"167 392 OFFCURVE",
"151 407 OFFCURVE",
"151 455 CURVE SMOOTH",
"151 506 OFFCURVE",
"169 664 OFFCURVE",
"236 664 CURVE SMOOTH"
);
},
{
closed = 1;
nodes = (
"130 689 OFFCURVE",
"82 570 OFFCURVE",
"82 482 CURVE SMOOTH",
"82 417 OFFCURVE",
"110 367 OFFCURVE",
"183 367 CURVE SMOOTH",
"295 367 OFFCURVE",
"342 488 OFFCURVE",
"342 576 CURVE SMOOTH",
"342 640 OFFCURVE",
"313 689 OFFCURVE",
"240 689 CURVE SMOOTH"
);
}
);
width = 338;
}
);
unicode = 00BA;
},
{
glyphname = onequarter;
lastChange = "2016-08-26 10:24:29 +0000";
layers = (
{
layerId = UUID0;
paths = (
{
closed = 1;
nodes = (
"46 0 LINE",
"617 660 LINE",
"552 660 LINE",
"-19 0 LINE"
);
},
{
closed = 1;
nodes = (
"229 680 LINE",
"190 680 LINE",
"114 616 LINE",
"122 600 LINE",
"168 624 LINE",
"124 377 LINE",
"176 377 LINE"
);
},
{
closed = 1;
nodes = (
"517 304 LINE",
"470 304 LINE",
"277 97 LINE",
"273 78 LINE",
"425 78 LINE",
"412 0 LINE",
"464 0 LINE",
"477 78 LINE",
"518 78 LINE",
"522 100 LINE",
"481 100 LINE"
);
},
{
closed = 1;
nodes = (
"311 100 LINE",
"456 255 LINE",
"429 100 LINE"
);
}
);
width = 597;
},
{
layerId = "F7C9FF73-DC1F-4AC6-B1F4-3E0815F912B2";
paths = (
{
closed = 1;
nodes = (
"73 0 LINE",
"644 660 LINE",
"549 660 LINE",
"-22 0 LINE"
);
},
{
closed = 1;
nodes = (
"544 304 LINE",
"477 304 LINE",
"291 97 LINE",
"286 73 LINE",
"431 73 LINE",
"419 0 LINE",
"491 0 LINE",
"503 73 LINE",
"537 73 LINE",
"542 100 LINE",
"508 100 LINE"
);
},
{
closed = 1;
nodes = (
"330 100 LINE",
"462 246 LINE",
"436 100 LINE"
);
},
{
closed = 1;
nodes = (
"256 680 LINE",
"202 680 LINE",
"123 616 LINE",
"135 594 LINE",
"173 614 LINE",
"131 377 LINE",
"203 377 LINE"
);
}
);
width = 619;
}
);
unicode = 00BC;
},
{
glyphname = onehalf;
lastChange = "2016-08-26 10:24:29 +0000";
layers = (
{
layerId = UUID0;
paths = (
{
closed = 1;
nodes = (
"46 0 LINE",
"617 660 LINE",
"552 660 LINE",
"-19 0 LINE"
);
},
{
closed = 1;
nodes = (
"229 680 LINE",
"190 680 LINE",
"114 616 LINE",
"122 600 LINE",
"168 624 LINE",
"124 377 LINE",
"176 377 LINE"
);
},
{
closed = 1;
nodes = (
"358 22 LINE",
"459 110 OFFCURVE",
"552 150 OFFCURVE",
"552 246 CURVE SMOOTH",
"552 301 OFFCURVE",
"504 312 OFFCURVE",
"472 312 CURVE SMOOTH",
"436 312 OFFCURVE",
"399 296 OFFCURVE",
"378 276 CURVE",
"365 261 OFFCURVE",
"361 239 OFFCURVE",
"357 216 CURVE",
"369 216 LINE",
"386 267 OFFCURVE",
"418 290 OFFCURVE",
"455 290 CURVE SMOOTH",
"482 290 OFFCURVE",
"500 276 OFFCURVE",
"500 244 CURVE SMOOTH",
"500 155 OFFCURVE",
"432 128 OFFCURVE",
"319 23 CURVE",
"315 0 LINE",
"476 0 LINE SMOOTH",
"508 0 OFFCURVE",
"518 17 OFFCURVE",
"521 36 CURVE SMOOTH",
"526 66 LINE",
"514 66 LINE",
"507 34 OFFCURVE",
"486 22 OFFCURVE",
"449 22 CURVE SMOOTH"
);
}
);
width = 613;
},
{
layerId = "F7C9FF73-DC1F-4AC6-B1F4-3E0815F912B2";
paths = (
{
closed = 1;
nodes = (
"73 0 LINE",
"644 660 LINE",
"549 660 LINE",
"-22 0 LINE"
);
},
{
closed = 1;
nodes = (
"256 680 LINE",
"202 680 LINE",
"123 616 LINE",
"135 594 LINE",
"173 614 LINE",
"131 377 LINE",
"203 377 LINE"
);
},
{
closed = 1;
nodes = (
"385 27 LINE",
"454 83 OFFCURVE",
"576 151 OFFCURVE",
"576 244 CURVE SMOOTH",
"576 297 OFFCURVE",
"529 312 OFFCURVE",
"486 312 CURVE SMOOTH",
"446 312 OFFCURVE",
"409 296 OFFCURVE",
"388 276 CURVE",
"375 261 OFFCURVE",
"369 229 OFFCURVE",
"365 206 CURVE",
"381 206 LINE",
"400 257 OFFCURVE",
"427 285 OFFCURVE",
"468 285 CURVE SMOOTH",
"491 285 OFFCURVE",
"504 276 OFFCURVE",
"504 248 CURVE SMOOTH",
"504 153 OFFCURVE",
"386 73 OFFCURVE",
"328 23 CURVE",
"324 0 LINE",
"495 0 LINE SMOOTH",
"527 0 OFFCURVE",
"537 17 OFFCURVE",
"540 36 CURVE SMOOTH",
"546 71 LINE",
"531 71 LINE",
"524 39 OFFCURVE",
"503 27 OFFCURVE",
"466 27 CURVE SMOOTH"
);
}
);
width = 633;
}
);
unicode = 00BD;
},
{
glyphname = threequarters;
lastChange = "2016-08-26 10:24:29 +0000";
layers = (
{
layerId = UUID0;
paths = (
{
closed = 1;
nodes = (
"75 0 LINE",
"646 660 LINE",
"581 660 LINE",
"10 0 LINE"
);
},
{
closed = 1;
nodes = (
"535 304 LINE",
"488 304 LINE",
"295 97 LINE",
"291 78 LINE",
"443 78 LINE",
"430 0 LINE",
"482 0 LINE",
"495 78 LINE",
"536 78 LINE",
"540 100 LINE",
"499 100 LINE"
);
},
{
closed = 1;
nodes = (
"329 100 LINE",
"474 255 LINE",
"447 100 LINE"
);
},
{
closed = 1;
nodes = (
"306 662 LINE",
"309 680 LINE",
"158 680 LINE SMOOTH",
"126 680 OFFCURVE",
"116 662 OFFCURVE",
"113 643 CURVE SMOOTH",
"108 613 LINE",
"117 613 LINE",
"122 646 OFFCURVE",
"146 658 OFFCURVE",
"182 658 CURVE SMOOTH",
"266 658 LINE",
"123 547 LINE",
"133 523 LINE",
"152 528 OFFCURVE",
"172 529 OFFCURVE",
"187 529 CURVE SMOOTH",
"211 529 OFFCURVE",
"234 514 OFFCURVE",
"234 478 CURVE SMOOTH",
"234 423 OFFCURVE",
"196 389 OFFCURVE",
"156 389 CURVE SMOOTH",
"122 389 OFFCURVE",
"96 401 OFFCURVE",
"78 425 CURVE",
"67 416 LINE",
"86 385 OFFCURVE",
"109 367 OFFCURVE",
"156 367 CURVE SMOOTH",
"199 367 OFFCURVE",
"287 389 OFFCURVE",
"287 480 CURVE SMOOTH",
"287 533 OFFCURVE",
"237 551 OFFCURVE",
"200 551 CURVE SMOOTH",
"193 551 OFFCURVE",
"175 551 OFFCURVE",
"158 547 CURVE"
);
}
);
width = 617;
},
{
layerId = "F7C9FF73-DC1F-4AC6-B1F4-3E0815F912B2";
paths = (
{
closed = 1;
nodes = (
"92 0 LINE",
"663 660 LINE",
"568 660 LINE",
"-3 0 LINE"
);
},
{
closed = 1;
nodes = (
"553 304 LINE",
"486 304 LINE",
"300 97 LINE",
"295 73 LINE",
"440 73 LINE",
"428 0 LINE",
"500 0 LINE",
"512 73 LINE",
"546 73 LINE",
"551 100 LINE",
"517 100 LINE"
);
},
{
closed = 1;
nodes = (
"339 100 LINE",
"471 246 LINE",
"445 100 LINE"
);
},
{
closed = 1;
nodes = (
"306 662 LINE",
"309 680 LINE",
"156 680 LINE SMOOTH",
"124 680 OFFCURVE",
"114 662 OFFCURVE",
"111 643 CURVE SMOOTH",
"105 610 LINE",
"118 610 LINE",
"123 639 OFFCURVE",
"142 653 OFFCURVE",
"176 653 CURVE SMOOTH",
"254 653 LINE",
"117 546 LINE",
"128 518 LINE",
"147 523 OFFCURVE",
"157 524 OFFCURVE",
"172 524 CURVE SMOOTH",
"199 524 OFFCURVE",
"222 513 OFFCURVE",
"222 478 CURVE SMOOTH",
"222 435 OFFCURVE",
"195 394 OFFCURVE",
"155 394 CURVE SMOOTH",
"122 394 OFFCURVE",
"96 406 OFFCURVE",
"78 430 CURVE",
"62 418 LINE",
"82 387 OFFCURVE",
"108 367 OFFCURVE",
"164 367 CURVE SMOOTH",
"231 367 OFFCURVE",
"294 411 OFFCURVE",
"294 478 CURVE SMOOTH",
"294 530 OFFCURVE",
"245 551 OFFCURVE",
"198 551 CURVE SMOOTH",
"191 551 OFFCURVE",
"175 551 OFFCURVE",
"158 547 CURVE"
);
}
);
width = 627;
}
);
unicode = 00BE;
},
{
glyphname = questiondown;
lastChange = "2016-08-26 10:24:29 +0000";
layers = (
{
layerId = UUID0;
paths = (
{
closed = 1;
nodes = (
"311 372 OFFCURVE",
"343 401 OFFCURVE",
"343 436 CURVE SMOOTH",
"343 461 OFFCURVE",
"325 481 OFFCURVE",
"297 481 CURVE SMOOTH",
"262 481 OFFCURVE",
"232 451 OFFCURVE",
"232 416 CURVE SMOOTH",
"232 389 OFFCURVE",
"251 372 OFFCURVE",
"278 372 CURVE SMOOTH"
);
},
{
closed = 1;
nodes = (
"248 312 LINE",
"193 151 OFFCURVE",
"-26 139 OFFCURVE",
"-26 -69 CURVE SMOOTH",
"-26 -188 OFFCURVE",
"73 -212 OFFCURVE",
"145 -212 CURVE SMOOTH",
"225 -212 OFFCURVE",
"306 -176 OFFCURVE",
"350 -132 CURVE SMOOTH",
"378 -104 OFFCURVE",
"398 -36 OFFCURVE",
"398 -2 CURVE",
"378 -2 LINE",
"339 -113 OFFCURVE",
"262 -172 OFFCURVE",
"182 -172 CURVE SMOOTH",
"122 -172 OFFCURVE",
"75 -135 OFFCURVE",
"75 -60 CURVE SMOOTH",
"75 105 OFFCURVE",
"252 148 OFFCURVE",
"288 312 CURVE"
);
}
);
width = 478;
},
{
layerId = "F7C9FF73-DC1F-4AC6-B1F4-3E0815F912B2";
paths = (
{
closed = 1;
nodes = (
"143 -167 OFFCURVE",
"109 -144 OFFCURVE",
"109 -73 CURVE SMOOTH",
"109 99 OFFCURVE",
"263 163 OFFCURVE",
"300 312 CURVE",
"232 312 LINE",
"196 165 OFFCURVE",
"-30 132 OFFCURVE",
"-30 -58 CURVE SMOOTH",
"-30 -158 OFFCURVE",
"46 -212 OFFCURVE",
"154 -212 CURVE SMOOTH",
"236 -212 OFFCURVE",
"325 -174 OFFCURVE",
"367 -130 CURVE SMOOTH",
"400 -97 OFFCURVE",
"410 -38 OFFCURVE",
"421 21 CURVE",
"391 21 LINE",
"342 -114 OFFCURVE",
"269 -167 OFFCURVE",
"192 -167 CURVE SMOOTH"
);
},
{
closed = 1;
nodes = (
"223 378 OFFCURVE",
"241 360 OFFCURVE",
"274 360 CURVE SMOOTH",
"317 360 OFFCURVE",
"347 395 OFFCURVE",
"347 434 CURVE SMOOTH",
"347 463 OFFCURVE",
"330 482 OFFCURVE",
"295 482 CURVE SMOOTH",
"250 482 OFFCURVE",
"223 445 OFFCURVE",
"223 406 CURVE SMOOTH"
);
}
);
width = 492;
}
);
unicode = 00BF;
},
{
glyphname = Aring;
lastChange = "2016-08-26 10:24:29 +0000";
layers = (
{
layerId = UUID0;
paths = (
{
closed = 1;
nodes = (
"309 653 OFFCURVE",
"331 634 OFFCURVE",
"352 625 CURVE",
"-23 0 LINE",
"22 0 LINE",
"135 190 LINE",
"415 190 LINE",
"429 125 LINE SMOOTH",
"453 9 OFFCURVE",
"531 -5 OFFCURVE",
"576 -5 CURVE SMOOTH",
"591 -5 OFFCURVE",
"605 -3 OFFCURVE",
"617 0 CURVE",
"620 20 LINE",
"566 25 OFFCURVE",
"545 49 OFFCURVE",
"529 125 CURVE",
"412 625 LINE",
"452 644 OFFCURVE",
"482 677 OFFCURVE",
"482 718 CURVE SMOOTH",
"482 757 OFFCURVE",
"451 790 OFFCURVE",
"411 790 CURVE SMOOTH",
"358 790 OFFCURVE",
"309 738 OFFCURVE",
"309 688 CURVE SMOOTH"
);
},
{
closed = 1;
nodes = (
"333 520 LINE",
"402 230 LINE",
"157 230 LINE"
);
},
{
closed = 1;
nodes = (
"428 755 OFFCURVE",
"442 740 OFFCURVE",
"442 716 CURVE SMOOTH",
"442 691 OFFCURVE",
"427 671 OFFCURVE",
"408 660 CURVE",
"368 660 LINE",
"356 669 OFFCURVE",
"350 680 OFFCURVE",
"350 695 CURVE SMOOTH",
"350 727 OFFCURVE",
"376 755 OFFCURVE",
"405 755 CURVE SMOOTH"
);
}
);
width = 634;
},
{
layerId = "F7C9FF73-DC1F-4AC6-B1F4-3E0815F912B2";
paths = (
{
closed = 1;
nodes = (
"501 769 OFFCURVE",
"469 800 OFFCURVE",
"421 800 CURVE SMOOTH",
"359 800 OFFCURVE",
"307 746 OFFCURVE",
"307 688 CURVE SMOOTH",
"307 653 OFFCURVE",
"329 630 OFFCURVE",
"348 619 CURVE",
"-37 0 LINE",
"15 0 LINE",
"129 182 LINE",
"395 182 LINE",
"408 126 LINE SMOOTH",
"434 12 OFFCURVE",
"518 -4 OFFCURVE",
"582 -4 CURVE SMOOTH",
"597 -4 OFFCURVE",
"620 -2 OFFCURVE",
"631 1 CURVE",
"635 26 LINE",
"591 31 OFFCURVE",
"564 67 OFFCURVE",
"549 126 CURVE SMOOTH",
"429 619 LINE",
"472 640 OFFCURVE",
"501 680 OFFCURVE",
"501 724 CURVE SMOOTH"
);
},
{
closed = 1;
nodes = (
"320 488 LINE",
"384 227 LINE",
"158 227 LINE"
);
},
{
closed = 1;
nodes = (
"374 660 LINE",
"363 669 OFFCURVE",
"358 680 OFFCURVE",
"358 693 CURVE SMOOTH",
"358 726 OFFCURVE",
"382 755 OFFCURVE",
"413 755 CURVE SMOOTH",
"436 755 OFFCURVE",
"450 740 OFFCURVE",
"450 716 CURVE SMOOTH",
"450 691 OFFCURVE",
"438 671 OFFCURVE",
"419 660 CURVE"
);
}
);
width = 647;
}
);
leftKerningGroup = A;
rightKerningGroup = A;
unicode = 00C5;
},
{
glyphname = AE;
lastChange = "2016-08-26 10:24:29 +0000";
layers = (
{
layerId = UUID0;
paths = (
{
closed = 1;
nodes = (
"428 660 LINE",
"-58 0 LINE",
"-8 0 LINE",
"130 190 LINE",
"370 190 LINE",
"337 0 LINE",
"429 0 LINE",
"682 0 LINE SMOOTH",
"722 0 OFFCURVE",
"749 19 OFFCURVE",
"765 50 CURVE SMOOTH",
"817 145 LINE",
"798 150 LINE",
"754 70 OFFCURVE",
"700 40 OFFCURVE",
"609 40 CURVE SMOOTH",
"434 40 LINE",
"483 320 LINE",
"753 320 LINE",
"760 360 LINE",
"490 360 LINE",
"536 620 LINE",
"722 620 LINE SMOOTH",
"791 620 OFFCURVE",
"830 595 OFFCURVE",
"830 535 CURVE SMOOTH",
"830 526 OFFCURVE",
"829 516 OFFCURVE",
"827 505 CURVE",
"847 505 LINE",
"860 588 OFFCURVE",
"862 594 OFFCURVE",
"862 602 CURVE SMOOTH",
"862 634 OFFCURVE",
"846 660 OFFCURVE",
"789 660 CURVE SMOOTH"
);
},
{
closed = 1;
nodes = (
"445 615 LINE",
"377 230 LINE",
"162 230 LINE"
);
}
);
width = 870;
},
{
layerId = "F7C9FF73-DC1F-4AC6-B1F4-3E0815F912B2";
paths = (
{
closed = 1;
nodes = (
"420 660 LINE",
"-66 0 LINE",
"-6 0 LINE",
"134 190 LINE",
"352 190 LINE",
"319 0 LINE",
"449 0 LINE",
"689 0 LINE SMOOTH",
"744 0 OFFCURVE",
"765 27 OFFCURVE",
"788 70 CURVE SMOOTH",
"831 149 LINE",
"806 159 LINE",
"755 72 OFFCURVE",
"700 45 OFFCURVE",
"627 45 CURVE SMOOTH",
"456 45 LINE",
"505 320 LINE",
"765 320 LINE",
"773 365 LINE",
"513 365 LINE",
"557 615 LINE",
"718 615 LINE SMOOTH",
"787 615 OFFCURVE",
"825 589 OFFCURVE",
"825 528 CURVE SMOOTH",
"825 518 OFFCURVE",
"824 507 OFFCURVE",
"822 495 CURVE",
"852 495 LINE",
"868 587 OFFCURVE",
"869 595 OFFCURVE",
"869 602 CURVE SMOOTH",
"869 634 OFFCURVE",
"853 660 OFFCURVE",
"796 660 CURVE SMOOTH"
);
},
{
closed = 1;
nodes = (
"167 235 LINE",
"421 579 LINE",
"360 235 LINE"
);
}
);
width = 873;
}
);
unicode = 00C6;
},
{
glyphname = Ccedilla;
lastChange = "2016-08-26 10:24:29 +0000";
layers = (
{
layerId = UUID0;
paths = (
{
closed = 1;
nodes = (
"301 -196 LINE",
"354 -193 OFFCURVE",
"395 -160 OFFCURVE",
"395 -108 CURVE SMOOTH",
"395 -69 OFFCURVE",
"367 -50 OFFCURVE",
"327 -50 CURVE SMOOTH",
"317 -50 LINE",
"322 -20 LINE",
"433 -15 OFFCURVE",
"523 28 OFFCURVE",
"606 145 CURVE",
"589 160 LINE",
"517 69 OFFCURVE",
"439 20 OFFCURVE",
"339 20 CURVE SMOOTH",
"199 20 OFFCURVE",
"145 122 OFFCURVE",
"145 241 CURVE SMOOTH",
"145 428 OFFCURVE",
"244 640 OFFCURVE",
"448 640 CURVE SMOOTH",
"559 640 OFFCURVE",
"617 581 OFFCURVE",
"620 450 CURVE",
"640 450 LINE",
"645 485 OFFCURVE",
"652 517 OFFCURVE",
"652 550 CURVE SMOOTH",
"652 657 OFFCURVE",
"502 680 OFFCURVE",
"425 680 CURVE SMOOTH",
"205 680 OFFCURVE",
"45 436 OFFCURVE",
"45 245 CURVE SMOOTH",
"45 99 OFFCURVE",
"129 -12 OFFCURVE",
"277 -20 CURVE",
"265 -90 LINE",
"310 -90 LINE SMOOTH",
"333 -90 OFFCURVE",
"345 -98 OFFCURVE",
"345 -115 CURVE SMOOTH",
"345 -142 OFFCURVE",
"322 -155 OFFCURVE",
"298 -155 CURVE SMOOTH",
"248 -155 LINE",
"241 -196 LINE"
);
}
);
width = 666;
},
{
layerId = "F7C9FF73-DC1F-4AC6-B1F4-3E0815F912B2";
paths = (
{
closed = 1;
nodes = (
"660 447 LINE",
"667 482 OFFCURVE",
"672 514 OFFCURVE",
"672 545 CURVE SMOOTH",
"672 660 OFFCURVE",
"521 680 OFFCURVE",
"438 680 CURVE SMOOTH",
"205 680 OFFCURVE",
"38 451 OFFCURVE",
"38 246 CURVE SMOOTH",
"38 105 OFFCURVE",
"118 -1 OFFCURVE",
"271 -17 CURVE",
"257 -95 LINE",
"302 -95 LINE SMOOTH",
"325 -95 OFFCURVE",
"336 -107 OFFCURVE",
"336 -123 CURVE",
"333 -146 OFFCURVE",
"315 -160 OFFCURVE",
"290 -160 CURVE SMOOTH",
"240 -160 LINE",
"232 -206 LINE",
"302 -206 LINE SMOOTH",
"359 -206 OFFCURVE",
"407 -169 OFFCURVE",
"407 -113 CURVE SMOOTH",
"407 -74 OFFCURVE",
"379 -50 OFFCURVE",
"330 -50 CURVE",
"335 -19 LINE",
"464 -15 OFFCURVE",
"552 34 OFFCURVE",
"631 141 CURVE",
"601 168 LINE",
"537 75 OFFCURVE",
"445 25 OFFCURVE",
"353 25 CURVE SMOOTH",
"225 25 OFFCURVE",
"177 116 OFFCURVE",
"177 232 CURVE SMOOTH",
"177 408 OFFCURVE",
"259 635 OFFCURVE",
"460 635 CURVE SMOOTH",
"571 635 OFFCURVE",
"627 568 OFFCURVE",
"630 447 CURVE"
);
}
);
width = 680;
}
);
leftKerningGroup = C;
rightKerningGroup = C;
unicode = 00C7;
},
{
glyphname = Idieresis;
lastChange = "2016-08-26 10:24:29 +0000";
layers = (
{
layerId = UUID0;
paths = (
{
closed = 1;
nodes = (
"63 120 LINE",
"59 96 OFFCURVE",
"56 77 OFFCURVE",
"56 61 CURVE SMOOTH",
"56 12 OFFCURVE",
"79 0 OFFCURVE",
"132 0 CURVE SMOOTH",
"222 0 LINE",
"225 20 LINE",
"205 20 LINE SMOOTH",
"162 20 OFFCURVE",
"148 40 OFFCURVE",
"148 75 CURVE SMOOTH",
"148 86 OFFCURVE",
"150 101 OFFCURVE",
"153 120 CURVE SMOOTH",
"248 660 LINE",
"158 660 LINE"
);
},
{
closed = 1;
nodes = (
"349 800 OFFCURVE",
"334 815 OFFCURVE",
"307 815 CURVE SMOOTH",
"272 815 OFFCURVE",
"247 786 OFFCURVE",
"247 755 CURVE SMOOTH",
"247 731 OFFCURVE",
"263 715 OFFCURVE",
"290 715 CURVE SMOOTH",
"326 715 OFFCURVE",
"349 745 OFFCURVE",
"349 777 CURVE SMOOTH"
);
},
{
closed = 1;
nodes = (
"195 800 OFFCURVE",
"180 815 OFFCURVE",
"153 815 CURVE SMOOTH",
"118 815 OFFCURVE",
"93 786 OFFCURVE",
"93 755 CURVE SMOOTH",
"93 731 OFFCURVE",
"109 715 OFFCURVE",
"136 715 CURVE SMOOTH",
"172 715 OFFCURVE",
"195 745 OFFCURVE",
"195 777 CURVE SMOOTH"
);
}
);
width = 289;
},
{
components = (
{
name = I;
},
{
name = dieresis;
transform = "{1, 0, 0, 1, 10, 25}";
}
);
layerId = "F7C9FF73-DC1F-4AC6-B1F4-3E0815F912B2";
width = 307;
}
);
leftKerningGroup = I;
rightKerningGroup = H;
unicode = 00CF;
},
{
glyphname = Eth;
lastChange = "2016-08-26 10:24:29 +0000";
layers = (
{
layerId = UUID0;
paths = (
{
closed = 1;
nodes = (
"38 310 LINE",
"113 310 LINE",
"59 0 LINE",
"153 0 LINE",
"257 0 LINE SMOOTH",
"506 0 OFFCURVE",
"689 172 OFFCURVE",
"689 405 CURVE SMOOTH",
"689 563 OFFCURVE",
"578 660 OFFCURVE",
"347 660 CURVE SMOOTH",
"85 660 LINE",
"81 640 LINE",
"101 640 LINE SMOOTH",
"145 640 OFFCURVE",
"158 618 OFFCURVE",
"158 583 CURVE SMOOTH",
"158 570 OFFCURVE",
"157 556 OFFCURVE",
"154 540 CURVE SMOOTH",
"120 350 LINE",
"45 350 LINE"
);
},
{
closed = 1;
nodes = (
"259 609 LINE",
"298 620 OFFCURVE",
"333 625 OFFCURVE",
"362 625 CURVE SMOOTH",
"495 625 OFFCURVE",
"579 537 OFFCURVE",
"579 398 CURVE SMOOTH",
"579 216 OFFCURVE",
"448 35 OFFCURVE",
"260 35 CURVE SMOOTH",
"233 35 OFFCURVE",
"199 39 OFFCURVE",
"160 48 CURVE",
"206 310 LINE",
"293 310 LINE",
"300 350 LINE",
"213 350 LINE"
);
}
);
width = 716;
},
{
layerId = "F7C9FF73-DC1F-4AC6-B1F4-3E0815F912B2";
paths = (
{
closed = 1;
nodes = (
"84 660 LINE",
"79 630 LINE",
"89 630 LINE SMOOTH",
"132 630 OFFCURVE",
"146 610 OFFCURVE",
"146 575 CURVE SMOOTH",
"146 562 OFFCURVE",
"145 547 OFFCURVE",
"110 355 CURVE",
"40 355 LINE",
"31 305 LINE",
"101 305 LINE",
"48 0 LINE",
"178 0 LINE",
"266 0 LINE SMOOTH",
"518 0 OFFCURVE",
"717 161 OFFCURVE",
"717 402 CURVE SMOOTH",
"717 563 OFFCURVE",
"597 660 OFFCURVE",
"356 660 CURVE SMOOTH"
);
},
{
closed = 1;
nodes = (
"370 620 LINE",
"494 620 OFFCURVE",
"568 536 OFFCURVE",
"568 403 CURVE SMOOTH",
"568 230 OFFCURVE",
"454 40 OFFCURVE",
"270 40 CURVE SMOOTH",
"260 40 LINE SMOOTH",
"240 40 OFFCURVE",
"221 40 OFFCURVE",
"208 43 CURVE SMOOTH",
"186 47 LINE",
"231 305 LINE",
"306 305 LINE",
"315 355 LINE",
"240 355 LINE",
"286 613 LINE",
"309 616 LINE",
"324 619 OFFCURVE",
"342 620 OFFCURVE",
"362 620 CURVE SMOOTH"
);
}
);
width = 737;
}
);
leftKerningGroup = B;
rightKerningGroup = D;
unicode = 00D0;
},
{
glyphname = multiply;
lastChange = "2016-08-26 10:24:29 +0000";
layers = (
{
layerId = UUID0;
paths = (
{
closed = 1;
nodes = (
"354 149 LINE",
"403 191 LINE",
"287 333 LINE",
"453 474 LINE",
"419 517 LINE",
"253 375 LINE",
"136 517 LINE",
"86 475 LINE",
"202 333 LINE",
"36 192 LINE",
"71 149 LINE",
"237 291 LINE"
);
}
);
width = 471;
},
{
layerId = "F7C9FF73-DC1F-4AC6-B1F4-3E0815F912B2";
paths = (
{
closed = 1;
nodes = (
"357 133 LINE",
"432 196 LINE",
"318 334 LINE",
"483 474 LINE",
"430 537 LINE",
"267 398 LINE",
"153 536 LINE",
"78 472 LINE",
"191 334 LINE",
"28 195 LINE",
"80 132 LINE",
"244 271 LINE"
);
}
);
width = 490;
}
);
unicode = 00D7;
},
{
glyphname = Oslash;
lastChange = "2016-08-26 10:24:29 +0000";
layers = (
{
layerId = UUID0;
paths = (
{
closed = 1;
nodes = (
"146 -20 LINE",
"169 12 LINE",
"206 -9 OFFCURVE",
"251 -20 OFFCURVE",
"303 -20 CURVE SMOOTH",
"535 -20 OFFCURVE",
"682 207 OFFCURVE",
"682 407 CURVE SMOOTH",
"682 494 OFFCURVE",
"654 566 OFFCURVE",
"603 615 CURVE",
"650 680 LINE",
"577 680 LINE",
"555 650 LINE",
"519 669 OFFCURVE",
"477 680 OFFCURVE",
"426 680 CURVE SMOOTH",
"194 680 OFFCURVE",
"48 450 OFFCURVE",
"48 251 CURVE SMOOTH",
"48 167 OFFCURVE",
"74 97 OFFCURVE",
"122 48 CURVE",
"73 -20 LINE"
);
},
{
closed = 1;
nodes = (
"267 20 OFFCURVE",
"231 33 OFFCURVE",
"203 59 CURVE",
"559 554 LINE",
"576 519 OFFCURVE",
"584 476 OFFCURVE",
"584 426 CURVE SMOOTH",
"584 263 OFFCURVE",
"500 20 OFFCURVE",
"310 20 CURVE SMOOTH"
);
},
{
closed = 1;
nodes = (
"460 640 OFFCURVE",
"495 628 OFFCURVE",
"522 604 CURVE",
"167 111 LINE",
"152 144 OFFCURVE",
"145 184 OFFCURVE",
"145 229 CURVE SMOOTH",
"145 392 OFFCURVE",
"227 640 OFFCURVE",
"419 640 CURVE SMOOTH"
);
}
);
width = 712;
},
{
layerId = "F7C9FF73-DC1F-4AC6-B1F4-3E0815F912B2";
paths = (
{
closed = 1;
nodes = (
"147 -20 LINE",
"173 13 LINE",
"212 -8 OFFCURVE",
"259 -20 OFFCURVE",
"315 -20 CURVE SMOOTH",
"550 -20 OFFCURVE",
"712 196 OFFCURVE",
"712 403 CURVE SMOOTH",
"712 487 OFFCURVE",
"686 558 OFFCURVE",
"635 607 CURVE",
"691 680 LINE",
"599 680 LINE",
"576 649 LINE",
"536 670 OFFCURVE",
"490 680 OFFCURVE",
"438 680 CURVE SMOOTH",
"202 680 OFFCURVE",
"40 462 OFFCURVE",
"40 254 CURVE SMOOTH",
"40 173 OFFCURVE",
"65 104 OFFCURVE",
"113 56 CURVE",
"55 -20 LINE"
);
},
{
closed = 1;
nodes = (
"277 25 OFFCURVE",
"242 40 OFFCURVE",
"217 70 CURVE",
"569 522 LINE",
"575 498 OFFCURVE",
"578 470 OFFCURVE",
"578 438 CURVE SMOOTH",
"578 284 OFFCURVE",
"511 25 OFFCURVE",
"323 25 CURVE SMOOTH"
);
},
{
closed = 1;
nodes = (
"472 635 OFFCURVE",
"506 621 OFFCURVE",
"532 593 CURVE",
"183 145 LINE",
"179 168 OFFCURVE",
"176 191 OFFCURVE",
"176 218 CURVE SMOOTH",
"176 372 OFFCURVE",
"243 635 OFFCURVE",
"430 635 CURVE SMOOTH"
);
}
);
width = 734;
}
);
leftKerningGroup = C;
rightKerningGroup = O;
unicode = 00D8;
},
{
glyphname = Thorn;
lastChange = "2016-08-26 10:24:29 +0000";
layers = (
{
layerId = UUID0;
paths = (
{
closed = 1;
nodes = (
"242 510 LINE",
"370 510 OFFCURVE",
"422 452 OFFCURVE",
"422 363 CURVE SMOOTH",
"422 209 OFFCURVE",
"318 120 OFFCURVE",
"174 120 CURVE"
);
},
{
closed = 1;
nodes = (
"260 615 OFFCURVE",
"262 625 OFFCURVE",
"262 636 CURVE SMOOTH",
"262 677 OFFCURVE",
"240 690 OFFCURVE",
"184 690 CURVE SMOOTH",
"94 690 LINE",
"91 670 LINE",
"111 670 LINE SMOOTH",
"150 670 OFFCURVE",
"170 654 OFFCURVE",
"170 623 CURVE SMOOTH",
"170 615 OFFCURVE",
"169 610 OFFCURVE",
"57 -30 CURVE",
"147 -30 LINE",
"167 80 LINE",
"359 85 OFFCURVE",
"522 166 OFFCURVE",
"522 364 CURVE SMOOTH",
"522 488 OFFCURVE",
"428 550 OFFCURVE",
"249 550 CURVE"
);
}
);
width = 537;
},
{
layerId = "F7C9FF73-DC1F-4AC6-B1F4-3E0815F912B2";
paths = (
{
closed = 1;
nodes = (
"284 585 OFFCURVE",
"286 606 OFFCURVE",
"286 623 CURVE SMOOTH",
"286 674 OFFCURVE",
"264 690 OFFCURVE",
"212 690 CURVE SMOOTH",
"92 690 LINE",
"87 660 LINE",
"97 660 LINE SMOOTH",
"140 660 OFFCURVE",
"154 640 OFFCURVE",
"154 605 CURVE SMOOTH",
"154 592 OFFCURVE",
"153 577 OFFCURVE",
"45 -30 CURVE",
"175 -30 LINE",
"195 80 LINE",
"384 91 OFFCURVE",
"550 163 OFFCURVE",
"550 363 CURVE SMOOTH",
"550 484 OFFCURVE",
"459 546 OFFCURVE",
"277 550 CURVE"
);
},
{
closed = 1;
nodes = (
"269 504 LINE",
"366 497 OFFCURVE",
"410 446 OFFCURVE",
"410 363 CURVE SMOOTH",
"410 231 OFFCURVE",
"330 136 OFFCURVE",
"203 125 CURVE"
);
}
);
width = 557;
}
);
leftKerningGroup = B;
unicode = 00DE;
},
{
glyphname = germandbls;
lastChange = "2016-08-26 10:24:29 +0000";
layers = (
{
layerId = UUID0;
paths = (
{
closed = 1;
nodes = (
"248 220 OFFCURVE",
"412 205 OFFCURVE",
"412 115 CURVE SMOOTH",
"412 61 OFFCURVE",
"364 30 OFFCURVE",
"319 30 CURVE SMOOTH",
"261 30 OFFCURVE",
"223 68 OFFCURVE",
"223 107 CURVE SMOOTH",
"223 110 LINE",
"203 110 LINE",
"200 99 OFFCURVE",
"199 87 OFFCURVE",
"199 75 CURVE SMOOTH",
"199 7 OFFCURVE",
"280 -10 OFFCURVE",
"332 -10 CURVE SMOOTH",
"424 -10 OFFCURVE",
"502 51 OFFCURVE",
"502 141 CURVE SMOOTH",
"502 251 OFFCURVE",
"338 264 OFFCURVE",
"338 355 CURVE SMOOTH",
"338 452 OFFCURVE",
"490 480 OFFCURVE",
"490 584 CURVE SMOOTH",
"490 635 OFFCURVE",
"438 670 OFFCURVE",
"337 670 CURVE SMOOTH",
"232 670 OFFCURVE",
"136 640 OFFCURVE",
"112 500 CURVE SMOOTH",
"24 0 LINE",
"114 0 LINE",
"202 500 LINE SMOOTH",
"219 600 OFFCURVE",
"260 630 OFFCURVE",
"325 630 CURVE SMOOTH",
"377 630 OFFCURVE",
"402 608 OFFCURVE",
"402 569 CURVE SMOOTH",
"402 462 OFFCURVE",
"248 444 OFFCURVE",
"248 329 CURVE SMOOTH"
);
}
);
width = 554;
},
{
layerId = "F7C9FF73-DC1F-4AC6-B1F4-3E0815F912B2";
paths = (
{
closed = 1;
nodes = (
"246 220 OFFCURVE",
"400 206 OFFCURVE",
"400 116 CURVE SMOOTH",
"400 67 OFFCURVE",
"361 35 OFFCURVE",
"318 35 CURVE SMOOTH",
"259 35 OFFCURVE",
"233 76 OFFCURVE",
"233 116 CURVE SMOOTH",
"233 120 LINE",
"203 120 LINE",
"200 108 OFFCURVE",
"198 93 OFFCURVE",
"198 77 CURVE SMOOTH",
"198 7 OFFCURVE",
"275 -10 OFFCURVE",
"330 -10 CURVE SMOOTH",
"422 -10 OFFCURVE",
"530 41 OFFCURVE",
"530 140 CURVE SMOOTH",
"530 252 OFFCURVE",
"356 264 OFFCURVE",
"356 356 CURVE SMOOTH",
"356 440 OFFCURVE",
"518 460 OFFCURVE",
"518 584 CURVE SMOOTH",
"518 636 OFFCURVE",
"466 670 OFFCURVE",
"345 670 CURVE SMOOTH",
"221 670 OFFCURVE",
"124 640 OFFCURVE",
"100 500 CURVE SMOOTH",
"12 0 LINE",
"142 0 LINE",
"230 500 LINE SMOOTH",
"247 595 OFFCURVE",
"287 625 OFFCURVE",
"332 625 CURVE SMOOTH",
"367 625 OFFCURVE",
"390 606 OFFCURVE",
"390 569 CURVE SMOOTH",
"390 466 OFFCURVE",
"246 437 OFFCURVE",
"246 328 CURVE SMOOTH"
);
}
);
width = 574;
}
);
unicode = 00DF;
},
{
glyphname = ae;
lastChange = "2016-08-26 10:24:29 +0000";
layers = (
{
layerId = UUID0;
paths = (
{
closed = 1;
nodes = (
"506 210 LINE",
"615 210 OFFCURVE",
"717 257 OFFCURVE",
"717 366 CURVE SMOOTH",
"717 430 OFFCURVE",
"674 480 OFFCURVE",
"555 480 CURVE SMOOTH",
"490 480 OFFCURVE",
"428 441 OFFCURVE",
"399 390 CURVE",
"388 441 OFFCURVE",
"346 480 OFFCURVE",
"275 480 CURVE SMOOTH",
"213 480 OFFCURVE",
"149 470 OFFCURVE",
"119 445 CURVE SMOOTH",
"90 420 OFFCURVE",
"85 390 OFFCURVE",
"78 355 CURVE",
"123 355 LINE",
"150 420 OFFCURVE",
"192 440 OFFCURVE",
"248 440 CURVE SMOOTH",
"296 440 OFFCURVE",
"330 422 OFFCURVE",
"330 342 CURVE SMOOTH",
"330 320 OFFCURVE",
"327 293 OFFCURVE",
"321 260 CURVE",
"291 260 LINE SMOOTH",
"167 260 OFFCURVE",
"10 229 OFFCURVE",
"10 97 CURVE SMOOTH",
"10 14 OFFCURVE",
"86 -10 OFFCURVE",
"149 -10 CURVE SMOOTH",
"236 -10 OFFCURVE",
"284 20 OFFCURVE",
"324 75 CURVE",
"349 19 OFFCURVE",
"400 -10 OFFCURVE",
"479 -10 CURVE SMOOTH",
"555 -10 OFFCURVE",
"618 19 OFFCURVE",
"677 95 CURVE",
"660 110 LINE",
"616 59 OFFCURVE",
"571 30 OFFCURVE",
"506 30 CURVE SMOOTH",
"435 30 OFFCURVE",
"399 84 OFFCURVE",
"399 165 CURVE SMOOTH",
"399 179 OFFCURVE",
"400 194 OFFCURVE",
"402 210 CURVE"
);
},
{
closed = 1;
nodes = (
"411 260 LINE",
"430 360 OFFCURVE",
"491 435 OFFCURVE",
"552 435 CURVE SMOOTH",
"601 435 OFFCURVE",
"622 411 OFFCURVE",
"622 364 CURVE SMOOTH",
"622 292 OFFCURVE",
"572 250 OFFCURVE",
"508 250 CURVE SMOOTH",
"409 250 LINE"
);
},
{
closed = 1;
nodes = (
"292 95 LINE",
"267 64 OFFCURVE",
"238 35 OFFCURVE",
"187 35 CURVE SMOOTH",
"143 35 OFFCURVE",
"106 59 OFFCURVE",
"106 106 CURVE SMOOTH",
"106 197 OFFCURVE",
"215 220 OFFCURVE",
"284 220 CURVE SMOOTH",
"314 220 LINE"
);
}
);
width = 752;
},
{
layerId = "F7C9FF73-DC1F-4AC6-B1F4-3E0815F912B2";
paths = (
{
closed = 1;
nodes = (
"455 255 LINE",
"479 385 OFFCURVE",
"531 435 OFFCURVE",
"582 435 CURVE SMOOTH",
"613 435 OFFCURVE",
"641 409 OFFCURVE",
"641 357 CURVE SMOOTH",
"641 301 OFFCURVE",
"613 255 OFFCURVE",
"560 255 CURVE SMOOTH"
);
},
{
closed = 1;
nodes = (
"289 105 LINE",
"282 92 OFFCURVE",
"273 81 OFFCURVE",
"263 72 CURVE SMOOTH",
"246 56 OFFCURVE",
"220 40 OFFCURVE",
"188 40 CURVE SMOOTH",
"153 40 OFFCURVE",
"135 65 OFFCURVE",
"135 100 CURVE SMOOTH",
"135 197 OFFCURVE",
"214 217 OFFCURVE",
"294 217 CURVE SMOOTH",
"309 217 LINE"
);
},
{
closed = 1;
nodes = (
"553 210 LINE",
"664 210 OFFCURVE",
"771 237 OFFCURVE",
"771 356 CURVE SMOOTH",
"771 432 OFFCURVE",
"707 480 OFFCURVE",
"590 480 CURVE SMOOTH",
"526 480 OFFCURVE",
"463 450 OFFCURVE",
"414 389 CURVE",
"394 445 OFFCURVE",
"340 480 OFFCURVE",
"255 480 CURVE SMOOTH",
"211 480 OFFCURVE",
"147 471 OFFCURVE",
"119 445 CURVE SMOOTH",
"90 418 OFFCURVE",
"83 380 OFFCURVE",
"76 345 CURVE",
"131 345 LINE",
"160 420 OFFCURVE",
"202 435 OFFCURVE",
"247 435 CURVE SMOOTH",
"298 435 OFFCURVE",
"324 405 OFFCURVE",
"324 334 CURVE SMOOTH",
"324 311 OFFCURVE",
"322 287 OFFCURVE",
"317 262 CURVE",
"302 262 LINE SMOOTH",
"177 262 OFFCURVE",
"0 241 OFFCURVE",
"0 97 CURVE SMOOTH",
"0 33 OFFCURVE",
"51 -10 OFFCURVE",
"159 -10 CURVE SMOOTH",
"254 -10 OFFCURVE",
"318 35 OFFCURVE",
"350 80 CURVE",
"379 20 OFFCURVE",
"430 -10 OFFCURVE",
"504 -10 CURVE SMOOTH",
"614 -10 OFFCURVE",
"674 50 OFFCURVE",
"711 95 CURVE",
"684 118 LINE",
"641 71 OFFCURVE",
"596 35 OFFCURVE",
"527 35 CURVE SMOOTH",
"475 35 OFFCURVE",
"441 66 OFFCURVE",
"441 145 CURVE SMOOTH",
"441 163 OFFCURVE",
"443 184 OFFCURVE",
"447 207 CURVE SMOOTH",
"448 210 LINE"
);
}
);
width = 792;
}
);
leftKerningGroup = a;
rightKerningGroup = e;
unicode = 00E6;
},
{
glyphname = ccedilla;
lastChange = "2016-08-26 10:24:29 +0000";
layers = (
{
layerId = UUID0;
paths = (
{
closed = 1;
nodes = (
"131 480 OFFCURVE",
"33 320 OFFCURVE",
"33 174 CURVE SMOOTH",
"33 78 OFFCURVE",
"79 1 OFFCURVE",
"186 -10 CURVE",
"175 -71 LINE",
"230 -71 OFFCURVE",
"249 -79 OFFCURVE",
"249 -102 CURVE SMOOTH",
"249 -150 OFFCURVE",
"192 -151 OFFCURVE",
"161 -151 CURVE",
"156 -181 LINE",
"223 -181 OFFCURVE",
"290 -165 OFFCURVE",
"290 -93 CURVE SMOOTH",
"290 -56 OFFCURVE",
"264 -44 OFFCURVE",
"220 -41 CURVE",
"226 -10 LINE",
"302 -5 OFFCURVE",
"363 23 OFFCURVE",
"419 95 CURVE",
"402 110 LINE",
"358 59 OFFCURVE",
"314 30 OFFCURVE",
"243 30 CURVE SMOOTH",
"163 30 OFFCURVE",
"128 87 OFFCURVE",
"128 171 CURVE SMOOTH",
"128 286 OFFCURVE",
"185 440 OFFCURVE",
"315 440 CURVE SMOOTH",
"379 440 OFFCURVE",
"424 408 OFFCURVE",
"424 337 CURVE SMOOTH",
"424 330 OFFCURVE",
"424 323 OFFCURVE",
"423 315 CURVE",
"443 315 LINE",
"448 344 OFFCURVE",
"455 373 OFFCURVE",
"455 402 CURVE SMOOTH",
"455 478 OFFCURVE",
"354 480 OFFCURVE",
"302 480 CURVE SMOOTH"
);
}
);
width = 486;
},
{
layerId = "F7C9FF73-DC1F-4AC6-B1F4-3E0815F912B2";
paths = (
{
closed = 1;
nodes = (
"392 435 OFFCURVE",
"433 400 OFFCURVE",
"433 329 CURVE SMOOTH",
"433 321 OFFCURVE",
"433 313 OFFCURVE",
"432 305 CURVE",
"462 305 LINE",
"470 346 OFFCURVE",
"475 377 OFFCURVE",
"475 400 CURVE SMOOTH",
"475 479 OFFCURVE",
"369 480 OFFCURVE",
"313 480 CURVE SMOOTH",
"140 480 OFFCURVE",
"25 332 OFFCURVE",
"25 180 CURVE SMOOTH",
"25 81 OFFCURVE",
"76 8 OFFCURVE",
"187 -7 CURVE",
"175 -77 LINE",
"214 -77 LINE SMOOTH",
"237 -77 OFFCURVE",
"248 -89 OFFCURVE",
"248 -105 CURVE",
"245 -128 OFFCURVE",
"227 -142 OFFCURVE",
"202 -142 CURVE SMOOTH",
"162 -142 LINE",
"154 -188 LINE",
"214 -188 LINE SMOOTH",
"272 -188 OFFCURVE",
"316 -145 OFFCURVE",
"316 -94 CURVE SMOOTH",
"316 -55 OFFCURVE",
"287 -32 OFFCURVE",
"242 -32 CURVE",
"246 -9 LINE",
"349 -4 OFFCURVE",
"404 52 OFFCURVE",
"439 95 CURVE",
"412 118 LINE",
"369 71 OFFCURVE",
"324 35 OFFCURVE",
"255 35 CURVE SMOOTH",
"190 35 OFFCURVE",
"157 76 OFFCURVE",
"157 157 CURVE SMOOTH",
"157 256 OFFCURVE",
"200 435 OFFCURVE",
"320 435 CURVE SMOOTH"
);
}
);
width = 498;
}
);
leftKerningGroup = c;
rightKerningGroup = c;
unicode = 00E7;
},
{
glyphname = idieresis;
lastChange = "2016-08-26 10:24:29 +0000";
layers = (
{
layerId = UUID0;
paths = (
{
closed = 1;
nodes = (
"157 626 OFFCURVE",
"138 649 OFFCURVE",
"111 649 CURVE SMOOTH",
"76 649 OFFCURVE",
"56 623 OFFCURVE",
"56 592 CURVE SMOOTH",
"56 563 OFFCURVE",
"75 540 OFFCURVE",
"102 540 CURVE SMOOTH",
"137 540 OFFCURVE",
"157 566 OFFCURVE",
"157 597 CURVE SMOOTH"
);
},
{
closed = 1;
nodes = (
"311 626 OFFCURVE",
"292 649 OFFCURVE",
"265 649 CURVE SMOOTH",
"230 649 OFFCURVE",
"210 623 OFFCURVE",
"210 592 CURVE SMOOTH",
"210 563 OFFCURVE",
"229 540 OFFCURVE",
"256 540 CURVE SMOOTH",
"291 540 OFFCURVE",
"311 566 OFFCURVE",
"311 597 CURVE SMOOTH"
);
},
{
closed = 1;
nodes = (
"132 0 LINE",
"196 375 OFFCURVE",
"200 393 OFFCURVE",
"200 409 CURVE SMOOTH",
"200 458 OFFCURVE",
"177 470 OFFCURVE",
"124 470 CURVE SMOOTH",
"34 470 LINE",
"31 450 LINE",
"51 450 LINE SMOOTH",
"94 450 OFFCURVE",
"108 430 OFFCURVE",
"108 395 CURVE SMOOTH",
"108 382 OFFCURVE",
"106 367 OFFCURVE",
"42 0 CURVE"
);
}
);
width = 251;
},
{
layerId = "F7C9FF73-DC1F-4AC6-B1F4-3E0815F912B2";
paths = (
{
closed = 1;
nodes = (
"178 639 OFFCURVE",
"158 666 OFFCURVE",
"115 666 CURVE SMOOTH",
"74 666 OFFCURVE",
"49 630 OFFCURVE",
"49 594 CURVE SMOOTH",
"49 561 OFFCURVE",
"69 534 OFFCURVE",
"112 534 CURVE SMOOTH",
"153 534 OFFCURVE",
"178 570 OFFCURVE",
"178 606 CURVE SMOOTH"
);
},
{
closed = 1;
nodes = (
"363 639 OFFCURVE",
"343 666 OFFCURVE",
"300 666 CURVE SMOOTH",
"259 666 OFFCURVE",
"234 630 OFFCURVE",
"234 594 CURVE SMOOTH",
"234 561 OFFCURVE",
"254 534 OFFCURVE",
"297 534 CURVE SMOOTH",
"338 534 OFFCURVE",
"363 570 OFFCURVE",
"363 606 CURVE SMOOTH"
);
},
{
closed = 1;
nodes = (
"163 0 LINE",
"227 365 OFFCURVE",
"229 386 OFFCURVE",
"229 403 CURVE SMOOTH",
"229 454 OFFCURVE",
"207 470 OFFCURVE",
"155 470 CURVE SMOOTH",
"35 470 LINE",
"30 440 LINE",
"40 440 LINE SMOOTH",
"83 440 OFFCURVE",
"97 420 OFFCURVE",
"97 385 CURVE SMOOTH",
"97 372 OFFCURVE",
"93 357 OFFCURVE",
"33 0 CURVE"
);
}
);
width = 271;
}
);
leftKerningGroup = i;
rightKerningGroup = i;
unicode = 00EF;
},
{
glyphname = eth;
lastChange = "2016-08-26 10:24:29 +0000";
layers = (
{
layerId = UUID0;
paths = (
{
closed = 1;
nodes = (
"327 520 LINE",
"374 560 LINE",
"402 520 OFFCURVE",
"413 471 OFFCURVE",
"416 400 CURVE",
"400 451 OFFCURVE",
"356 480 OFFCURVE",
"300 480 CURVE SMOOTH",
"135 480 OFFCURVE",
"32 321 OFFCURVE",
"32 179 CURVE SMOOTH",
"32 71 OFFCURVE",
"94 -10 OFFCURVE",
"214 -10 CURVE SMOOTH",
"421 -10 OFFCURVE",
"494 224 OFFCURVE",
"494 385 CURVE SMOOTH",
"494 481 OFFCURVE",
"470 554 OFFCURVE",
"427 605 CURVE",
"468 640 LINE",
"444 670 LINE",
"402 630 LINE",
"371 655 OFFCURVE",
"334 670 OFFCURVE",
"294 670 CURVE SMOOTH",
"259 670 OFFCURVE",
"229 667 OFFCURVE",
"198 648 CURVE",
"202 629 LINE",
"211 632 OFFCURVE",
"231 635 OFFCURVE",
"247 635 CURVE SMOOTH",
"298 635 OFFCURVE",
"325 621 OFFCURVE",
"350 590 CURVE",
"302 550 LINE"
);
},
{
closed = 1;
nodes = (
"160 30 OFFCURVE",
"126 89 OFFCURVE",
"126 173 CURVE SMOOTH",
"126 268 OFFCURVE",
"181 440 OFFCURVE",
"293 440 CURVE SMOOTH",
"354 440 OFFCURVE",
"388 381 OFFCURVE",
"388 297 CURVE SMOOTH",
"388 202 OFFCURVE",
"333 30 OFFCURVE",
"221 30 CURVE SMOOTH"
);
}
);
width = 537;
},
{
layerId = "F7C9FF73-DC1F-4AC6-B1F4-3E0815F912B2";
paths = (
{
closed = 1;
nodes = (
"412 451 OFFCURVE",
"367 480 OFFCURVE",
"302 480 CURVE SMOOTH",
"133 480 OFFCURVE",
"24 328 OFFCURVE",
"24 180 CURVE SMOOTH",
"24 72 OFFCURVE",
"87 -10 OFFCURVE",
"226 -10 CURVE SMOOTH",
"437 -10 OFFCURVE",
"524 193 OFFCURVE",
"524 364 CURVE SMOOTH",
"524 468 OFFCURVE",
"491 549 OFFCURVE",
"442 600 CURVE",
"492 642 LINE",
"458 680 LINE",
"407 634 LINE",
"378 657 OFFCURVE",
"343 670 OFFCURVE",
"286 670 CURVE SMOOTH",
"261 670 OFFCURVE",
"222 663 OFFCURVE",
"195 648 CURVE",
"203 616 LINE",
"219 620 LINE SMOOTH",
"230 623 OFFCURVE",
"243 625 OFFCURVE",
"258 625 CURVE SMOOTH",
"295 625 OFFCURVE",
"333 622 OFFCURVE",
"356 595 CURVE",
"301 548 LINE",
"334 508 LINE",
"389 555 LINE",
"414 516 OFFCURVE",
"425 468 OFFCURVE",
"428 400 CURVE"
);
},
{
closed = 1;
nodes = (
"190 35 OFFCURVE",
"157 76 OFFCURVE",
"157 160 CURVE SMOOTH",
"157 245 OFFCURVE",
"199 435 OFFCURVE",
"304 435 CURVE SMOOTH",
"360 435 OFFCURVE",
"381 377 OFFCURVE",
"381 308 CURVE SMOOTH",
"381 223 OFFCURVE",
"339 35 OFFCURVE",
"234 35 CURVE SMOOTH"
);
}
);
width = 558;
}
);
leftKerningGroup = c;
unicode = 00F0;
},
